<?xml version="1.0" encoding="UTF-8"?>
<svg version="1.1" xmlns="http://www.w3.org/2000/svg" width="1024" height="1024" viewBox="0 0 1024.000000 1024.000000"
 preserveAspectRatio="xMidYMid meet">
<path d="M0 0 C337.92 0 675.84 0 1024 0 C1024 337.92 1024 675.84 1024 1024 C686.08 1024 348.16 1024 0 1024 C0 686.08 0 348.16 0 0 Z " fill="transparent" transform="translate(0,0)"/>
<path d="M0 0 C1.02395874 0.08721313 2.04791748 0.17442627 3.10290527 0.26428223 C69.52646901 5.99670914 69.52646901 5.99670914 98 16 C98.97195313 16.32613281 99.94390625 16.65226562 100.9453125 16.98828125 C110.11401629 20.31364695 116.61340111 25.1703224 121 34 C122.26625424 37.79876271 122.23298547 41.42421926 122.31640625 45.38671875 C122.33718735 46.20372757 122.35796844 47.02073639 122.37937927 47.86250305 C122.44473079 50.47075034 122.50369273 53.07909775 122.5625 55.6875 C122.60569892 57.45639054 122.64931365 59.22527097 122.69335938 60.99414062 C122.80039743 65.32932463 122.90170544 69.66460929 123 74 C123.74765625 74.26772217 124.4953125 74.53544434 125.265625 74.8112793 C126.25046875 75.16617432 127.2353125 75.52106934 128.25 75.88671875 C129.22453125 76.23694092 130.1990625 76.58716309 131.203125 76.94799805 C155.23654078 85.98780152 173.31513244 105.75544436 184.3125 128.5 C187.23364484 135.1595629 189.30139131 141.93607445 191 149 C191.226875 149.93972656 191.45375 150.87945313 191.6875 151.84765625 C194.64738798 166.46210315 193.73466232 181.65343132 190 196 C189.76651855 196.98250732 189.76651855 196.98250732 189.52832031 197.98486328 C185.48889291 214.91256354 177.75674689 230.13649009 166 243 C165.30519531 243.8353125 164.61039063 244.670625 163.89453125 245.53125 C150.50464426 261.33570678 131.88925005 271.712326 112 277 C111.06559082 277.26256592 110.13118164 277.52513184 109.16845703 277.7956543 C102.00601229 279.65631984 95.4870961 280.2102841 88.10180664 280.1105957 C74.46492246 279.53182237 74.46492246 279.53182237 63.0625 285.8125 C61.70074293 287.5356954 60.3461892 289.2646155 59 291 C57.02270602 292.36677954 55.02457784 293.7042908 53 295 C53.94391602 295.11480713 54.88783203 295.22961426 55.86035156 295.34790039 C72.2940196 297.37260274 88.61248529 299.5108686 104.6875 303.5625 C105.80608398 303.84295166 106.92466797 304.12340332 108.07714844 304.41235352 C118.3995878 307.14015545 128.63852465 310.90659842 136.5 318.375 C138.50293331 321.88013329 138.56846928 324.02071503 138 328 C135.00211764 332.717366 131.45491664 334.73136985 126.5625 337.0625 C125.84586182 337.40901611 125.12922363 337.75553223 124.39086914 338.11254883 C118.0751767 341.09236458 111.7859167 343.31783711 105 345 C104.28779297 345.18095215 103.57558594 345.3619043 102.84179688 345.54833984 C89.26856059 348.9360262 75.50954636 351.11527383 61.6875 353.1875 C60.8472226 353.31396912 60.00694519 353.44043823 59.14120483 353.57073975 C12.4183897 360.55701999 -34.62382174 362.39701463 -81.80673218 362.37606049 C-84.70620301 362.37501578 -87.60565741 362.37732242 -90.50512695 362.37994385 C-143.3331339 362.39744842 -199.56880727 361.39872242 -251 348 C-251.81807129 347.78762695 -252.63614258 347.57525391 -253.47900391 347.35644531 C-283.42274088 339.39166966 -283.42274088 339.39166966 -291 329 C-292.1875 325.5625 -292.1875 325.5625 -292 322 C-289.31028491 316.60692029 -285.41086174 313.46356529 -280 310.9375 C-278.9486084 310.43790771 -278.9486084 310.43790771 -277.87597656 309.92822266 C-257.80660884 300.78784876 -235.59790786 298.31128881 -214 295 C-214.95140869 294.20231201 -215.90281738 293.40462402 -216.88305664 292.58276367 C-228.71272441 282.64331024 -239.57376031 272.294366 -249 260 C-249.76570313 259.02417969 -250.53140625 258.04835938 -251.3203125 257.04296875 C-279.22443824 220.45064159 -288.69126944 176.95620975 -288.53125 131.8125 C-288.53214705 129.0858503 -288.53783738 126.35921316 -288.54284668 123.63256836 C-288.55004247 117.97176113 -288.54073483 112.31116548 -288.52148438 106.65039062 C-288.49956132 100.12881204 -288.50690989 93.60773088 -288.52879 87.08616352 C-288.54697576 81.43630142 -288.54949194 75.78658826 -288.53903532 70.13670635 C-288.53283917 66.78319204 -288.53346031 63.43009831 -288.54518127 60.0765686 C-288.55535551 56.35408778 -288.53983927 52.6325657 -288.51757812 48.91015625 C-288.52567505 47.81713196 -288.53377197 46.72410767 -288.54211426 45.59796143 C-288.45314673 37.55513768 -286.77199533 31.23652723 -280.9375 25.3125 C-255.13810166 1.55555403 -197.25631236 2.85790136 -164 0 C-162.72331451 -0.11092484 -162.72331451 -0.11092484 -161.4208374 -0.22409058 C-107.8194473 -4.83376042 -53.59343256 -4.57964786 0 0 Z " fill="#52112C" transform="translate(580,403)"/>
<path d="M0 0 C0.8496294 0.17092619 0.8496294 0.17092619 1.71642303 0.34530544 C4.32058096 0.86880895 6.92493713 1.39131986 9.52929688 1.91381836 C10.42009949 2.09304588 11.3109021 2.27227341 12.22869873 2.45693207 C64.2746291 12.89044285 116.0974376 14.35516342 169.015625 14.26074219 C175.44629931 14.24937304 181.87680747 14.25610546 188.30747604 14.26763535 C233.29226603 14.33572785 278.00946038 13.64294399 322.5625 7.0625 C323.42870972 6.93516479 324.29491943 6.80782959 325.18737793 6.67663574 C334.40788793 5.31035845 343.50074968 3.82559766 352.54663086 1.54858398 C355 1 355 1 358 1 C358 7.6 358 14.2 358 21 C306.0682693 32.31437952 306.0682693 32.31437952 289 32 C288.83564453 33.22009766 288.83564453 33.22009766 288.66796875 34.46484375 C287.34553228 44.02294152 285.72385542 53.5073028 284 63 C282.75605469 62.95359375 281.51210938 62.9071875 280.23046875 62.859375 C270.79253277 62.60975944 262.54264723 62.46003968 254 67 C253.05640625 67.49757813 252.1128125 67.99515625 251.140625 68.5078125 C241.65681411 74.01867558 235.80689859 81.3335638 231.88671875 91.5703125 C228.88972357 103.16221456 230.2571573 115.47561653 236 126 C242.14090394 135.12858721 250.57328572 141.82716128 261.36328125 144.609375 C264.83561782 145.12379523 268.31130217 145.35812386 271.8125 145.5625 C272.85180664 145.62727539 272.85180664 145.62727539 273.91210938 145.69335938 C275.60788686 145.79861453 277.30392052 145.89972863 279 146 C272.91963906 172.80886413 258.47399294 196.97423074 235 212 C199.61408946 232.25654261 159.34363246 229.05480018 121.2265625 218.73828125 C114.62074504 216.87276557 108.29696576 214.74013419 102 212 C100.9275 211.71125 99.855 211.4225 98.75 211.125 C78.04038328 204.91211498 58.46757039 191.83723053 43 177 C41.54980469 175.66195312 41.54980469 175.66195312 40.0703125 174.296875 C32.33521511 167.01111937 26.57176298 159.02329756 21 150 C20.773448 155.42308859 21.54278714 159.91644861 23 165.125 C24.197688 169.45448026 25.28245186 173.46311706 25 178 C21.39741416 174.81187094 19.32516889 171.27122654 17.25 167 C16.91073486 166.31010986 16.57146973 165.62021973 16.22192383 164.90942383 C6.86964262 145.51026799 -0.37672747 125.85810105 -0.22705078 104.1027832 C-0.22748886 102.40325249 -0.22748886 102.40325249 -0.22793579 100.66938782 C-0.22655402 96.96310487 -0.21104739 93.25702862 -0.1953125 89.55078125 C-0.19157827 86.96575531 -0.18873324 84.38072794 -0.18673706 81.79570007 C-0.1799081 75.71156474 -0.16418139 69.62751339 -0.14403808 63.54340953 C-0.12158664 56.60980212 -0.11066254 49.676191 -0.10064721 42.74255621 C-0.07981208 28.49499851 -0.04469423 14.24750186 0 0 Z " fill="#F29366" transform="translate(318,456)"/>
<path d="M0 0 C0.33 0 0.66 0 1 0 C1.07045287 15.59592626 1.12316418 31.19180872 1.15543652 46.78785515 C1.17082734 54.0313134 1.19176549 61.27467211 1.22631836 68.51806641 C1.25646177 74.84017389 1.27563136 81.1622092 1.28226548 87.48438656 C1.28613616 90.82404476 1.29670262 94.16333486 1.31719017 97.50295639 C1.58190979 142.48180196 -12.14030657 176.19648947 -43.56347656 208.54785156 C-46.55877816 211.57573292 -49.6697316 214.34800645 -53 217 C-53.93972656 217.76570312 -54.87945313 218.53140625 -55.84765625 219.3203125 C-83.38590082 241.39363623 -116.99129443 254.46080024 -151.87548828 258.73364258 C-153.81210999 258.97644358 -155.74259873 259.2669513 -157.671875 259.5625 C-202.26275326 265.06053433 -252.8935049 252.89623317 -288.734375 225.59375 C-302.98322373 214.39453395 -315.88063739 202.2487439 -326.73999023 187.68603516 C-327.60149165 186.53324911 -328.47952116 185.39268051 -329.37133789 184.26318359 C-332.39133604 180.31737464 -333.80079647 177.1063536 -334.6875 172.125 C-334.914375 170.908125 -335.14125 169.69125 -335.375 168.4375 C-335.684375 166.7359375 -335.684375 166.7359375 -336 165 C-336.38738899 163.37296626 -336.78185534 161.74757864 -337.1875 160.125 C-338.12005748 156.01712282 -338.15283292 152.20290537 -338 148 C-334.81795694 150.95726297 -332.62599677 154.02250816 -330.3125 157.6875 C-315.71866018 179.55766039 -293.34817758 193.96123577 -270 205 C-269.24203125 205.35835937 -268.4840625 205.71671875 -267.703125 206.0859375 C-262.56744137 208.44126827 -257.38474589 210.3045115 -252 212 C-250.84757812 212.3815625 -249.69515625 212.763125 -248.5078125 213.15625 C-209.64500398 225.88420109 -166.43987728 231.51591905 -128.46484375 213.3046875 C-101.77621435 198.4968028 -87.66966813 173.16643332 -79 145 C-79.96679688 145.03480469 -80.93359375 145.06960938 -81.9296875 145.10546875 C-95.26817113 145.38280356 -104.76366911 143.2271362 -114.9765625 134.265625 C-123.5110271 126.05801223 -127.9675195 116.56989951 -128.52807617 104.6965332 C-128.70800945 93.21525874 -125.44227014 83.92856967 -118.01171875 75.03125 C-110.58940268 67.53687261 -100.1963358 61.27065865 -89.46875 60.8671875 C-88.1590625 60.86976563 -86.849375 60.87234375 -85.5 60.875 C-84.1903125 60.87242187 -82.880625 60.86984375 -81.53125 60.8671875 C-78.77764076 60.97075245 -76.59647153 61.16541986 -74 62 C-73.96261719 61.41476562 -73.92523437 60.82953125 -73.88671875 60.2265625 C-73.40264531 53.9051329 -72.53511502 47.68807415 -71.5 41.4375 C-71.36940186 40.63973145 -71.23880371 39.84196289 -71.10424805 39.02001953 C-70.12660095 33.25320191 -70.12660095 33.25320191 -69 31 C-66.24646624 30.44990852 -63.55769966 30.0261302 -60.77734375 29.66796875 C-59.03409581 29.42661307 -57.29085047 29.18523862 -55.54760742 28.94384766 C-54.17190079 28.75861542 -54.17190079 28.75861542 -52.7684021 28.56964111 C-37.02541005 26.44450775 -21.47657025 24.02585328 -6.0065918 20.36376953 C-4 20 -4 20 0 20 C0 13.4 0 6.8 0 0 Z " fill="#C04E3F" transform="translate(676,457)"/>
<path d="M0 0 C0.8496294 0.17092619 0.8496294 0.17092619 1.71642303 0.34530544 C4.32058096 0.86880895 6.92493713 1.39131986 9.52929688 1.91381836 C10.42009949 2.09304588 11.3109021 2.27227341 12.22869873 2.45693207 C64.2746291 12.89044285 116.0974376 14.35516342 169.015625 14.26074219 C175.44629931 14.24937304 181.87680747 14.25610546 188.30747604 14.26763535 C233.29226603 14.33572785 278.00946038 13.64294399 322.5625 7.0625 C323.42870972 6.93516479 324.29491943 6.80782959 325.18737793 6.67663574 C334.40788793 5.31035845 343.50074968 3.82559766 352.54663086 1.54858398 C355 1 355 1 358 1 C358 7.6 358 14.2 358 21 C318.94762329 29.57669286 280.6934972 33.90343194 240.74755859 35.85870361 C238.2120497 35.9890951 235.67851308 36.137463 233.14453125 36.29443359 C218.47426438 37.17561706 203.80306997 37.15884672 189.11131287 37.12917709 C186.97122235 37.12494307 184.83113297 37.12201389 182.69104004 37.11929321 C139.51334651 37.0571354 139.51334651 37.0571354 118 36 C117.18942139 35.96088501 116.37884277 35.92177002 115.54370117 35.88146973 C93.61972571 34.80448429 71.87546807 32.9845654 50.125 30 C49.20710693 29.87452789 48.28921387 29.74905579 47.34350586 29.61978149 C44.70945894 29.25516012 42.07712622 28.88038242 39.4453125 28.5 C38.69488678 28.39374802 37.94446106 28.28749603 37.17129517 28.17802429 C30.04628305 27.1152927 23.03161687 25.55421595 16 24 C16.03839507 37.3545369 16.09823665 50.70880079 16.18390274 64.06312275 C16.22305979 70.26710734 16.25540144 76.47095672 16.27099609 82.67504883 C16.28637532 88.6858867 16.321185 94.69635198 16.36830902 100.70702171 C16.3829073 102.97615467 16.39102827 105.24534089 16.39188385 107.51452065 C16.40784451 128.66179534 18.48698344 149.5578877 24.265625 169.9609375 C24.94718744 172.7814459 25.15124024 175.11563254 25 178 C21.39741416 174.81187094 19.32516889 171.27122654 17.25 167 C16.91073486 166.31010986 16.57146973 165.62021973 16.22192383 164.90942383 C6.86964262 145.51026799 -0.37672747 125.85810105 -0.22705078 104.1027832 C-0.22748886 102.40325249 -0.22748886 102.40325249 -0.22793579 100.66938782 C-0.22655402 96.96310487 -0.21104739 93.25702862 -0.1953125 89.55078125 C-0.19157827 86.96575531 -0.18873324 84.38072794 -0.18673706 81.79570007 C-0.1799081 75.71156474 -0.16418139 69.62751339 -0.14403808 63.54340953 C-0.12158664 56.60980212 -0.11066254 49.676191 -0.10064721 42.74255621 C-0.07981208 28.49499851 -0.04469423 14.24750186 0 0 Z " fill="#FDFBFA" transform="translate(318,456)"/>
<path d="M0 0 C8.13990685 6.31468361 14.63814302 16.66301328 16 27 C16.93231853 40.67998152 13.97465819 51.1724251 5.44140625 61.97265625 C-1.77618326 69.84796374 -11.6935197 74.60083362 -22.2890625 75.1796875 C-36.48239072 75.45322059 -46.15713302 72.66806997 -56.75 62.875 C-66.6573168 52.51096293 -68.50089034 41.20071018 -68.27734375 27.53125 C-67.82536078 16.66566939 -62.65087486 8.19680917 -54.875 0.875 C-38.28717076 -12.63963766 -17.02480564 -12.21648615 0 0 Z " fill="#52112A" transform="translate(435,527)"/>
<path d="M0 0 C0.92683594 0.50917969 1.85367188 1.01835938 2.80859375 1.54296875 C14.26038611 8.33324454 19.72468891 16.32414425 23.6171875 29.01171875 C25.94030107 41.07768617 22.60244203 53.80820046 16 64 C10.65796279 70.63258877 4.83315643 74.77076829 -3 78 C-3.74378906 78.36609375 -4.48757813 78.7321875 -5.25390625 79.109375 C-9.08877072 80.35311483 -12.67941063 80.34158326 -16.6875 80.3125 C-17.4911499 80.30686035 -18.2947998 80.3012207 -19.12280273 80.29541016 C-31.28035423 80.04727179 -40.04732468 75.92948776 -48.8125 67.5 C-57.50125626 58.270699 -60.66627293 47.78720488 -60.5402832 35.29760742 C-60.07733175 24.70684905 -55.4275408 15.49965285 -48 8 C-34.42807567 -3.34369794 -16.38037276 -9.02918108 0 0 Z " fill="#51122C" transform="translate(608,522)"/>
<path d="M0 0 C3.8799801 -0.00435292 7.75973387 -0.01815438 11.63964844 -0.04101562 C54.6123463 -0.28860502 98.41281328 1.13717904 140.81860352 8.74023438 C141.50243103 8.85874756 142.18625854 8.97726074 142.89080811 9.09936523 C147.68904656 10.00130242 147.68904656 10.00130242 149.92797852 12.24023438 C134.16969707 15.89470425 118.0088273 16.89826471 101.92797852 18.24023438 C100.71529297 18.34223145 99.50260742 18.44422852 98.25317383 18.54931641 C94.8952919 18.82827455 91.53693043 19.09948966 88.17797852 19.36523438 C87.23003418 19.4407251 86.28208984 19.51621582 85.30541992 19.59399414 C68.20976149 20.88761716 51.15482987 21.40172902 34.01391602 21.40820312 C31.94593282 21.41143524 29.87794982 21.41480057 27.80996704 21.41828918 C23.49203973 21.42422962 19.17413227 21.42613483 14.85620117 21.42553711 C10.52673089 21.42545661 6.19736813 21.43228573 1.86791992 21.44604492 C-33.94452985 21.55792673 -69.71014088 20.97089625 -105.38012695 17.49023438 C-108.06164066 17.22907116 -110.74433767 16.98394098 -113.42749023 16.74023438 C-122.37628284 15.90987771 -131.23618936 14.9322501 -140.07202148 13.24023438 C-140.07202148 12.25023437 -140.07202148 11.26023437 -140.07202148 10.24023438 C-130.63360151 7.84354128 -121.23828162 6.29856113 -111.57202148 5.17773438 C-110.86092224 5.09341156 -110.149823 5.00908875 -109.41717529 4.92221069 C-94.67284898 3.18171749 -79.90315012 1.95027296 -65.07202148 1.24023438 C-63.81196793 1.17718109 -63.81196793 1.17718109 -62.52645874 1.112854 C-41.6908767 0.10279529 -20.85541882 0.01988642 0 0 Z " fill="#FAF5F7" transform="translate(496.072021484375,425.759765625)"/>
<path d="M0 0 C16.73671504 5.3657383 29.94588467 19.00092705 38.5859375 33.98828125 C48.64405762 55.41041002 49.66138996 77.70567969 41.64208984 99.97045898 C33.20151552 122.12985403 17.53189273 139.15383923 -3.94921875 149.234375 C-11.42171537 152.58393094 -18.73734092 155.29421931 -27 155 C-26.67128906 154.40316406 -26.34257813 153.80632812 -26.00390625 153.19140625 C-24.96548228 151.29747852 -23.93373776 149.39988302 -22.90625 147.5 C-21.57133852 145.04901498 -20.21867608 142.61556094 -18.84375 140.1875 C-18.07986486 138.81442389 -17.3195474 137.43935792 -16.5625 136.0625 C-16.17304199 135.35512695 -15.78358398 134.64775391 -15.38232422 133.91894531 C-12.81124115 129.05542928 -11.05506924 124.24230491 -9.48583984 118.9765625 C-6.19747936 108.00329352 -6.19747936 108.00329352 -2.109375 104.578125 C0.8883654 103.14570717 3.84998367 102.04415583 7 101 C14.70845802 96.53720851 18.26506805 87.78357696 20.49609375 79.53515625 C22.55509428 69.17630861 20.16813758 60.22503193 14.75 51.3125 C11.34867306 46.22848701 7.46374346 40.79711417 1.91967773 37.9206543 C0 36 0 36 -0.45410156 32.35473633 C-0.45346936 30.84701963 -0.43093202 29.33920921 -0.390625 27.83203125 C-0.38496521 27.03721848 -0.37930542 26.2424057 -0.37347412 25.42350769 C-0.35109004 22.88589134 -0.30089262 20.3496892 -0.25 17.8125 C-0.2299375 16.09181727 -0.21168629 14.37111241 -0.1953125 12.65039062 C-0.15121894 8.43304918 -0.08217965 4.21676431 0 0 Z " fill="#F09065" transform="translate(701,503)"/>
<path d="M0 0 C3.25207527 2.21986783 5.37680717 4.04380633 6.8125 7.8125 C7.33746204 11.93720178 7.14642192 14.15801303 5.25 17.875 C2.83793927 20.78184241 0.37405697 23.02037955 -2.6015625 25.3203125 C-5.12561434 27.69515931 -6.04113006 29.84799911 -6.55859375 33.2578125 C-6.82633814 44.06208603 -2.02171663 50.74441879 4.10546875 59.234375 C11.77248066 70.81384379 14.83314009 83.58300954 12.125 97.29296875 C8.94729722 108.58705404 3.12549262 117.94160589 -7.1875 123.984375 C-11.68177997 125.8452878 -16.00015643 125.22350354 -20.4375 123.6875 C-24.35592819 121.01584441 -26.69094868 118.40199193 -27.60546875 113.6328125 C-27.8774906 109.26575902 -27.49703065 107.2723741 -25 103.5625 C-23.6078125 102.20125 -23.6078125 102.20125 -22.1875 100.8125 C-21.28 99.905 -20.3725 98.9975 -19.4375 98.0625 C-18.695 97.32 -17.9525 96.5775 -17.1875 95.8125 C-15.14802688 91.73355376 -15.52131434 87.22804463 -16.1875 82.8125 C-18.07333533 78.50361809 -20.56553894 74.70725769 -23.1875 70.8125 C-33.03776908 55.6258326 -37.30882374 40.79485396 -33.50390625 22.53125 C-32.58130894 20.11182469 -31.53631097 18.02002603 -30.1875 15.8125 C-29.75179688 15.04035156 -29.31609375 14.26820313 -28.8671875 13.47265625 C-24.92989277 7.00731709 -20.0105371 1.57109707 -13.0625 -1.625 C-7.8256386 -2.64960332 -4.66353145 -2.71115722 0 0 Z " fill="#52122D" transform="translate(514.1875,246.1875)"/>
<path d="M0 0 C8.54233633 3.1830196 14.48273536 11.16366919 18.2734375 19.140625 C21.87333121 28.35325621 21.18750852 40.54324941 17.3203125 49.53515625 C13.27100695 57.09465863 8.35375843 63.21541386 0 66 C-4.73373636 66.86674046 -8.95195077 67.18628204 -13.21875 64.71484375 C-16.34090737 62.11091332 -18.75582664 59.9708278 -19.2734375 55.79296875 C-19.54829522 48.74181118 -19.54829522 48.74181118 -16.875 45.125 C-13.97633756 42.98251037 -11.00913315 40.9832923 -8 39 C-6.43064406 35.86128812 -6.64798897 33.46144178 -7 30 C-9.08113411 27.41636938 -9.08113411 27.41636938 -12 25 C-16.33169063 21.02630033 -19.45103709 17.9004719 -19.75 11.8125 C-19.48009756 8.07406414 -19.0694745 7.09012908 -16.6875 4 C-10.90533542 -0.3030062 -7.12792753 -0.92887945 0 0 Z " fill="#51112F" transform="translate(570,295)"/>
<path d="M0 0 C4.14177256 1.71073214 6.73186849 4.13577595 9 8 C9.6797852 12.15424288 9.46836723 15.74126308 8 19.6875 C5.55067165 22.51953591 2.80978117 24.53863175 -0.2578125 26.66796875 C-2.13259727 27.89943615 -2.13259727 27.89943615 -3 30 C-3.50070321 33.37357334 -3.50070321 33.37357334 -3 37 C-0.98533565 39.48870302 1.17534221 41.31936139 3.6328125 43.34765625 C8.80906744 47.63619597 8.80906744 47.63619597 9.2734375 50.953125 C9.45733995 55.11214963 9.45772237 58.07914558 6.8125 61.4375 C2.05799463 65.76938267 -2.04384667 66.58824175 -8.375 66.4375 C-14.71578711 65.38070215 -19.36841299 61.11338549 -23.3125 56.25 C-30.00295556 46.31681668 -31.31510795 36.74676288 -30 25 C-27.98313567 15.04695356 -22.23561633 7.78718986 -14 2 C-9.46568186 -0.67235346 -5.13612974 -0.53449155 0 0 Z " fill="#51122D" transform="translate(446,295)"/>
<path d="M0 0 C3.75011131 2.70356862 5.19649575 5.17813056 6.4375 9.5 C7.56597054 13.1937369 8.79871235 15.83757289 12.0625 18.1875 C17.43494125 20.44045923 23.10782866 19.68806231 28.4375 17.75 C31.81272203 14.12781051 32.71487403 10.51746148 33.9453125 5.77734375 C35.13969117 2.63214659 36.09827162 1.62672652 39 0 C42.95766056 -0.60225269 44.69937852 -0.16187311 48.25 1.75 C51.60887815 4.49817303 52.73679133 6.31951386 53.40625 10.59375 C53.67568247 18.94615658 51.81879697 25.13445628 47 32 C44.26412953 34.89220592 41.42746957 36.98944187 38 39 C37.27296875 39.43183594 36.5459375 39.86367188 35.796875 40.30859375 C27.86400356 44.20757308 17.47903316 44.88085945 8.96142578 42.40820312 C1.70102649 39.6771774 -4.95766474 35.77518164 -9 29 C-9.40734375 28.34515625 -9.8146875 27.6903125 -10.234375 27.015625 C-13.60522984 20.68950017 -14.10015567 14.0354493 -13 7 C-10.17662145 1.32198778 -6.20594942 -0.7301117 0 0 Z " fill="#50112E" transform="translate(480,577)"/>
<path d="M0 0 C0 6.6 0 13.2 0 20 C-50.48876404 31 -50.48876404 31 -69 31 C-68.67 24.73 -68.34 18.46 -68 12 C-70.31 12.33 -72.62 12.66 -75 13 C-77.73270013 13.22426414 -80.45085459 13.41695601 -83.1875 13.5625 C-83.97616455 13.6049585 -84.7648291 13.64741699 -85.57739258 13.69116211 C-97.70681483 14.26186389 -109.86101392 14.08490628 -122 14 C-122 13.67 -122 13.34 -122 13 C-120.78231934 12.9498877 -119.56463867 12.89977539 -118.31005859 12.84814453 C-108.57263306 12.44356246 -98.83642921 12.0169657 -89.1015625 11.5546875 C-88.16259125 11.51078888 -87.22362 11.46689026 -86.25619507 11.42166138 C-69.14040074 10.59913304 -52.37909102 8.5647578 -35.4375 6.0625 C-34.13818542 5.87149719 -34.13818542 5.87149719 -32.81262207 5.67663574 C-23.59211207 4.31035845 -14.49925032 2.82559766 -5.45336914 0.54858398 C-3 0 -3 0 0 0 Z " fill="#EFC2BC" transform="translate(676,457)"/>
<path d="M0 0 C1.32385337 3.97156012 0.02614903 6.31173004 -1.5 10 C-1.7769873 10.67208496 -2.05397461 11.34416992 -2.33935547 12.03662109 C-11.4366133 33.42664414 -28.82602059 49.03998721 -50 58 C-56.42527451 60.41032426 -62.09270501 62.24595709 -69 62 C-67.56903478 59.37656375 -66.1330026 56.75875574 -64.6640625 54.15625 C-62.96074055 51.09068804 -62.96074055 51.09068804 -61.8984375 48.03125 C-60.35617287 44.21230902 -59.00098349 41.02821589 -55.18505859 39.06738281 C-52.17488922 37.91289268 -49.12173524 37.00674121 -46.02172852 36.12670898 C-38.35044849 33.94744747 -32.53671114 30.64428781 -26 26 C-25.44973145 25.61295898 -24.89946289 25.22591797 -24.33251953 24.82714844 C-14.69451778 17.98192965 -6.17134353 10.19613279 0 0 Z " fill="#BC4F43" transform="translate(743,596)"/>
<path d="M0 0 C4.86265764 2.29871089 7.56145711 5.21670433 10 10 C10.65361995 15.22895961 9.87250224 18.59549657 7 23 C3.29675825 26.75383248 0.08447459 28.79956975 -5.25 29.3125 C-11.12238983 28.82313418 -14.42066471 26.66032684 -18.4375 22.4375 C-20.65061149 17.56865472 -20.91458113 13.26079574 -20 8 C-15.85954269 -0.26454918 -8.31969677 -0.96600253 0 0 Z " fill="#F9F5F7" transform="translate(414,529)"/>
<path d="M0 0 C4.42977671 2.1357852 7.19613671 4.39012714 9 9 C9.66926959 13.93276473 9.53421711 17.7980115 7.5 22.375 C3.79495814 26.26529395 0.16300228 28.679352 -5.2734375 29.23046875 C-10.56224789 28.98678636 -13.85943779 27.27995892 -17.625 23.6015625 C-20.84109585 19.85554177 -21.56500995 15.98543764 -21.453125 11.0625 C-20.60069506 7.18247408 -17.96509542 4.5162507 -15 2 C-10.34432485 -0.92197185 -5.31608164 -0.62406176 0 0 Z " fill="#FAF6F8" transform="translate(595,529)"/>
<path d="M0 0 C4.49801982 3.03354825 6.33733447 5.36514912 7.625 10.6875 C7.93999803 15.08918293 7.04862915 18.02038348 4.6875 21.8125 C1.11320859 25.05887476 -2.56834251 27.09462625 -7.4375 27.375 C-12.84978369 26.58934592 -16.83121665 24.02668511 -20.3125 19.8125 C-21.66948258 15.74155226 -21.83637231 12.06896256 -21.3125 7.8125 C-16.75987475 -1.29275051 -9.25158715 -3.31660671 0 0 Z " fill="#FEFBF8" transform="translate(371.3125,511.1875)"/>
<path d="M0 0 C14.94434939 2.98886988 26.46295185 16.56403915 34.76171875 28.54296875 C39.30469283 35.74077907 43.94638761 44.24591464 43 53 C41.30194457 50.45291685 40.13120597 48.14216701 38.875 45.375 C30.88198781 29.41221112 15.11708248 22.81551392 0 15 C0 10.05 0 5.1 0 0 Z " fill="#FCF7F6" transform="translate(702,504)"/>
<path d="M0 0 C0.66 0 1.32 0 2 0 C2.20731128 9.74964647 2.39317176 19.49962756 2.5625 29.25 C2.5815999 30.34880619 2.5815999 30.34880619 2.60108566 31.46981049 C3.14082227 63.00097104 2.76838126 94.47407001 2 126 C0 124 0 124 -0.24609566 121.81735039 C-0.24425207 120.90477533 -0.24240849 119.99220028 -0.24050903 119.05197144 C-0.24325836 118.005867 -0.24600769 116.95976257 -0.24884033 115.88195801 C-0.24164978 114.72965698 -0.23445923 113.57735596 -0.22705078 112.39013672 C-0.22734283 111.18040192 -0.22763489 109.97066711 -0.22793579 108.72427368 C-0.2267791 105.40208714 -0.21673127 102.08014749 -0.20278788 98.75800467 C-0.19030678 95.28798744 -0.18911209 91.81796712 -0.18673706 88.34793091 C-0.18051456 81.77476213 -0.16409338 75.20165967 -0.14403808 68.62852013 C-0.12170298 61.1461587 -0.11069167 53.66379414 -0.10064721 46.18140769 C-0.07972779 30.78756668 -0.04453692 15.39379188 0 0 Z " fill="#682738" transform="translate(292,440)"/>
<path d="M0 0 C0 0.33 0 0.66 0 1 C-11.95054077 2.44510376 -23.8498929 3.51665003 -35.875 4.0625 C-36.7364563 4.10324646 -37.5979126 4.14399292 -38.48547363 4.18597412 C-74.28035386 5.82659266 -110.17441524 5.69652146 -146 6 C-146 5.34 -146 4.68 -146 4 C-146.57854736 4.00523682 -147.15709473 4.01047363 -147.75317383 4.01586914 C-168.98173114 4.18272378 -168.98173114 4.18272378 -178 3 C-178 2.67 -178 2.34 -178 2 C-176.32164062 2.04543945 -176.32164062 2.04543945 -174.609375 2.09179688 C-121.66717889 3.49047993 -68.97753187 3.8456583 -16.115448 0.45733643 C-10.72954865 0.11926822 -5.39661668 -0.06709825 0 0 Z " fill="#E7A481" transform="translate(602,489)"/>
<path d="M0 0 C0.33 0 0.66 0 1 0 C1.10546143 0.66942627 1.21092285 1.33885254 1.31958008 2.02856445 C1.81095307 5.12424095 2.31167927 8.21833848 2.8125 11.3125 C3.0609668 12.8912793 3.0609668 12.8912793 3.31445312 14.50195312 C4.31874232 20.66033026 5.60005653 26.58056534 7.4206543 32.55151367 C8.02780036 35.11749256 8.10238233 37.37296914 8 40 C4.51663541 36.85647586 2.41247217 33.55486955 0.1875 29.4375 C-0.43769531 28.30183594 -1.06289063 27.16617188 -1.70703125 25.99609375 C-3 23 -3 23 -2 20 C-1.34 19.34 -0.68 18.68 0 18 C0.27654388 16.06318864 0.27654388 16.06318864 0.1953125 13.8671875 C0.18886719 13.06152344 0.18242187 12.25585938 0.17578125 11.42578125 C0.15064453 10.16314453 0.15064453 10.16314453 0.125 8.875 C0.11146484 7.60076172 0.11146484 7.60076172 0.09765625 6.30078125 C0.07405647 4.20040116 0.03818483 2.10016556 0 0 Z " fill="#F9D9D4" transform="translate(335,594)"/>
<path d="M0 0 C1.32 0 2.64 0 4 0 C4 35.64 4 71.28 4 108 C3.67 108 3.34 108 3 108 C2.99191315 106.69121384 2.98382629 105.38242767 2.97549438 104.03398132 C2.89810757 91.71741405 2.81038728 79.40095826 2.71247292 67.08453655 C2.66246486 60.75209951 2.61613521 54.41967953 2.578125 48.0871582 C2.54132921 41.97926581 2.49498482 35.87151455 2.44193649 29.76374245 C2.42336217 27.43010743 2.40826553 25.09644213 2.39665604 22.76276207 C2.37984563 19.50144278 2.35082304 16.24044888 2.31884766 12.97924805 C2.31668747 12.00820633 2.31452728 11.03716461 2.31230164 10.03669739 C2.30113815 9.14908722 2.28997467 8.26147705 2.2784729 7.3469696 C2.27017676 6.18965851 2.27017676 6.18965851 2.26171303 5.0089674 C2.10967043 2.68505761 2.10967043 2.68505761 0 0 Z " fill="#BA524A" transform="translate(672,477)"/>
<path d="M0 0 C0.99 0.495 0.99 0.495 2 1 C2 5.95 2 10.9 2 16 C3.54107422 16.74443359 3.54107422 16.74443359 5.11328125 17.50390625 C13.42269615 21.56217948 21.33386953 25.80262341 29 31 C28.01 31.33 27.02 31.66 26 32 C23.66484247 30.65884218 21.51435632 29.28386111 19.3125 27.75 C14.33944746 24.40356881 9.78631119 21.73589336 4 20 C3.21604632 23.60355181 2.74733686 27.13872012 2.4375 30.8125 C2.31181641 32.27623047 2.31181641 32.27623047 2.18359375 33.76953125 C2.12300781 34.50558594 2.06242188 35.24164062 2 36 C1.34 36 0.68 36 0 36 C0 24.12 0 12.24 0 0 Z " fill="#D39283" transform="translate(701,503)"/>
<path d="M0 0 C0 0.66 0 1.32 0 2 C-4.70959409 2.17044981 -9.41939829 2.33063294 -14.12963867 2.48217773 C-15.72478128 2.53484225 -17.31984117 2.5900897 -18.91479492 2.64819336 C-29.36289998 3.02662866 -39.57938661 2.92659882 -50 2 C-50 1.67 -50 1.34 -50 1 C-33.36526346 -0.42220648 -16.67878703 -0.09591446 0 0 Z " fill="#64303A" transform="translate(496,400)"/>
<path d="M0 0 C0.66 0.33 1.32 0.66 2 1 C1.65066406 1.67546875 1.30132812 2.3509375 0.94140625 3.046875 C0.48636719 3.93890625 0.03132813 4.8309375 -0.4375 5.75 C-0.88996094 6.63171875 -1.34242188 7.5134375 -1.80859375 8.421875 C-3.63918597 12.38315652 -4.13950594 15.85643162 -4.31640625 20.203125 C-4.35830078 21.1828125 -4.40019531 22.1625 -4.44335938 23.171875 C-4.50233398 24.69554687 -4.50233398 24.69554687 -4.5625 26.25 C-4.60568359 27.28125 -4.64886719 28.3125 -4.69335938 29.375 C-4.79925682 31.9165387 -4.90133443 34.45817196 -5 37 C-9.42910467 28.85088922 -7.45530391 18.62123669 -5 10.0625 C-4.353405 8.03515526 -3.69426807 6.01151775 -3 4 C-5.97 4 -8.94 4 -12 4 C-12 3.67 -12 3.34 -12 3 C-11.30132812 2.86722656 -10.60265625 2.73445312 -9.8828125 2.59765625 C-8.51769531 2.33275391 -8.51769531 2.33275391 -7.125 2.0625 C-6.22007812 1.88847656 -5.31515625 1.71445312 -4.3828125 1.53515625 C-2.00043683 1.10036299 -2.00043683 1.10036299 0 0 Z " fill="#E28B73" transform="translate(372,535)"/>
<path d="M0 0 C6.87001672 11.90802898 2.83312089 29.31841126 0 42 C-0.33 42 -0.66 42 -1 42 C-0.9278125 40.98164062 -0.855625 39.96328125 -0.78125 38.9140625 C-0.25080109 31.00357791 0.10543305 23.11700634 0.125 15.1875 C0.12951172 14.42969238 0.13402344 13.67188477 0.13867188 12.89111328 C0.12924073 9.41337709 -0.13976059 6.3549337 -1 3 C-0.67 2.01 -0.34 1.02 0 0 Z " fill="#D37A66" transform="translate(745,554)"/>
<path d="M0 0 C3.62253461 2.41502308 4.05842379 4.11684758 6 8 C10.48731453 14.91463756 10.48731453 14.91463756 16 21 C15.67 21.66 15.34 22.32 15 23 C0 6.87012987 0 6.87012987 0 0 Z " fill="#BB5B56" transform="translate(343,632)"/>
<path d="M0 0 C-3.61693346 3.1963598 -6.42611609 5.35809296 -11 7 C-12.2684375 7.8353125 -12.2684375 7.8353125 -13.5625 8.6875 C-16 10 -16 10 -18.15234375 9.58203125 C-18.76207031 9.38996094 -19.37179687 9.19789063 -20 9 C-17.23907588 7.29586336 -14.46486002 5.61469315 -11.6875 3.9375 C-10.50897461 3.20950195 -10.50897461 3.20950195 -9.30664062 2.46679688 C-8.54931641 2.01240234 -7.79199219 1.55800781 -7.01171875 1.08984375 C-6.31522217 0.66566162 -5.61872559 0.24147949 -4.90112305 -0.19555664 C-3 -1 -3 -1 0 0 Z " fill="#611220" transform="translate(608,687)"/>
<path d="M0 0 C2.80041057 5.00073317 4.34821126 10.25451416 4 16 C0.18699218 12.7129243 -1.22972246 9.60272162 -3 5 C-2.34 5 -1.68 5 -1 5 C-0.67 3.35 -0.34 1.7 0 0 Z " fill="#F6CCC9" transform="translate(339,618)"/>
<path d="M0 0 C-3.35846491 2.2389766 -6.58891321 3.12872154 -10.4375 4.125 C-11.44006836 4.39763672 -11.44006836 4.39763672 -12.46289062 4.67578125 C-15.7948763 5.55418382 -18.52536772 6 -22 6 C-22 5.34 -22 4.68 -22 4 C-7.12131367 -0.2094504 -7.12131367 -0.2094504 0 0 Z " fill="#B74C4A" transform="translate(560,707)"/>
<path d="M0 0 C0.66 0.33 1.32 0.66 2 1 C0.41792503 2.75115168 -1.16561229 4.50094278 -2.75 6.25 C-3.63171875 7.22453125 -4.5134375 8.1990625 -5.421875 9.203125 C-11.99193548 16.33064516 -11.99193548 16.33064516 -17 18 C-16.30519531 17.31550781 -15.61039063 16.63101563 -14.89453125 15.92578125 C-11.73300237 12.76425237 -8.70978136 9.48152962 -5.6875 6.1875 C-4.86282227 5.2912793 -4.86282227 5.2912793 -4.02148438 4.37695312 C-2.68003022 2.91885078 -1.33987935 1.4595496 0 0 Z " fill="#621627" transform="translate(644,652)"/>
<path d="M0 0 C-7.15602434 3.89733133 -15.00820899 4.25779971 -23 4 C-19.37916722 1.88476861 -15.56642157 1.11394037 -11.5 0.3125 C-10.83613281 0.17005859 -10.17226563 0.02761719 -9.48828125 -0.11914062 C-6.05007229 -0.80884122 -3.32903523 -1.26537309 0 0 Z " fill="#BF6257" transform="translate(671,479)"/>
<path d="M0 0 C3.22957498 0.30836942 6.45857255 0.62242819 9.6875 0.9375 C10.59951172 1.02451172 11.51152344 1.11152344 12.45117188 1.20117188 C13.33740234 1.28818359 14.22363281 1.37519531 15.13671875 1.46484375 C15.94842529 1.543396 16.76013184 1.62194824 17.59643555 1.70288086 C20.09801594 2.01211634 22.53516441 2.47634232 25 3 C25 3.33 25 3.66 25 4 C21.20802551 3.86155153 17.4165141 3.71299256 13.625 3.5625 C12.54476563 3.52318359 11.46453125 3.48386719 10.3515625 3.44335938 C9.3203125 3.40146484 8.2890625 3.35957031 7.2265625 3.31640625 C6.27346191 3.27974854 5.32036133 3.24309082 4.33837891 3.20532227 C2 3 2 3 0 2 C0 1.34 0 0.68 0 0 Z " fill="#ECA887" transform="translate(358,484)"/>
<path d="M0 0 C0.66 0.33 1.32 0.66 2 1 C-0.33333333 5.66666667 -2.66666667 10.33333333 -5 15 C-4.85892253 13.54119891 -4.71197585 12.08296449 -4.5625 10.625 C-4.48128906 9.81289063 -4.40007812 9.00078125 -4.31640625 8.1640625 C-4 6 -4 6 -3 4 C-5.97 4 -8.94 4 -12 4 C-12 3.67 -12 3.34 -12 3 C-11.30132812 2.86722656 -10.60265625 2.73445312 -9.8828125 2.59765625 C-8.51769531 2.33275391 -8.51769531 2.33275391 -7.125 2.0625 C-6.22007812 1.88847656 -5.31515625 1.71445312 -4.3828125 1.53515625 C-2.00043683 1.10036299 -2.00043683 1.10036299 0 0 Z " fill="#E59C7B" transform="translate(372,535)"/>
<path d="M0 0 C2.94328298 0.55186556 5.79417378 1.21536916 8.6875 2 C13.40465271 3.20860127 18.15546795 3.62276185 23 4 C23 4.33 23 4.66 23 5 C14.40858218 5.43995881 7.53146548 5.46309065 0 1 C0 0.67 0 0.34 0 0 Z " fill="#621A23" transform="translate(482,615)"/>
<path d="M0 0 C2 2 2 2 2.265625 4.64453125 C2.25789062 6.21267578 2.25789062 6.21267578 2.25 7.8125 C2.25515625 8.85019531 2.2603125 9.88789062 2.265625 10.95703125 C1.99831735 14.0192763 1.29090101 16.22866092 0 19 C-0.33 19 -0.66 19 -1 19 C-0.67 12.73 -0.34 6.46 0 0 Z " fill="#5D1622" transform="translate(531,583)"/>
<path d="M0 0 C2.45557834 2.45557834 2.6832376 4.44249895 3.03515625 7.83203125 C2.97572889 11.49671855 1.78734974 13.80830404 0 17 C-0.99 17.66 -1.98 18.32 -3 19 C-2.54055292 16.85591361 -2.07290065 15.12591931 -0.96875 13.21875 C0.24940913 10.42877263 0.19717752 8.28145571 0.125 5.25 C0.10695313 4.26515625 0.08890625 3.2803125 0.0703125 2.265625 C0.04710937 1.51796875 0.02390625 0.7703125 0 0 Z " fill="#FAE5D7" transform="translate(376,516)"/>
<path d="M0 0 C0.99 0.99 1.98 1.98 3 3 C2.70703125 6.3203125 2.70703125 6.3203125 1.8125 10.125 C1.53019531 11.38570312 1.24789062 12.64640625 0.95703125 13.9453125 C0.64121094 14.95335937 0.32539062 15.96140625 0 17 C-0.66 17.33 -1.32 17.66 -2 18 C-1.34 12.06 -0.68 6.12 0 0 Z " fill="#691526" transform="translate(676,579)"/>
<path d="M0 0 C3.85025879 0.60355408 6.86101159 1.76772603 10.3125 3.5625 C11.19550781 4.01753906 12.07851563 4.47257813 12.98828125 4.94140625 C13.65214844 5.29074219 14.31601562 5.64007812 15 6 C15 6.99 15 7.98 15 9 C10.05 6.36 5.1 3.72 0 1 C0 0.67 0 0.34 0 0 Z " fill="#AC4B49" transform="translate(400,690)"/>
<path d="M0 0 C0.66 0 1.32 0 2 0 C2.33 2.97 2.66 5.94 3 9 C3.99 9.33 4.98 9.66 6 10 C3.03 12.475 3.03 12.475 0 15 C0.08378906 14.33613281 0.16757812 13.67226563 0.25390625 12.98828125 C1.05425042 6.45279152 1.05425042 6.45279152 0 0 Z " fill="#E7A080" transform="translate(377,516)"/>
<path d="M0 0 C-0.33 0.99 -0.66 1.98 -1 3 C-0.01 3.33 0.98 3.66 2 4 C-1.3 3.67 -4.6 3.34 -8 3 C-8 2.01 -8 1.02 -8 0 C-4.94736336 -0.98120464 -3.05263664 -0.98120464 0 0 Z " fill="#E7D1DD" transform="translate(364,436)"/>
<path d="M0 0 C1.32 0.33 2.64 0.66 4 1 C-0.62 3.64 -5.24 6.28 -10 9 C-10 8.01 -10 7.02 -10 6 C-9.36191406 5.65066406 -8.72382812 5.30132813 -8.06640625 4.94140625 C-7.24011719 4.48636719 -6.41382813 4.03132812 -5.5625 3.5625 C-4.73878906 3.11003906 -3.91507813 2.65757812 -3.06640625 2.19140625 C-1.07691202 1.16337603 -1.07691202 1.16337603 0 0 Z " fill="#B44C4A" transform="translate(598,688)"/>
<path d="M0 0 C0.33 0.66 0.66 1.32 1 2 C-1.64 5.3 -4.28 8.6 -7 12 C-8.32 11.67 -9.64 11.34 -11 11 C-10.37351562 10.45730469 -9.74703125 9.91460938 -9.1015625 9.35546875 C-8.28429687 8.64003906 -7.46703125 7.92460938 -6.625 7.1875 C-5.40683594 6.12595703 -5.40683594 6.12595703 -4.1640625 5.04296875 C-1.83816812 3.00018747 -1.83816812 3.00018747 0 0 Z " fill="#EFC4B5" transform="translate(744,647)"/>
<path d="M0 0 C0.33 0 0.66 0 1 0 C1.33 6.93 1.66 13.86 2 21 C1.01 21.33 0.02 21.66 -1 22 C-0.83701416 21.42926758 -0.67402832 20.85853516 -0.50610352 20.27050781 C0.00368519 17.98346733 0.11435968 16.01035544 0.09765625 13.671875 C0.09443359 12.87265625 0.09121094 12.0734375 0.08789062 11.25 C0.07951172 10.425 0.07113281 9.6 0.0625 8.75 C0.05573242 7.48929688 0.05573242 7.48929688 0.04882812 6.203125 C0.03707961 4.13538599 0.01914522 2.06768376 0 0 Z " fill="#FAECE7" transform="translate(335,594)"/>
<path d="M0 0 C0.99 0.495 0.99 0.495 2 1 C2.6328125 3.06640625 2.6328125 3.06640625 3.125 5.5625 C3.29257812 6.38878906 3.46015625 7.21507812 3.6328125 8.06640625 C3.75398438 8.70449219 3.87515625 9.34257813 4 10 C4.66 10 5.32 10 6 10 C6 10.66 6 11.32 6 12 C6.99 12.33 7.98 12.66 9 13 C8.34 13.66 7.68 14.32 7 15 C2.06708042 10.17267808 0.24351128 6.94007154 0 0 Z " fill="#E49075" transform="translate(485,581)"/>
<path d="M0 0 C3.36696339 0.61012088 5.38873035 1.83042527 8.0625 3.9375 C10.3442809 5.72000446 12.58629852 7.39086568 15 9 C14.67 9.66 14.34 10.32 14 11 C11.6638026 9.35810616 9.33099647 7.7117475 7 6.0625 C6.33226562 5.59392578 5.66453125 5.12535156 4.9765625 4.64257812 C3.29970233 3.45337627 1.64761213 2.22940446 0 1 C0 0.67 0 0.34 0 0 Z " fill="#AA4C49" transform="translate(384,679)"/>
<path d="M0 0 C0 1.65 0 3.3 0 5 C0.99 5.33 1.98 5.66 3 6 C-0.3 5.67 -3.6 5.34 -7 5 C-2.25 0 -2.25 0 0 0 Z " fill="#DFB0AD" transform="translate(639,694)"/>
<path d="M0 0 C0.66 0 1.32 0 2 0 C1.75 1.875 1.75 1.875 1 4 C-0.32467746 4.6837045 -1.65863633 5.34964186 -3 6 C-4.26804566 8.0335948 -4.26804566 8.0335948 -5 10 C-5.99 10 -6.98 10 -8 10 C-6.71580959 8.32756598 -5.42242815 6.66218553 -4.125 5 C-3.04605469 3.6078125 -3.04605469 3.6078125 -1.9453125 2.1875 C-1.30335938 1.465625 -0.66140625 0.74375 0 0 Z " fill="#EABEB4" transform="translate(753,636)"/>
<path d="M0 0 C0.66 0 1.32 0 2 0 C2.93423645 3.01031744 3.04449911 3.86650268 2 7 C1.77820215 8.89212737 1.59385985 10.78884472 1.4375 12.6875 C1.35371094 13.68136719 1.26992188 14.67523437 1.18359375 15.69921875 C1.12300781 16.45847656 1.06242188 17.21773437 1 18 C0.67 18 0.34 18 0 18 C0 12.06 0 6.12 0 0 Z " fill="#F5A181" transform="translate(702,521)"/>
<path d="M0 0 C1.2077558 3.62326739 0.54311128 4.64146369 -1 8 C-1.66 8 -2.32 8 -3 8 C-3.33 8.66 -3.66 9.32 -4 10 C-4.66 9.34 -5.32 8.68 -6 8 C-4.02 5.36 -2.04 2.72 0 0 Z " fill="#C05E49" transform="translate(743,596)"/>
<path d="M0 0 C0.99 0.33 1.98 0.66 3 1 C-0.17320782 4.53586014 -2.16743695 6.58578031 -7 7 C-4.78071806 4.09197539 -3.07030857 2.04687238 0 0 Z " fill="#EDC2B4" transform="translate(450,317)"/>
<path d="M0 0 C0.33 0 0.66 0 1 0 C1.49230769 6.4 1.49230769 6.4 -1 9.4375 C-1.99 10.2109375 -1.99 10.2109375 -3 11 C-3.66 10.67 -4.32 10.34 -5 10 C-3.35 6.7 -1.7 3.4 0 0 Z " fill="#AC4642" transform="translate(628,576)"/>
<path d="M0 0 C0.66 0.33 1.32 0.66 2 1 C-2.625 6.875 -2.625 6.875 -6 8 C-4.73058503 4.08597051 -3.48832306 2.20927127 0 0 Z " fill="#FEEFE2" transform="translate(357,511)"/>
<path d="M0 0 C0 3 0 3 -2.1875 5.625 C-5.00654002 8.00552268 -6.39755548 8.69121904 -10 9 C-6.83047153 5.73991357 -3.60062011 2.77762123 0 0 Z " fill="#621323" transform="translate(620,675)"/>
<path d="M0 0 C0.33 0.66 0.66 1.32 1 2 C-0.21484375 4.3828125 -0.21484375 4.3828125 -1.9375 7.125 C-2.50339844 8.03507813 -3.06929687 8.94515625 -3.65234375 9.8828125 C-4.09707031 10.58148437 -4.54179688 11.28015625 -5 12 C-6 9 -6 9 -5.0625 6.8125 C-4.711875 6.214375 -4.36125 5.61625 -4 5 C-3.34 5 -2.68 5 -2 5 C-1.34 3.35 -0.68 1.7 0 0 Z " fill="#B5504A" transform="translate(662,623)"/>
<path d="M0 0 C1.32 1.32 2.64 2.64 4 4 C3.01 5.485 3.01 5.485 2 7 C1.83300768 10.12521833 1.83300768 10.12521833 2 13 C1.67 13 1.34 13 1 13 C-0.10228696 8.59085217 -0.07654536 4.51617599 0 0 Z " fill="#CC6E5B" transform="translate(338,605)"/>
<path d="M0 0 C5.29441695 -0.50423019 7.81413519 0.81076967 12 4 C11.34 4.66 10.68 5.32 10 6 C9.67 5.01 9.34 4.02 9 3 C6.89415562 2.19436362 6.89415562 2.19436362 4.4375 1.8125 C3.61121094 1.65394531 2.78492188 1.49539063 1.93359375 1.33203125 C1.29550781 1.22246094 0.65742187 1.11289062 0 1 C0 0.67 0 0.34 0 0 Z " fill="#671A25" transform="translate(519,577)"/>
<path d="M0 0 C0.33 0 0.66 0 1 0 C1.33 2.64 1.66 5.28 2 8 C0.35 8.33 -1.3 8.66 -3 9 C-2.01 6.03 -1.02 3.06 0 0 Z " fill="#DC8067" transform="translate(690,627)"/>
<path d="M0 0 C1.85776765 3.13498292 2.20140476 5.37471432 2 9 C-0.52588702 6.63707344 -1.88820837 5.33537489 -3 2 C-2.34 2 -1.68 2 -1 2 C-0.67 1.34 -0.34 0.68 0 0 Z " fill="#E8AFAC" transform="translate(341,625)"/>
<path d="M0 0 C2.6875 -0.3125 2.6875 -0.3125 6 0 C8.875 2.5 8.875 2.5 11 5 C10.67 5.99 10.34 6.98 10 8 C7 4.25 7 4.25 7 2 C4.69 1.67 2.38 1.34 0 1 C0 0.67 0 0.34 0 0 Z " fill="#611821" transform="translate(474,577)"/>
<path d="M0 0 C0.33 0.66 0.66 1.32 1 2 C-1.83430453 5.2542015 -3.68607774 6.5206753 -8 7 C-5.42215154 4.35247996 -3.08351902 2.05567935 0 0 Z " fill="#EEC5B9" transform="translate(732,659)"/>
<path d="M0 0 C0.33 0.66 0.66 1.32 1 2 C1.99 1.67 2.98 1.34 4 1 C4.66 1.66 5.32 2.32 6 3 C5.34 3.66 4.68 4.32 4 5 C2.68 5 1.36 5 0 5 C-0.5625 3.0625 -0.5625 3.0625 -1 1 C-0.67 0.67 -0.34 0.34 0 0 Z " fill="#EED9DC" transform="translate(333,614)"/>
<path d="M0 0 C0.33 0.99 0.66 1.98 1 3 C-0.9375 5.6875 -0.9375 5.6875 -3 8 C-3.99 7.67 -4.98 7.34 -6 7 C-4.02 4.69 -2.04 2.38 0 0 Z " fill="#E58D72" transform="translate(444,583)"/>
<path d="M0 0 C2.39763185 2.39763185 2.34280586 3.33273498 2.625 6.625 C2.69976563 7.44226563 2.77453125 8.25953125 2.8515625 9.1015625 C2.90054688 9.72804688 2.94953125 10.35453125 3 11 C0.99118063 7.98677094 -0.03927918 5.47337526 -1 2 C-0.67 1.34 -0.34 0.68 0 0 Z " fill="#F3C4B5" transform="translate(742,546)"/>
<path d="M0 0 C0 3 0 3 -2 5.1875 C-2.66 5.785625 -3.32 6.38375 -4 7 C-4.99 6.67 -5.98 6.34 -7 6 C-4.69 4.02 -2.38 2.04 0 0 Z " fill="#601525" transform="translate(719,637)"/>
<path d="M0 0 C0 0.99 0 1.98 0 3 C-2 4.6875 -2 4.6875 -4 6 C-4.66 5.01 -5.32 4.02 -6 3 C-4.02 2.01 -2.04 1.02 0 0 Z " fill="#EEC4B5" transform="translate(576,357)"/>
</svg>
