<?xml version="1.0" encoding="UTF-8"?>
<svg version="1.1" xmlns="http://www.w3.org/2000/svg" width="1024.000000pt" height="1024.000000pt" viewBox="0 0 1024.000000 1024.000000"
 preserveAspectRatio="xMidYMid meet">
<path d="M0 0 C337.92 0 675.84 0 1024 0 C1024 337.92 1024 675.84 1024 1024 C686.08 1024 348.16 1024 0 1024 C0 686.08 0 348.16 0 0 Z " fill="transparent" transform="translate(0,0)"/>
<path d="M0 0 C6.33160282 4.40459326 10.74334333 10.95581253 14.875 17.375 C15.90737816 18.94888583 16.94138703 20.5217026 17.9765625 22.09375 C18.57243164 22.99996094 19.16830078 23.90617187 19.78222656 24.83984375 C24.22536159 31.54912278 28.74120536 38.2097466 33.25 44.875 C33.75293579 45.61882935 34.25587158 46.36265869 34.77404785 47.12902832 C42.21960696 58.13620899 49.76176791 69.06837144 57.42089844 79.92822266 C59.72164693 83.20628708 61.98687528 86.50839649 64.25 89.8125 C68.66068395 96.24792131 73.1054366 102.65911603 77.5625 109.0625 C78.23949951 110.03517822 78.91649902 111.00785645 79.61401367 112.01000977 C83.07443922 116.98042437 86.53679635 121.94948957 90 126.91796875 C103.29195956 145.99389058 116.3833953 165.19930019 129.39086914 184.4699707 C134.63017561 192.22822529 139.89589598 199.96699132 145.21304321 207.67216492 C147.71644316 211.30200893 150.18944662 214.94903993 152.625 218.625 C155.66693448 223.21253277 158.75727233 227.7644801 161.86547852 232.30737305 C196.63793155 283.14389753 196.63793155 283.14389753 207.875 307 C208.39707031 308.10214844 208.91914062 309.20429688 209.45703125 310.33984375 C217.02305274 327.12882548 221.8980112 344.86249198 224.875 363 C224.99214355 363.6717627 225.10928711 364.34352539 225.22998047 365.03564453 C232.94411213 410.5066108 223.21173779 459.91007466 200.875 500 C200.53533203 500.61069336 200.19566406 501.22138672 199.84570312 501.85058594 C191.70261524 516.29433121 182.28287524 529.94973955 170.875 542 C169.7023213 543.34896373 168.53539366 544.70295411 167.375 546.0625 C163.43876176 550.57027635 159.37096001 555.04428773 154.875 559 C154.215 559 153.555 559 152.875 559 C152.875 559.66 152.875 560.32 152.875 561 C151.55249023 562.26171875 151.55249023 562.26171875 149.68359375 563.6875 C148.99442871 564.21609619 148.30526367 564.74469238 147.59521484 565.28930664 C146.84191895 565.85383545 146.08862305 566.41836426 145.3125 567 C144.14775146 567.87676392 144.14775146 567.87676392 142.95947266 568.77124023 C140.60767084 570.52777371 138.24499097 572.26810306 135.875 574 C135.24577637 574.46035645 134.61655273 574.92071289 133.96826172 575.39501953 C117.70792445 587.12727625 99.40089047 595.82584412 80.82055664 603.20751953 C79.0364688 603.93422917 77.27996545 604.72772288 75.52734375 605.52734375 C70.75813046 607.45033136 65.91473641 608.73002022 60.9375 610 C59.91479004 610.26200195 58.89208008 610.52400391 57.83837891 610.79394531 C49.56617097 612.88116699 41.32544971 614.77556377 32.875 616 C32.19083008 616.10296387 31.50666016 616.20592773 30.80175781 616.31201172 C-10.28801644 622.1674433 -54.22894828 618.50741883 -93.125 604 C-94.30320312 603.57332031 -95.48140625 603.14664063 -96.6953125 602.70703125 C-106.51480629 598.98563074 -115.70071348 594.25361146 -124.90478516 589.21533203 C-126.90366175 588.12115921 -128.90995989 587.04211554 -130.91796875 585.96484375 C-155.093426 572.66151304 -177.57294078 553.03806369 -194.125 531 C-195.300625 529.43958984 -195.300625 529.43958984 -196.5 527.84765625 C-215.63080398 501.97365779 -229.25973969 473.52650263 -236.125 442 C-236.32480469 441.22914063 -236.52460938 440.45828125 -236.73046875 439.6640625 C-240.22898694 425.93303623 -240.53370541 411.28441274 -240.5 397.1875 C-240.50012085 396.39783844 -240.5002417 395.60817688 -240.50036621 394.79458618 C-240.4669019 379.26461443 -238.96791172 364.28774489 -236.125 349 C-235.98610352 348.22043945 -235.84720703 347.44087891 -235.70410156 346.63769531 C-228.68487381 308.82674074 -205.48824369 275.98238985 -184.125 245 C-183.14419554 243.57314737 -182.16369986 242.14608242 -181.18359375 240.71875 C-179.41034499 238.13699144 -177.63548123 235.55635599 -175.859375 232.9765625 C-171.7009125 226.93313268 -167.56252508 220.87595256 -163.421875 214.8203125 C-161.30915465 211.73048994 -159.19467245 208.64188963 -157.078125 205.5546875 C-148.59841906 193.18223519 -140.1774021 180.77024551 -131.75845337 168.35643005 C-104.21546398 127.74667652 -104.21546398 127.74667652 -92.53393555 111.28320312 C-89.32019133 106.73781995 -86.19140844 102.14584921 -83.125 97.5 C-79.65537017 92.24357318 -76.08711119 87.07055592 -72.4375 81.9375 C-63.53115667 69.40232335 -54.87946841 56.6860024 -46.375 43.875 C-41.82860046 37.03445414 -37.25388698 30.21294062 -32.65905762 23.40484619 C-31.8128395 22.14951673 -30.96815601 20.89315121 -30.12512207 19.63568115 C-13.95995026 -4.46718408 -13.95995026 -4.46718408 0 0 Z " fill="#41E7FC" transform="translate(519.125,192)"/>
<path d="M0 0 C6.33160282 4.40459326 10.74334333 10.95581253 14.875 17.375 C15.90737816 18.94888583 16.94138703 20.5217026 17.9765625 22.09375 C18.57243164 22.99996094 19.16830078 23.90617187 19.78222656 24.83984375 C24.22536159 31.54912278 28.74120536 38.2097466 33.25 44.875 C33.75293579 45.61882935 34.25587158 46.36265869 34.77404785 47.12902832 C42.21960696 58.13620899 49.76176791 69.06837144 57.42089844 79.92822266 C59.72164693 83.20628708 61.98687528 86.50839649 64.25 89.8125 C68.66068395 96.24792131 73.1054366 102.65911603 77.5625 109.0625 C78.23949951 110.03517822 78.91649902 111.00785645 79.61401367 112.01000977 C83.07443922 116.98042437 86.53679635 121.94948957 90 126.91796875 C103.29195956 145.99389058 116.3833953 165.19930019 129.39086914 184.4699707 C134.63017561 192.22822529 139.89589598 199.96699132 145.21304321 207.67216492 C147.71644316 211.30200893 150.18944662 214.94903993 152.625 218.625 C155.66693448 223.21253277 158.75727233 227.7644801 161.86547852 232.30737305 C196.63793155 283.14389753 196.63793155 283.14389753 207.875 307 C208.39707031 308.10214844 208.91914062 309.20429688 209.45703125 310.33984375 C217.02305274 327.12882548 221.8980112 344.86249198 224.875 363 C224.99214355 363.6717627 225.10928711 364.34352539 225.22998047 365.03564453 C232.94411213 410.5066108 223.21173779 459.91007466 200.875 500 C200.53533203 500.61069336 200.19566406 501.22138672 199.84570312 501.85058594 C191.70261524 516.29433121 182.28287524 529.94973955 170.875 542 C169.7023213 543.34896373 168.53539366 544.70295411 167.375 546.0625 C163.43876176 550.57027635 159.37096001 555.04428773 154.875 559 C154.215 559 153.555 559 152.875 559 C152.875 559.66 152.875 560.32 152.875 561 C151.55249023 562.26171875 151.55249023 562.26171875 149.68359375 563.6875 C148.99442871 564.21609619 148.30526367 564.74469238 147.59521484 565.28930664 C146.84191895 565.85383545 146.08862305 566.41836426 145.3125 567 C144.14775146 567.87676392 144.14775146 567.87676392 142.95947266 568.77124023 C140.60767084 570.52777371 138.24499097 572.26810306 135.875 574 C135.24577637 574.46035645 134.61655273 574.92071289 133.96826172 575.39501953 C117.70792445 587.12727625 99.40089047 595.82584412 80.82055664 603.20751953 C79.0364688 603.93422917 77.27996545 604.72772288 75.52734375 605.52734375 C70.75813046 607.45033136 65.91473641 608.73002022 60.9375 610 C59.91479004 610.26200195 58.89208008 610.52400391 57.83837891 610.79394531 C49.56617097 612.88116699 41.32544971 614.77556377 32.875 616 C32.19083008 616.10296387 31.50666016 616.20592773 30.80175781 616.31201172 C-10.28801644 622.1674433 -54.22894828 618.50741883 -93.125 604 C-94.30320312 603.57332031 -95.48140625 603.14664063 -96.6953125 602.70703125 C-106.51480629 598.98563074 -115.70071348 594.25361146 -124.90478516 589.21533203 C-126.90366175 588.12115921 -128.90995989 587.04211554 -130.91796875 585.96484375 C-155.093426 572.66151304 -177.57294078 553.03806369 -194.125 531 C-195.300625 529.43958984 -195.300625 529.43958984 -196.5 527.84765625 C-215.63080398 501.97365779 -229.25973969 473.52650263 -236.125 442 C-236.32480469 441.22914063 -236.52460938 440.45828125 -236.73046875 439.6640625 C-240.22898694 425.93303623 -240.53370541 411.28441274 -240.5 397.1875 C-240.50012085 396.39783844 -240.5002417 395.60817688 -240.50036621 394.79458618 C-240.4669019 379.26461443 -238.96791172 364.28774489 -236.125 349 C-235.98610352 348.22043945 -235.84720703 347.44087891 -235.70410156 346.63769531 C-228.68487381 308.82674074 -205.48824369 275.98238985 -184.125 245 C-183.14419554 243.57314737 -182.16369986 242.14608242 -181.18359375 240.71875 C-179.41034499 238.13699144 -177.63548123 235.55635599 -175.859375 232.9765625 C-171.7009125 226.93313268 -167.56252508 220.87595256 -163.421875 214.8203125 C-161.30915465 211.73048994 -159.19467245 208.64188963 -157.078125 205.5546875 C-148.59841906 193.18223519 -140.1774021 180.77024551 -131.75845337 168.35643005 C-104.21546398 127.74667652 -104.21546398 127.74667652 -92.53393555 111.28320312 C-89.32019133 106.73781995 -86.19140844 102.14584921 -83.125 97.5 C-79.65537017 92.24357318 -76.08711119 87.07055592 -72.4375 81.9375 C-63.53115667 69.40232335 -54.87946841 56.6860024 -46.375 43.875 C-41.82860046 37.03445414 -37.25388698 30.21294062 -32.65905762 23.40484619 C-31.8128395 22.14951673 -30.96815601 20.89315121 -30.12512207 19.63568115 C-13.95995026 -4.46718408 -13.95995026 -4.46718408 0 0 Z M-8.125 34 C-9.58713337 35.96780622 -10.91766799 37.9271282 -12.23046875 39.9921875 C-12.63276199 40.61215607 -13.03505524 41.23212463 -13.44953918 41.87088013 C-14.74382949 43.86805315 -16.02849951 45.87119927 -17.3125 47.875 C-18.99065329 50.47840017 -20.67253978 53.07937251 -22.35546875 55.6796875 C-22.76528488 56.31398682 -23.17510101 56.94828613 -23.59733582 57.60180664 C-26.98268242 62.82406209 -30.51821577 67.92827539 -34.125 73 C-34.89435775 74.1076907 -35.66159307 75.21686154 -36.42578125 76.328125 C-39.81137794 81.24545767 -43.21617362 86.14332287 -46.70947266 90.98486328 C-51.49309948 97.61727152 -56.07453441 104.36489028 -60.59082031 111.18188477 C-65.23551508 118.18830132 -69.98684434 125.11717341 -74.76611328 132.03222656 C-77.05796099 135.35099992 -79.3410135 138.67581408 -81.625 142 C-82.54422254 143.33727278 -83.46349332 144.67451241 -84.3828125 146.01171875 C-84.83688477 146.67220215 -85.29095703 147.33268555 -85.75878906 148.01318359 C-87.10704663 149.97389125 -88.45579868 151.93425783 -89.8046875 153.89453125 C-112.21677366 186.41343996 -112.21677366 186.41343996 -134.24560547 219.19165039 C-137.5266324 224.13232214 -140.86870279 229.03037958 -144.21289062 233.9284668 C-151.86524286 245.13909563 -159.39227616 256.41619779 -166.73193359 267.83398438 C-168.03207942 269.85552202 -169.33727278 271.87368213 -170.64453125 273.890625 C-172.8200647 277.25066601 -174.97462752 280.62379139 -177.125 284 C-178.08599609 285.48886719 -178.08599609 285.48886719 -179.06640625 287.0078125 C-200.40282619 320.71504561 -212.82007552 356.04478864 -212.625 396.0625 C-212.62390228 396.99688904 -212.62280457 397.93127808 -212.62167358 398.89398193 C-212.56944572 414.45059132 -211.15317775 428.91648985 -207.125 444 C-206.74781957 445.54666106 -206.37146377 447.09352356 -205.99609375 448.640625 C-200.62985758 469.57060305 -189.83501523 489.68939596 -177.125 507 C-176.69719238 507.58410645 -176.26938477 508.16821289 -175.82861328 508.77001953 C-169.82054875 517.19595691 -169.82054875 517.19595691 -162.125 524 C-161.135 524 -160.145 524 -159.125 524 C-159.00125 524.639375 -158.8775 525.27875 -158.75 525.9375 C-158.54375 526.618125 -158.3375 527.29875 -158.125 528 C-157.465 528.33 -156.805 528.66 -156.125 529 C-155.59712891 530.04800781 -155.59712891 530.04800781 -155.05859375 531.1171875 C-152.18951524 535.39472273 -148.2764506 538.05424658 -144.1875 541.125 C-143.37603516 541.74503906 -142.56457031 542.36507813 -141.72851562 543.00390625 C-139.533903 544.67822105 -137.33212763 546.34223332 -135.125 548 C-134.43978271 548.56058105 -133.75456543 549.12116211 -133.04858398 549.69873047 C-131.09792482 551.28015787 -131.09792482 551.28015787 -128.125 551 C-128.125 551.66 -128.125 552.32 -128.125 553 C-127.135 553 -126.145 553 -125.125 553 C-125.125 553.66 -125.125 554.32 -125.125 555 C-123.50573829 556.26220902 -123.50573829 556.26220902 -121.4375 557.4375 C-120.34308594 558.09685547 -120.34308594 558.09685547 -119.2265625 558.76953125 C-117.59169018 559.72675203 -115.9528697 560.67723084 -114.3125 561.625 C-112.125 563 -112.125 563 -110.9296875 564.3828125 C-108.31591048 566.72502828 -105.2604294 567.90303661 -102.0625 569.25 C-101.3614917 569.55010986 -100.6604834 569.85021973 -99.93823242 570.15942383 C-87.56733062 575.40739553 -75.10152121 580.44730203 -62.125 584 C-61.16335938 584.26425781 -60.20171875 584.52851562 -59.2109375 584.80078125 C-55.86377555 585.64405849 -52.51367378 586.34207377 -49.125 587 C-48.44083008 587.13825195 -47.75666016 587.27650391 -47.05175781 587.41894531 C-20.91388686 592.486375 8.79292313 592.20390098 34.875 587 C35.73512695 586.8443457 36.59525391 586.68869141 37.48144531 586.52832031 C59.04767716 582.59505415 79.67359347 574.50768215 98.875 564 C99.91140625 563.43925781 100.9478125 562.87851562 102.015625 562.30078125 C109.4837678 558.10728222 116.43245567 553.2690778 123.29980469 548.16845703 C124.64215559 547.17272061 125.99573545 546.19215126 127.3515625 545.21484375 C151.77504845 526.79231741 169.79162694 501.33839147 182.875 474 C183.35018066 473.09314453 183.35018066 473.09314453 183.83496094 472.16796875 C192.26625237 456.00191908 195.41305274 437.88059137 197.875 420 C198.06835938 418.7625 198.26171875 417.525 198.4609375 416.25 C201.71565412 389.17323489 197.82988649 361.86132538 189.875 336 C189.49601562 334.73800781 189.11703125 333.47601562 188.7265625 332.17578125 C185.59118861 322.60288438 180.84801421 313.90794585 176.02490234 305.10302734 C175.06232265 303.34258966 174.11694306 301.57276177 173.17578125 299.80078125 C166.46205435 287.2010472 158.54430696 275.3972986 150.5 263.625 C148.72022117 261.01379164 146.94200417 258.401522 145.1640625 255.7890625 C144.72758392 255.14819199 144.29110535 254.50732147 143.84140015 253.84703064 C139.52559469 247.50269587 135.26958197 241.11904435 131.02355957 234.72787476 C129.01898818 231.71222943 127.00917026 228.7000824 125 225.6875 C122.41778247 221.81503623 119.83621916 217.94214189 117.25708008 214.06762695 C109.96314468 203.11322337 102.64273817 192.17679521 95.29370117 181.25927734 C94.05679124 179.42058787 92.82111249 177.58106956 91.58666992 175.74072266 C84.6526483 165.40432708 77.64965226 155.14111668 70.28907776 145.10229492 C66.65467582 140.13779082 63.19979954 135.0734445 59.8125 129.9375 C54.52209074 121.928073 49.03597031 114.07799102 43.47412109 106.25537109 C32.32992321 90.53779857 21.31049364 74.72725177 10.66113281 58.66967773 C6.55270382 52.48654128 2.34244047 46.37471156 -1.875 40.265625 C-3.3068456 38.18746021 -4.72511531 36.09982704 -6.125 34 C-6.785 34 -7.445 34 -8.125 34 Z " fill="#073969" transform="translate(519.125,192)"/>
<path d="M0 0 C4.7632312 4.38718663 4.7632312 4.38718663 6.0625 7.75 C6.371875 8.4925 6.68125 9.235 7 10 C7.6182666 10.13365967 8.2365332 10.26731934 8.87353516 10.4050293 C11.70048871 11.19599208 12.33294009 12.35946744 13.9609375 14.76953125 C14.50741943 15.56536621 15.05390137 16.36120117 15.61694336 17.18115234 C16.19710205 18.04949707 16.77726074 18.9178418 17.375 19.8125 C18.63377427 21.65518044 19.89289834 23.49762196 21.15234375 25.33984375 C21.79284668 26.28456543 22.43334961 27.22928711 23.09326172 28.20263672 C25.99487669 32.45957709 28.96926076 36.66439914 31.9375 40.875 C37.45267981 48.73201955 42.8779119 56.64783695 48.23608398 64.61279297 C51.56618495 69.53380974 54.98765102 74.37624248 58.48635864 79.17811584 C66.00431078 89.49933338 73.1436263 100.03871597 80.1875 110.6875 C81.29588807 112.35764484 82.40461157 114.02756711 83.51367188 115.69726562 C85.66639332 118.9390753 87.81736659 122.18203272 89.96679688 125.42602539 C94.29741708 131.9598727 98.64871284 138.47990692 103 145 C103.96104006 146.44133787 104.92200001 147.88272917 105.8828125 149.32421875 C106.26566406 149.89849609 106.64851563 150.47277344 107.04296875 151.06445312 C108.15625 152.734375 109.26953125 154.40429688 110.3828125 156.07421875 C110.7857251 156.6782251 111.1886377 157.28223145 111.60375977 157.90454102 C112.64462333 159.46665536 113.68392362 161.02981156 114.72241211 162.59350586 C119.3118495 169.49587629 123.95254789 176.36157124 128.61303711 183.21606445 C136.88655526 195.38457874 145.15256133 207.55030407 153 220 C153.56203125 220.88171875 154.1240625 221.7634375 154.703125 222.671875 C173.9759713 253.71130115 184.20894037 288.9097804 184.25 325.375 C184.25133942 326.08076172 184.25267883 326.78652344 184.25405884 327.51367188 C184.24955618 338.49394374 183.53893131 349.09458921 181.40576172 359.8828125 C181.01188449 361.93798901 180.68545194 363.99268743 180.37890625 366.0625 C177.89798131 381.59524742 172.39944644 396.16103531 165 410 C164.56429688 410.93328125 164.12859375 411.8665625 163.6796875 412.828125 C151.64184386 438.55471655 129.72310475 464.49146286 106 480 C105.01257813 480.70898438 104.02515625 481.41796875 103.0078125 482.1484375 C89.62302497 491.73705057 75.56569613 499.03769527 60.26806641 505.09765625 C58.17383196 505.93084145 56.09253451 506.79024575 54.01171875 507.65625 C42.99667408 512.13523377 31.6520203 514.74278082 20 517 C18.76926758 517.24991699 18.76926758 517.24991699 17.51367188 517.50488281 C-8.38389247 522.5855179 -38.16864013 522.21392922 -64 517 C-64.71945801 516.86609863 -65.43891602 516.73219727 -66.18017578 516.59423828 C-83.04911499 513.41323832 -99.00929371 506.80596472 -114.75 500.125 C-115.64944336 499.74384033 -116.54888672 499.36268066 -117.47558594 498.9699707 C-118.30348633 498.6112085 -119.13138672 498.25244629 -119.984375 497.8828125 C-121.07830566 497.40932373 -121.07830566 497.40932373 -122.19433594 496.92626953 C-124 496 -124 496 -126 494 C-124.35 494.33 -122.7 494.66 -121 495 C-121 493.35 -121 491.7 -121 490 C-121.598125 489.7525 -122.19625 489.505 -122.8125 489.25 C-125.30766613 487.82419078 -126.29275808 486.27632256 -128 484 C-129.31647119 483.30062468 -130.65022151 482.63270867 -132 482 C-133.02019573 481.0206121 -134.02149805 480.02104551 -135 479 C-135.99 478.34 -136.98 477.68 -138 477 C-140.77000723 474.48181161 -142.34526354 472.30947292 -144 469 C-144.70125 468.29875 -145.4025 467.5975 -146.125 466.875 C-146.74375 466.25625 -147.3625 465.6375 -148 465 C-148 464.34 -148 463.68 -148 463 C-148.87398438 462.62681641 -148.87398438 462.62681641 -149.765625 462.24609375 C-152.31507622 460.82428441 -153.83616159 459.25850689 -155.75 457.0625 C-156.67039062 456.02802734 -156.67039062 456.02802734 -157.609375 454.97265625 C-159 453 -159 453 -159 450 C-159.99 450 -160.98 450 -162 450 C-162.598125 448.906875 -163.19625 447.81375 -163.8125 446.6875 C-165.30097024 444.07873236 -166.70795784 441.97949095 -169 440 C-171 438 -171 438 -171.94140625 436.11328125 C-173.05965684 433.88090645 -174.37940913 432.13412244 -175.9375 430.1875 C-178.7021583 426.58404975 -180.3060987 423.19442227 -182 419 C-182.495 418.34 -182.99 417.68 -183.5 417 C-185.5720014 414.23733147 -186.74835761 411.19008342 -188 408 C-188.28230469 407.28714844 -188.56460937 406.57429688 -188.85546875 405.83984375 C-191 400.29225352 -191 400.29225352 -191 398 C-191.66 398 -192.32 398 -193 398 C-195.17013474 391.50838484 -195.82768742 384.9718807 -196.5625 378.1875 C-196.81043919 375.9306176 -197.06157603 373.67408345 -197.31640625 371.41796875 C-197.42412354 370.42563232 -197.53184082 369.4332959 -197.64282227 368.41088867 C-197.8729584 365.99466266 -197.8729584 365.99466266 -199 364 C-199.06950541 362.45976004 -199.08452357 360.91665012 -199.0625 359.375 C-199.05347656 358.55773437 -199.04445313 357.74046875 -199.03515625 356.8984375 C-199.02355469 356.27195312 -199.01195312 355.64546875 -199 355 C-198.01 355.33 -197.02 355.66 -196 356 C-196 356.66 -196 357.32 -196 358 C-195.1646875 358.3403125 -195.1646875 358.3403125 -194.3125 358.6875 C-191.37158957 360.35666538 -189.3864325 362.6135675 -187 365 C-185.34928604 366.02611949 -183.68029994 367.02308143 -182 368 C-180.54903336 369.0016001 -179.11229372 370.02400599 -177.6875 371.0625 C-176.99011719 371.56910156 -176.29273438 372.07570313 -175.57421875 372.59765625 C-174.79498047 373.29181641 -174.79498047 373.29181641 -174 374 C-174 374.66 -174 375.32 -174 376 C-172.700625 376.37125 -172.700625 376.37125 -171.375 376.75 C-167.77965256 378.08161016 -165.1435603 379.81875408 -162 382 C-150.40313709 388.7781414 -138.61119127 395.39457046 -125.94140625 399.9296875 C-123.05896357 400.97854447 -120.29918542 402.18554365 -117.5 403.4375 C-104.65472721 408.7938948 -90.97192403 411.96067195 -77.375 414.75 C-76.42407471 414.94851563 -75.47314941 415.14703125 -74.4934082 415.3515625 C-57.18594164 418.74649422 -39.90470445 419.37549202 -22.3125 419.3125 C-21.25417969 419.31067719 -20.19585938 419.30885437 -19.10546875 419.30697632 C-3.85980709 419.26276136 10.98757294 418.88100401 26 416 C26.97646484 415.82307617 27.95292969 415.64615234 28.95898438 415.46386719 C58.97887886 409.96686564 89.17771567 400.69568891 115.01171875 384.06640625 C117 383 117 383 120 383 C120 382.01 120 381.02 120 380 C121.98 379.67 123.96 379.34 126 379 C126 378.34 126 377.68 126 377 C128.09315341 374.48291678 130.34438201 373.19264949 133.25 371.75 C137.26660414 369.58272087 140.13624663 367.15455677 143.234375 363.83203125 C145.74253352 361.22953933 148.51261913 358.9709481 151.30078125 356.67578125 C154.73295846 353.29094442 155.26116059 350.14993541 155.5625 345.4375 C155.76883806 342.33400708 156.01136396 339.96590813 157 337 C157.96486536 321.82968507 157.292203 306.83029764 154 292 C153.80664062 291.02546875 153.61328125 290.0509375 153.4140625 289.046875 C149.65455473 271.95820333 142.77807462 255.47871772 134.95166016 239.89746094 C134.16424197 238.32747269 133.39768275 236.74704206 132.63671875 235.1640625 C128.03545455 225.64529601 122.78998577 216.30164424 117.125 207.375 C115 204 115 204 113.4375 200.8125 C112.06947511 197.89401775 112.06947511 197.89401775 109.8125 195.3125 C108 193 108 193 108 190 C107.34 190 106.68 190 106 190 C105.47212891 188.98292969 105.47212891 188.98292969 104.93359375 187.9453125 C101.91926504 182.26294872 98.68612719 176.9633711 94.9296875 171.74609375 C92.23108081 167.90576885 89.71684391 163.95524681 87.19604492 159.99682617 C85.46435366 157.27805136 83.71622129 154.57513357 81.92578125 151.89453125 C80.18176648 149.27320276 78.50536877 146.63059606 76.875 143.9375 C76.37742187 143.12152344 75.87984375 142.30554688 75.3671875 141.46484375 C74.01740627 139.03138102 72.97460418 136.60358544 72 134 C71.34 134 70.68 134 70 134 C68.38854465 131.65440337 66.89943044 129.31201281 65.4375 126.875 C64.54001378 125.40566852 63.6415564 123.93692986 62.7421875 122.46875 C62.28682617 121.72238281 61.83146484 120.97601563 61.36230469 120.20703125 C58.62928967 115.77935101 55.75911386 111.439517 52.91015625 107.0859375 C51.07718158 104.12469008 49.54799291 101.11668091 48 98 C46.87921802 96.17190317 45.73323427 94.3590165 44.5625 92.5625 C37 80.80217161 37 80.80217161 37 78 C36.34 78 35.68 78 35 78 C34.59007812 77.14792969 34.18015625 76.29585938 33.7578125 75.41796875 C32.28445205 72.55310121 30.70037699 69.83278576 28.99291992 67.10375977 C23.59697858 58.45776247 19.26947823 49.43586907 15.02099609 40.18481445 C12.80983143 35.45317586 10.42815871 30.81065402 8 26.1875 C5.9579337 22.1193836 4.45163223 17.91052965 2.953125 13.6171875 C2.13173517 11.36173183 1.21103738 9.23053827 0.1875 7.0625 C-0.98777742 4.03152139 -1.28720186 2.92545878 0 0 Z " fill="#0B92E2" transform="translate(534,262)"/>
<path d="M0 0 C0.66 0 1.32 0 2 0 C1.69306489 14.21109557 0.40158741 28.21757389 -1.34667969 42.3137207 C-1.52953684 43.79114871 -1.71215091 45.26860681 -1.89453125 46.74609375 C-2.03240555 47.86281212 -2.03240555 47.86281212 -2.17306519 49.00209045 C-2.86283731 54.67285753 -3.45506927 60.34990414 -4.01171875 66.03515625 C-4.09492874 66.87364105 -4.17813873 67.71212585 -4.26387024 68.57601929 C-4.75196195 73.49698273 -4.75196195 73.49698273 -5.21694946 78.42016602 C-7.03509291 98.14939091 -9.57171678 116.99304845 -25 130.8125 C-32.87068438 136.55154069 -40.31916636 137.31868653 -50 136 C-53.25327838 134.47187219 -55.54634627 132.59910228 -58 130 C-58.56203125 129.50113281 -59.1240625 129.00226563 -59.703125 128.48828125 C-61 127 -61 127 -61 124 C-61.66 124 -62.32 124 -63 124 C-63.39650757 125.09356812 -63.39650757 125.09356812 -63.80102539 126.20922852 C-65.00540562 129.01258228 -66.39409483 131.18854831 -68.18359375 133.65234375 C-71.92567152 138.88234061 -75.50735856 144.20419712 -79.0625 149.5625 C-79.94131836 150.88411133 -79.94131836 150.88411133 -80.83789062 152.23242188 C-82.00077039 153.98125881 -83.16289376 155.73059897 -84.32421875 157.48046875 C-85.41180662 159.1156533 -86.502759 160.74860692 -87.59765625 162.37890625 C-90.79931801 167.14872887 -93.87141035 171.97865368 -96.875 176.875 C-100.3212195 182.44435417 -103.9523792 187.77325893 -107.8671875 193.02734375 C-112.51227952 199.5015471 -116.72064955 206.28075744 -121 213 C-121.54076172 213.84796143 -122.08152344 214.69592285 -122.63867188 215.56958008 C-137.92007471 239.42703246 -137.92007471 239.42703246 -152 264 C-152.45391113 264.83692383 -152.90782227 265.67384766 -153.37548828 266.53613281 C-154.86480836 269.28952256 -156.34075245 272.04968167 -157.8125 274.8125 C-158.26915039 275.66030029 -158.72580078 276.50810059 -159.19628906 277.3815918 C-163.97567804 286.45802182 -167.13683159 296.0060748 -170.0625 305.8125 C-170.31926514 306.67198242 -170.57603027 307.53146484 -170.84057617 308.41699219 C-174.53838342 321.0099693 -177.10695089 333.53304153 -177.23828125 346.6875 C-177.2527681 347.90582268 -177.2527681 347.90582268 -177.26754761 349.14875793 C-177.29227411 351.76588553 -177.30493099 354.38276833 -177.3125 357 C-177.31545074 357.89206146 -177.31840149 358.78412292 -177.32144165 359.70321655 C-177.33382183 376.15684 -175.945777 391.66837568 -171.4375 407.5625 C-170.08257743 412.42640163 -169.30301492 417.16984733 -168.8125 422.1875 C-168.73064453 422.94869141 -168.64878906 423.70988281 -168.56445312 424.49414062 C-168.36831693 426.32859089 -168.18293571 428.16418636 -168 430 C-167.34 430 -166.68 430 -166 430 C-165.76925781 430.60585938 -165.53851563 431.21171875 -165.30078125 431.8359375 C-162.25429625 439.66287524 -159.08348564 447.27393961 -154 454 C-153.566875 455.1446875 -153.566875 455.1446875 -153.125 456.3125 C-151.85246043 459.35245565 -150.17401818 461.7167194 -148.21875 464.3515625 C-146.46659959 466.72145825 -145.05754941 468.83886165 -144.0625 471.625 C-143.711875 472.40875 -143.36125 473.1925 -143 474 C-142.01 474.33 -141.02 474.66 -140 475 C-137.67734388 477.58072903 -137 478.45176068 -137 482 C-136.01 482 -135.02 482 -134 482 C-133.484375 483.03125 -132.96875 484.0625 -132.4375 485.125 C-130.36668187 488.80645446 -127.80909375 490.9862504 -124.53515625 493.5859375 C-122.51911133 495.44295598 -121.91839945 497.45673998 -121 500 C-119.03327085 501.1500831 -119.03327085 501.1500831 -117 502 C-116.01 503.485 -116.01 503.485 -115 505 C-113.35511706 506.68816933 -111.68662458 508.35353315 -110 510 C-108.9790625 511.0828125 -108.9790625 511.0828125 -107.9375 512.1875 C-106.1315421 514.06381649 -106.1315421 514.06381649 -104 514.9375 C-101.25367089 516.39648734 -99.87743269 518.5593375 -98 521 C-97.34 521.33 -96.68 521.66 -96 522 C-95.375 525.0625 -95.375 525.0625 -95 528 C-99.77899215 526.08840314 -103.73842016 523.92983614 -108 521 C-110.31330403 519.62793911 -112.65301075 518.31431398 -115 517 C-115 516.34 -115 515.68 -115 515 C-115.99 515 -116.98 515 -118 515 C-118 514.34 -118 513.68 -118 513 C-118.57959473 512.89204102 -119.15918945 512.78408203 -119.75634766 512.67285156 C-122.29821778 511.91056712 -123.80781113 510.85921415 -125.8984375 509.234375 C-126.62546875 508.67363281 -127.3525 508.11289062 -128.1015625 507.53515625 C-128.85179687 506.94605469 -129.60203125 506.35695313 -130.375 505.75 C-131.1175 505.17636719 -131.86 504.60273437 -132.625 504.01171875 C-134.76119627 502.35484568 -136.88241256 500.68055997 -139 499 C-139.6074707 498.52755859 -140.21494141 498.05511719 -140.84082031 497.56835938 C-143.52999732 495.42665064 -144.8886128 494.3341616 -146 491 C-146.99 490.34 -147.98 489.68 -149 489 C-149 488.01 -149 487.02 -149 486 C-149.53625 485.938125 -150.0725 485.87625 -150.625 485.8125 C-157.49731068 483.46144635 -161.72793944 476.81599619 -165.8125 471.1875 C-166.42488525 470.34799805 -167.03727051 469.50849609 -167.66821289 468.64355469 C-176.34100117 456.55940121 -183.04682853 443.60082249 -189 430 C-189.43957031 429.02675781 -189.87914062 428.05351563 -190.33203125 427.05078125 C-195.0361112 415.86552447 -197.48979821 403.8342153 -200 392 C-200.20012695 391.10337646 -200.40025391 390.20675293 -200.60644531 389.28295898 C-202.57311778 379.34141206 -202.39548206 369.28038753 -202.375 359.1875 C-202.37468277 357.75293961 -202.37468277 357.75293961 -202.37435913 356.28939819 C-202.34249494 341.87122761 -201.72481637 328.00555441 -198 314 C-197.81808105 313.29101562 -197.63616211 312.58203125 -197.44873047 311.8515625 C-196.20533296 307.14020822 -194.68128725 302.57144295 -193 298 C-192.7323584 297.25782227 -192.4647168 296.51564453 -192.18896484 295.75097656 C-185.42069813 277.21563294 -176.47601637 259.49452883 -165.42919922 243.13818359 C-163.65866544 240.48933924 -161.92522361 237.81755237 -160.19140625 235.14453125 C-152.74103418 223.66655952 -145.19465913 212.26416724 -137.45458984 200.97851562 C-133.25348995 194.85121532 -129.10922478 188.68925267 -125 182.5 C-117.7597225 171.60277917 -110.38994896 160.79608178 -103 150 C-101.87362193 148.35291655 -100.74731749 146.70578274 -99.62109375 145.05859375 C-96.94918684 141.15147349 -94.27559385 137.24551024 -91.6015625 133.33984375 C-89.96287806 130.94576576 -88.32506552 128.55109346 -86.6875 126.15625 C-81.54848869 118.64114481 -76.40649932 111.12812014 -71.25 103.625 C-70.85087402 103.04403564 -70.45174805 102.46307129 -70.04052734 101.86450195 C-68.04696957 98.96569393 -66.04883641 96.07028109 -64.04125977 93.18115234 C-59.92709353 87.25700757 -55.84415735 81.31394629 -51.80859375 75.3359375 C-51.36881195 74.68460846 -50.92903015 74.03327942 -50.47592163 73.36221313 C-48.67638951 70.6958165 -46.87767124 68.02887814 -45.08129883 65.36035156 C-40.16159199 58.05492874 -35.18906574 50.81637252 -29.97485352 43.71630859 C-22.85935326 33.92930701 -16.18394214 23.83372325 -9.5 13.75 C-7.90757695 11.34807414 -6.31361177 8.94718203 -4.71875 6.546875 C-4.02716797 5.50370117 -3.33558594 4.46052734 -2.62304688 3.38574219 C-1 1 -1 1 0 0 Z " fill="#D9F5F9" transform="translate(509,230)"/>
<path d="M0 0 C0.33 0 0.66 0 1 0 C1.76134295 20.72544688 -3.02277876 44.31976704 -16 61 C-20.29268293 65 -20.29268293 65 -23 65 C-23.061875 65.5775 -23.12375 66.155 -23.1875 66.75 C-24.3187079 69.88257571 -26.37947801 71.03460851 -29 73 C-29.33 73.66 -29.66 74.32 -30 75 C-30.66 75 -31.32 75 -32 75 C-32 75.66 -32 76.32 -32 77 C-33.485 77.495 -33.485 77.495 -35 78 C-36.15042176 79.15042176 -37.297592 80.30432982 -38.42578125 81.4765625 C-43.95635545 86.82873108 -50.40559498 91.08624742 -57 95 C-57.75152344 95.46277344 -58.50304687 95.92554688 -59.27734375 96.40234375 C-69.23266058 102.24412938 -79.61966588 106.80681157 -90.46484375 110.6953125 C-93.24540713 111.72150937 -95.84476135 112.82509189 -98.5 114.125 C-105.00699373 117.08051304 -112.05578808 118.44873413 -119 120 C-119.95052246 120.21333984 -120.90104492 120.42667969 -121.88037109 120.64648438 C-125.00094291 121.33961377 -128.12459048 122.01653964 -131.25 122.6875 C-132.23105713 122.90204834 -133.21211426 123.11659668 -134.22290039 123.33764648 C-144.96586857 125.5894359 -155.67007776 126.1561397 -166.625 126.203125 C-168.22637817 126.21167511 -168.22637817 126.21167511 -169.86010742 126.22039795 C-172.10545891 126.22977474 -174.3508237 126.23635245 -176.59619141 126.24023438 C-179.96412262 126.24989707 -183.33143114 126.28097471 -186.69921875 126.3125 C-215.64443785 126.45185405 -215.64443785 126.45185405 -229 122 C-230.9142872 121.77161432 -232.82860732 121.54349781 -234.74316406 121.31738281 C-248.05226216 119.44570091 -260.80073338 114.89882441 -273.14794922 109.76074219 C-275.47405033 108.80528067 -277.83102449 107.93986979 -280.1875 107.0625 C-287.06815733 104.31749259 -293.51710486 100.5612704 -300 97 C-300 96.34 -300 95.68 -300 95 C-300.556875 94.9175 -301.11375 94.835 -301.6875 94.75 C-304.71260238 93.76888571 -306.56043201 92.02305638 -309 90 C-309.7425 89.566875 -310.485 89.13375 -311.25 88.6875 C-315.39973597 86.14107111 -319.3856388 83.26788648 -323 80 C-323 79.34 -323 78.68 -323 78 C-323.556875 77.773125 -324.11375 77.54625 -324.6875 77.3125 C-327.64808726 75.63216669 -329.61563685 73.42961384 -332 71 C-332.84820312 70.18660156 -333.69640625 69.37320313 -334.5703125 68.53515625 C-335.83488281 67.31119141 -335.83488281 67.31119141 -337.125 66.0625 C-337.97320312 65.24910156 -338.82140625 64.43570313 -339.6953125 63.59765625 C-342.10904641 60.87709175 -343.48525156 58.28877815 -345 55 C-345.556875 54.2575 -346.11375 53.515 -346.6875 52.75 C-348 51 -348 51 -348 49 C-348.66 49 -349.32 49 -350 49 C-347.97393147 55.9726933 -345.93030883 62.70608297 -342.63671875 69.1953125 C-342 71 -342 71 -343 74 C-346.57011026 70.267612 -347.10913442 65.9050011 -348 61 C-348.66 61 -349.32 61 -350 61 C-352.17013474 54.50838484 -352.82768742 47.9718807 -353.5625 41.1875 C-353.81043919 38.9306176 -354.06157603 36.67408345 -354.31640625 34.41796875 C-354.42412354 33.42563232 -354.53184082 32.4332959 -354.64282227 31.41088867 C-354.8729584 28.99466266 -354.8729584 28.99466266 -356 27 C-356.06950541 25.45976004 -356.08452357 23.91665012 -356.0625 22.375 C-356.05347656 21.55773437 -356.04445313 20.74046875 -356.03515625 19.8984375 C-356.02355469 19.27195312 -356.01195312 18.64546875 -356 18 C-355.01 18.33 -354.02 18.66 -353 19 C-353 19.66 -353 20.32 -353 21 C-352.443125 21.226875 -351.88625 21.45375 -351.3125 21.6875 C-348.37158957 23.35666538 -346.3864325 25.6135675 -344 28 C-342.34928604 29.02611949 -340.68029994 30.02308143 -339 31 C-337.54903336 32.0016001 -336.11229372 33.02400599 -334.6875 34.0625 C-333.99011719 34.56910156 -333.29273438 35.07570313 -332.57421875 35.59765625 C-332.05472656 36.06042969 -331.53523438 36.52320313 -331 37 C-331 37.66 -331 38.32 -331 39 C-330.13375 39.2475 -329.2675 39.495 -328.375 39.75 C-324.77965256 41.08161016 -322.1435603 42.81875408 -319 45 C-307.40313709 51.7781414 -295.61119127 58.39457046 -282.94140625 62.9296875 C-280.05896357 63.97854447 -277.29918542 65.18554365 -274.5 66.4375 C-261.65472721 71.7938948 -247.97192403 74.96067195 -234.375 77.75 C-233.42407471 77.94851563 -232.47314941 78.14703125 -231.4934082 78.3515625 C-214.18594164 81.74649422 -196.90470445 82.37549202 -179.3125 82.3125 C-178.25417969 82.31067719 -177.19585938 82.30885437 -176.10546875 82.30697632 C-160.85980709 82.26276136 -146.01242706 81.88100401 -131 79 C-129.53530273 78.73461426 -129.53530273 78.73461426 -128.04101562 78.46386719 C-98.02112114 72.96686564 -67.82228433 63.69568891 -41.98828125 47.06640625 C-40 46 -40 46 -37 46 C-37 45.01 -37 44.02 -37 43 C-35.02 42.67 -33.04 42.34 -31 42 C-31 41.34 -31 40.68 -31 40 C-28.90684659 37.48291678 -26.65561799 36.19264949 -23.75 34.75 C-19.73339586 32.58272087 -16.86375337 30.15455677 -13.765625 26.83203125 C-11.25746648 24.22953933 -8.48738087 21.9709481 -5.69921875 19.67578125 C-2.26704154 16.29094442 -1.73883941 13.14993541 -1.4375 8.4375 C-1.23116194 5.33400708 -0.98863604 2.96590813 0 0 Z " fill="#10ADFC" transform="translate(691,599)"/>
<path d="M0 0 C4.69156578 0.00016097 9.38273446 -0.01350007 14.07421875 -0.04101562 C135.92938968 -0.74417641 135.92938968 -0.74417641 158.6015625 14.37060547 C158.6015625 16.62060547 158.6015625 16.62060547 157.6015625 19.37060547 C150.33056411 24.36941686 141.1099513 25.58778909 132.6015625 27.37060547 C131.85970703 27.53270508 131.11785156 27.69480469 130.35351562 27.86181641 C68.78020528 40.88205887 0.93629905 37.51461196 -61.3984375 33.37060547 C-62.5136377 33.29776337 -62.5136377 33.29776337 -63.65136719 33.22344971 C-79.52582339 32.17119246 -95.18948528 30.29916938 -110.8359375 27.43310547 C-111.51015747 27.31181274 -112.18437744 27.19052002 -112.87902832 27.06555176 C-131.01681342 23.75222955 -131.01681342 23.75222955 -136.3984375 18.37060547 C-136.27734375 15.87841797 -136.27734375 15.87841797 -135.3984375 13.37060547 C-125.15734055 5.89297912 -106.74126121 5.87489996 -94.34863281 4.54516602 C-92.18971199 4.3125526 -90.03241456 4.06792366 -87.875 3.82177734 C-83.93890261 3.38149504 -79.99951267 2.98994361 -76.05615234 2.62060547 C-74.2649051 2.45211041 -72.47420865 2.27766718 -70.68408203 2.09765625 C-47.17966113 -0.20811899 -23.5925676 -0.00423823 0 0 Z " fill="#93DCEB" transform="translate(501.3984375,818.62939453125)"/>
<path d="M0 0 C11.68108454 7.38936755 19.619697 16.4673571 23.9765625 29.7265625 C26.66779427 41.71767208 24.36462103 54.04427118 17.94921875 64.48046875 C11.16379053 73.7487855 1.41697417 81.01438244 -9.98828125 83.3828125 C-24.00159113 85.06533161 -36.76461549 83.29729437 -48.1484375 74.5703125 C-56.15377499 67.69447589 -61.42760815 59.20441616 -63.36328125 48.66796875 C-64.13887537 34.02186579 -61.62011119 22.0473676 -52.17578125 10.35546875 C-39.09960298 -3.56152808 -17.44838916 -8.88598421 0 0 Z " fill="#083A68" transform="translate(439.36328125,493.33203125)"/>
<path d="M0 0 C2.07038059 1.45443243 3.95143639 3.00540713 5.84765625 4.6796875 C6.52699219 5.25460937 7.20632813 5.82953125 7.90625 6.421875 C14.13033034 12.09296522 20.34930221 20.96321517 20.99291992 29.63745117 C21.01767802 32.04750569 21.03331781 34.45699609 21.03515625 36.8671875 C21.04740234 37.69283203 21.05964844 38.51847656 21.07226562 39.36914062 C21.10040961 51.274046 17.40272527 60.20670172 9.22265625 68.8671875 C-0.54638904 78.22858262 -11.17483484 82.11162711 -24.58984375 82.04321289 C-35.61891247 81.77534367 -44.10538164 78.2140053 -52.15234375 70.6796875 C-52.77882813 70.10605469 -53.4053125 69.53242187 -54.05078125 68.94140625 C-62.42528851 60.40233444 -65.71531212 50.18569362 -65.77734375 38.4921875 C-65.63199258 30.97535509 -64.78272497 24.38454781 -61.15234375 17.6796875 C-60.73984375 16.90753906 -60.32734375 16.13539063 -59.90234375 15.33984375 C-54.53958813 6.42730955 -46.54993894 -0.85951701 -36.7578125 -4.5078125 C-24.4023098 -7.29215114 -10.92916694 -6.70428027 0 0 Z " fill="#073A68" transform="translate(627.15234375,495.3203125)"/>
<path d="M0 0 C2.96711934 2.5724108 5.53664982 5.08255903 6.48046875 8.98828125 C6.82618352 17.4665243 2.46267646 22.85084608 -2.68359375 29.05859375 C-5.35356351 32.44896007 -7.74942874 35.96268876 -10.125 39.5625 C-10.55353271 40.20960938 -10.98206543 40.85671875 -11.42358398 41.5234375 C-13.21074465 44.23542015 -14.97280809 46.95625375 -16.6875 49.71484375 C-20.70646448 56.10368675 -25.82170173 62.11780448 -33 65 C-38.90289963 65.7500384 -43.99759473 65.45404174 -49 62 C-53.1092849 57.44646808 -54.38674848 54.55603055 -54.3671875 48.53125 C-53.72874929 44.13010152 -51.42202481 40.65898748 -49 37 C-48.34 37 -47.68 37 -47 37 C-46.74605469 36.11699219 -46.49210937 35.23398437 -46.23046875 34.32421875 C-44.97284492 30.92663819 -43.5133554 28.67058531 -41.3125 25.8125 C-38.510296 22.09137505 -35.9259319 18.35129758 -33.5 14.375 C-24.25352263 -0.26001406 -24.25352263 -0.26001406 -16.0078125 -2.63671875 C-10.01775557 -3.72052282 -5.19907182 -3.50372232 0 0 Z " fill="#FAFEFE" transform="translate(462,389)"/>
<path d="M0 0 C4.96109371 1.63791834 7.73070944 6.76902858 10.5703125 10.8828125 C14.71498979 16.79281531 17.76851053 18.62995882 24.859375 20.36328125 C34.22017373 21.28100662 43.11713879 21.07591723 51.390625 16.07421875 C54.11070771 13.77754514 55.77900808 10.86480059 57.65625 7.87109375 C61.90384801 1.16561599 61.90384801 1.16561599 65.9609375 0.23828125 C69.81159336 0.00753034 71.6743431 0.43799493 74.984375 2.55078125 C77.42834942 5.0688155 77.95706348 6.08559128 78.484375 9.55078125 C78.34923038 17.64256532 72.55215936 26.14114362 67.15625 31.859375 C56.12379958 41.35954064 45.17163563 43.03458982 31.109375 43.05078125 C29.99369141 43.07527344 28.87800781 43.09976563 27.72851562 43.125 C15.50000496 43.16798246 6.78162408 39.20535166 -1.953125 30.67578125 C-7.315406 24.32571164 -11.953125 17.53291554 -11.953125 8.98828125 C-10.11157385 2.88814305 -6.68157151 -0.43957707 0 0 Z " fill="#073766" transform="translate(479.953125,577.32421875)"/>
<path d="M0 0 C0.72953384 -0.0033284 1.45906769 -0.0066568 2.21070862 -0.01008606 C3.76343149 -0.01516326 5.31616532 -0.01749414 6.86889648 -0.01733398 C9.21292013 -0.01949349 11.55645208 -0.03756407 13.90039062 -0.05664062 C21.73033229 -0.08571963 29.20324822 0.12420197 36.81640625 2.16796875 C37.70328125 2.37421875 38.59015625 2.58046875 39.50390625 2.79296875 C43.35923223 5.08532474 46.2018483 8.55128917 48.81640625 12.16796875 C48.81640625 12.82796875 48.81640625 13.48796875 48.81640625 14.16796875 C49.47640625 14.16796875 50.13640625 14.16796875 50.81640625 14.16796875 C52.68860313 19.78455938 52.08115213 24.75774248 49.81640625 30.16796875 C44.59116276 35.39321224 36.81226736 34.55220785 29.91796875 34.64453125 C28.76904144 34.66067474 27.62011414 34.67681824 26.43637085 34.69345093 C24.01070118 34.72105208 21.58495514 34.74253228 19.15917969 34.75830078 C16.68401256 34.78138154 14.20894658 34.82235168 11.734375 34.88134766 C8.14905527 34.96678059 4.56668029 34.99903861 0.98046875 35.01953125 C-0.66832779 35.07205551 -0.66832779 35.07205551 -2.35043335 35.12564087 C-8.30900776 35.09215375 -11.54420208 34.4970086 -15.88134766 30.23974609 C-20.13850585 25.36248139 -20.46915676 22.26062727 -20.40234375 15.86328125 C-19.97470901 10.59421029 -17.01339505 7.54720519 -13.18359375 4.16796875 C-11.53753549 3.13439728 -9.87395933 2.12736543 -8.18359375 1.16796875 C-6.25151806 -0.76410694 -2.63441104 0.00414555 0 0 Z " fill="#F88D8F" transform="translate(373.18359375,587.83203125)"/>
<path d="M0 0 C1.24526459 -0.0049926 1.24526459 -0.0049926 2.51568604 -0.01008606 C4.27770431 -0.0151605 6.03973224 -0.01749423 7.80175781 -0.01733398 C10.49039764 -0.01951082 13.17862088 -0.03763405 15.8671875 -0.05664062 C17.5781236 -0.05957642 19.28906164 -0.06155997 21 -0.0625 C21.80226013 -0.06968552 22.60452026 -0.07687103 23.43109131 -0.08427429 C28.67274539 -0.06297611 32.71128707 0.29965355 36.75 3.97265625 C37.33265625 4.65585937 37.9153125 5.3390625 38.515625 6.04296875 C39.40507813 7.06003906 39.40507813 7.06003906 40.3125 8.09765625 C43.61861142 12.80797628 43.26189558 18.61876134 42.765625 24.16796875 C41.02676498 28.37784038 38.65424354 30.82767749 34.765625 33.16796875 C30.71223593 33.74337534 26.69262355 33.656365 22.60546875 33.59375 C21.42344376 33.59046188 20.24141876 33.58717377 19.02357483 33.58378601 C16.52794886 33.57337354 14.03234698 33.553438 11.53686523 33.5246582 C7.71389482 33.48059289 3.89155232 33.46322156 0.06835938 33.45117188 C-2.3567799 33.4377471 -4.78191145 33.42282394 -7.20703125 33.40625 C-8.35188492 33.39886307 -9.49673859 33.39147614 -10.67628479 33.38386536 C-12.27330482 33.3646125 -12.27330482 33.3646125 -13.90258789 33.3449707 C-15.30559898 33.33020439 -15.30559898 33.33020439 -16.73695374 33.31513977 C-20.99054697 33.06447895 -22.72532493 32.61917222 -25.984375 29.73046875 C-28.74105977 26.18859823 -28.89800598 22.94574487 -28.6484375 18.55859375 C-27.64544589 12.76773653 -23.52737708 9.08312415 -19.1796875 5.48828125 C-16.05775647 3.36938027 -12.81024163 2.33937334 -9.234375 1.16796875 C-7.1765411 -0.88986515 -2.83239674 0.00388959 0 0 Z " fill="#FB8A8E" transform="translate(628.234375,587.83203125)"/>
<path d="M0 0 C4.46399293 3.47629818 6.23349372 6.7345507 7 12.3125 C7.2855863 15.66673905 7.19808462 18.54687521 6.25 21.8125 C5.59 21.8125 4.93 21.8125 4.25 21.8125 C4.25 22.4725 4.25 23.1325 4.25 23.8125 C3.59 23.8125 2.93 23.8125 2.25 23.8125 C2.25 24.4725 2.25 25.1325 2.25 25.8125 C0.93 26.1425 -0.39 26.4725 -1.75 26.8125 C-1.75 27.4725 -1.75 28.1325 -1.75 28.8125 C-10.13606917 32.47187564 -16.12733232 32.94138733 -24.8125 29.8125 C-26.46401985 29.16004771 -28.11204595 28.49829758 -29.75 27.8125 C-29.75 27.1525 -29.75 26.4925 -29.75 25.8125 C-30.41 25.8125 -31.07 25.8125 -31.75 25.8125 C-32.41 23.8325 -33.07 21.8525 -33.75 19.8125 C-34.41 19.8125 -35.07 19.8125 -35.75 19.8125 C-36.54054054 10.7652027 -36.54054054 10.7652027 -33.3125 6.875 C-32.466875 6.194375 -31.62125 5.51375 -30.75 4.8125 C-30.42 3.8225 -30.09 2.8325 -29.75 1.8125 C-21.65545455 -3.56587576 -8.50345046 -4.95773126 0 0 Z " fill="#FDFEFE" transform="translate(365.75,326.1875)"/>
<path d="M0 0 C3.02810297 2.25872483 4.74071372 4.57855557 5.4375 8.3984375 C5.71136955 14.09834749 4.87681076 17.62616222 1 22 C-5.01893049 28.1977106 -10.4109535 30.03321051 -19.0625 30.375 C-24.17549805 30.28552253 -27.13441468 29.5682326 -31 26 C-34.73303146 21.75206765 -35.36273235 17.84431269 -35.2734375 12.34375 C-34.73987106 7.77032334 -32.75712706 4.60396344 -29.38671875 1.52734375 C-20.16507912 -5.48600968 -9.85714928 -6.10113689 0 0 Z " fill="#F8FBFB" transform="translate(431,506)"/>
<path d="M0 0 C3.86544091 2.15413891 5.9521908 4.26681718 7.8125 8.375 C8.76164121 13.79301441 8.11150189 18.2086182 5.07421875 22.8125 C0.88023869 28.00628336 -4.54589836 31.63594887 -11.19921875 32.6953125 C-14.76614156 32.89913666 -17.20339593 32.36766342 -20.4375 30.875 C-24.55583309 27.13106083 -26.94104159 23.5247385 -27.3828125 17.87890625 C-27.12396528 12.87706437 -26.10104144 8.82667243 -22.90234375 4.9140625 C-16.22706661 -1.07696072 -8.40837581 -3.66995408 0 0 Z " fill="#F6FAFB" transform="translate(605.1875,503.625)"/>
<path d="M0 0 C3.375 1.8125 3.375 1.8125 4.375 4.5 C4.375 5.263125 4.375 6.02625 4.375 6.8125 C5.365 6.8125 6.355 6.8125 7.375 6.8125 C8.80224868 16.63128307 8.80224868 16.63128307 7.3125 20.75 C3.39038001 24.92515999 -1.04342911 27.53339001 -6.625 28.8125 C-11.52449238 28.40420897 -16.22355911 27.01322044 -20.625 24.8125 C-20.625 24.1525 -20.625 23.4925 -20.625 22.8125 C-21.24375 22.585625 -21.8625 22.35875 -22.5 22.125 C-25.33923268 20.37135629 -25.75462687 19.00386813 -26.625 15.8125 C-27.10696076 11.18567669 -26.46604235 8.52770923 -23.625 4.8125 C-22.965 4.8125 -22.305 4.8125 -21.625 4.8125 C-21.625 4.1525 -21.625 3.4925 -21.625 2.8125 C-20.635 2.8125 -19.645 2.8125 -18.625 2.8125 C-18.295 1.8225 -17.965 0.8325 -17.625 -0.1875 C-12.56271446 -2.71864277 -5.24369164 -1.68140112 0 0 Z " fill="#FCFEFE" transform="translate(720.625,307.1875)"/>
<path d="M0 0 C2 2 2 2 2.01171875 5.37109375 C1.91455536 6.72738817 1.80601122 8.08290398 1.6875 9.4375 C1.63916016 10.11876953 1.59082031 10.80003906 1.54101562 11.50195312 C1.30754991 14.51927585 0.96081176 17.11756472 0 20 C-0.17753156 21.85140053 -0.31892198 23.70639099 -0.4375 25.5625 C-1.7298395 41.39365888 -6.59809667 54.31960733 -19 65 C-24.65898206 68.76692594 -29.77878983 69.71155647 -36.5 69.625 C-37.75792358 69.62004517 -37.75792358 69.62004517 -39.04125977 69.61499023 C-44.69629005 69.43396283 -48.4696844 68.62733047 -52.52734375 64.41015625 C-54.2841448 62.72791439 -55.63358918 62.40377204 -58 62 C-59.32074115 63.57646551 -60.63131224 65.16145531 -61.9375 66.75 C-62.66839844 67.63171875 -63.39929688 68.5134375 -64.15234375 69.421875 C-65.89048722 71.84719148 -66.39461921 73.17682998 -67 76 C-68.12890625 77.75390625 -68.12890625 77.75390625 -69.5625 79.5625 C-70.09617187 80.25214844 -70.62984375 80.94179688 -71.1796875 81.65234375 C-71.78039062 82.42707031 -72.38109375 83.20179688 -73 84 C-74.4046282 85.86842054 -75.80019004 87.74368483 -77.1875 89.625 C-77.84105469 90.50414062 -78.49460937 91.38328125 -79.16796875 92.2890625 C-81.06367221 95.09421857 -82.49903432 97.96951767 -84 101 C-84.89733648 102.29950408 -85.83289811 103.57382984 -86.8125 104.8125 C-89.5160216 108.32175094 -91.98950739 111.92924874 -94.41796875 115.6328125 C-96.68816948 119.02970544 -99.08532666 122.33382864 -101.484375 125.640625 C-103.08509325 127.96722301 -103.08509325 127.96722301 -104.05859375 130.66015625 C-105 133 -105 133 -107.3125 135.1875 C-110.41365476 138.43289452 -111.95210672 141.63921552 -113.7890625 145.6953125 C-114.97482737 147.9520908 -116.19435174 149.24382155 -118 151 C-118.391875 152.010625 -118.78375 153.02125 -119.1875 154.0625 C-120.96536661 158.5404421 -123.98179908 161.91781481 -127.0625 165.5703125 C-129.60630391 168.76032466 -131.59169741 171.82953257 -132.9375 175.6875 C-134 178 -134 178 -136.125 179.3125 C-136.74375 179.539375 -137.3625 179.76625 -138 180 C-136.26603699 174.80861983 -133.25157325 170.44475016 -130.3125 165.875 C-129.76940186 165.02333252 -129.22630371 164.17166504 -128.66674805 163.29418945 C-127.59206385 161.60957104 -126.51569782 159.92602412 -125.4375 158.24365234 C-123.72049365 155.56374603 -122.01630443 152.87581407 -120.3125 150.1875 C-119.77882813 149.3521875 -119.24515625 148.516875 -118.6953125 147.65625 C-117.43443891 145.68068769 -116.18028695 143.70083215 -114.9296875 141.71875 C-111.19070534 135.81678854 -107.35789472 130.02727814 -103.25 124.375 C-96.24967923 114.73732306 -89.62228075 104.73897959 -83.51367188 94.51147461 C-82.06653091 92.11038766 -80.55473918 89.77523363 -78.99609375 87.4453125 C-78.4247168 86.5896167 -77.85333984 85.7339209 -77.26464844 84.85229492 C-76.36020996 83.50228394 -76.36020996 83.50228394 -75.4375 82.125 C-70.14473916 74.22948903 -70.14473916 74.22948903 -64.92578125 66.28515625 C-64.46953369 65.58696777 -64.01328613 64.8887793 -63.54321289 64.16943359 C-62.6970133 62.87257721 -61.85612683 61.57223457 -61.02124023 60.26806641 C-60.0657743 58.81021231 -59.03998152 57.39881812 -58 56 C-57.34 56 -56.68 56 -56 56 C-55.566875 56.7425 -55.13375 57.485 -54.6875 58.25 C-52.21598629 62.27765198 -48.88422735 64.4105151 -45 67 C-35.79683215 68.05975872 -27.65940278 67.60970344 -20 62 C-2.43725639 47.08369721 -2.00224048 21.45930675 0 0 Z " fill="#76F4F4" transform="translate(504,298)"/>
<path d="M0 0 C2.375 1.02734375 2.375 1.02734375 4 2 C4 2.66 4 3.32 4 4 C4.66 4 5.32 4 6 4 C7.60276778 8.71402287 8.60326264 12.19021207 7 17 C2.19728897 21.55641816 -1.07873293 22.35021482 -7.51953125 22.28515625 C-11.03197119 21.88136394 -12.67802118 20.61222617 -15 18 C-17.6934151 13.56979654 -17.14308421 9.90391851 -16 5 C-13.06563818 -1.84684425 -6.48516093 -0.8370792 0 0 Z " fill="#FCFEFE" transform="translate(400,214)"/>
<path d="M0 0 C1.77335484 4.15932318 0.06064467 7.78237622 -1.3125 11.8125 C-1.76772781 13.19374677 -2.22216142 14.57525556 -2.67578125 15.95703125 C-3.01065552 16.97301392 -3.01065552 16.97301392 -3.35229492 18.00952148 C-4.9668913 22.9713776 -6.21964615 27.59674457 -6.5625 32.8125 C-6.89952153 37.79904306 -6.89952153 37.79904306 -8 40 C-8.09039906 41.6648064 -8.11755257 43.33323421 -8.11352539 45.00048828 C-8.11344986 46.04141632 -8.11337433 47.08234436 -8.11329651 48.15481567 C-8.10813522 49.28192963 -8.10297394 50.40904358 -8.09765625 51.5703125 C-8.0962413 52.72167694 -8.09482635 53.87304138 -8.09336853 55.05929565 C-8.08775716 58.74788986 -8.0752027 62.43642405 -8.0625 66.125 C-8.05748647 68.62109288 -8.05292331 71.1171867 -8.04882812 73.61328125 C-8.03778403 79.74220809 -8.0210348 85.87109976 -8 92 C-7.34 92.33 -6.68 92.66 -6 93 C-6.04125 94.299375 -6.0825 95.59875 -6.125 96.9375 C-6.14506249 101.17737298 -5.47495691 104.88397814 -4.33984375 108.95703125 C-3.95520949 111.2692579 -4.28879765 112.78681786 -5 115 C-5.63341521 112.46018951 -6.25666853 109.91849116 -6.875 107.375 C-7.04902344 106.68148437 -7.22304688 105.98796875 -7.40234375 105.2734375 C-10.49205814 92.45684447 -11.3491193 79.96826288 -11.31567383 66.84277344 C-11.31252099 64.26714384 -11.33604455 61.69267569 -11.36132812 59.1171875 C-11.43925177 38.61959915 -7.47028951 19.11281518 0 0 Z " fill="#4FD2EE" transform="translate(342,524)"/>
<path d="M0 0 C0.66 0.33 1.32 0.66 2 1 C0.40337182 5.69065907 -2.15891819 9.45040746 -4.9375 13.5 C-9.79483571 20.55145262 -9.79483571 20.55145262 -14 28 C-14.66 28 -15.32 28 -16 28 C-16.28875 28.928125 -16.5775 29.85625 -16.875 30.8125 C-18 34 -18 34 -20 37 C-20.75382467 41.60183667 -20.39969844 45.1698571 -18.375 49.375 C-14.4406311 53.723513 -10.90300924 55.16324486 -5.125 55.5 C1.38024614 55.26592817 5.34828191 52.59206799 9.91015625 48.1328125 C13.64821891 44.05348298 16.3401958 39.82705206 19 35 C19.66 34.67 20.32 34.34 21 34 C19.59035779 43.23558687 13.0935412 49.45727348 6 55 C5.05447266 55.82757813 5.05447266 55.82757813 4.08984375 56.671875 C0.13191567 59.18719378 -4.48232189 58.49202435 -9 58 C-11.57004532 57.23593247 -13.60116843 56.24939144 -16 55 C-16.99 54.67 -17.98 54.34 -19 54 C-23.14846231 48.46871692 -22.89901299 41.59008628 -22 35 C-20.91586869 32.54188283 -19.72928927 30.60993914 -18.09375 28.48828125 C-16.80260382 27.03922726 -16.80260382 27.03922726 -17 25 C-16.01 25 -15.02 25 -14 25 C-13.7834375 24.071875 -13.7834375 24.071875 -13.5625 23.125 C-13 21 -13 21 -12 19 C-11.34 19 -10.68 19 -10 19 C-9.79375 18.195625 -9.5875 17.39125 -9.375 16.5625 C-7.59292361 11.94530207 -5.13828288 7.83757417 -2 4 C-1.34 4 -0.68 4 0 4 C0 2.68 0 1.36 0 0 Z " fill="#73F3F5" transform="translate(429,398)"/>
<path d="M0 0 C0.72953384 -0.0033284 1.45906769 -0.0066568 2.21070862 -0.01008606 C3.76343149 -0.01516326 5.31616532 -0.01749414 6.86889648 -0.01733398 C9.21292013 -0.01949349 11.55645208 -0.03756407 13.90039062 -0.05664062 C33.93390244 -0.13157878 33.93390244 -0.13157878 41.81640625 4.16796875 C43.62890625 6.29296875 43.62890625 6.29296875 44.81640625 8.16796875 C41.04372427 7.7830012 38.07291867 7.28933411 34.62646484 5.65869141 C30.40530187 3.7970108 26.48379289 3.66639268 21.91796875 3.62890625 C21.08357269 3.61654938 20.24917664 3.6041925 19.38949585 3.59146118 C17.63310696 3.57198793 15.87661043 3.56067933 14.12011719 3.55712891 C11.45450365 3.54303799 8.79357946 3.47562203 6.12890625 3.40625 C-5.77674047 3.18874873 -5.77674047 3.18874873 -15.70947266 9.26806641 C-17.17551689 11.15755899 -18.21229121 12.98750594 -19.18359375 15.16796875 C-19.51359375 14.50796875 -19.84359375 13.84796875 -20.18359375 13.16796875 C-17.35544905 7.51167936 -13.61351483 4.24981585 -8.18359375 1.16796875 C-6.25151806 -0.76410694 -2.63441104 0.00414555 0 0 Z " fill="#B7B5C2" transform="translate(373.18359375,587.83203125)"/>
<path d="M0 0 C3.28132458 0.41016557 5.40093832 1.21924847 8.3359375 2.82421875 C14.13078983 5.76652532 20.32834239 7.08876158 26.625 8.5625 C27.2668222 8.71341095 27.90864441 8.8643219 28.56991577 9.01980591 C53.35622399 14.81349469 78.55213928 17.13494467 103.953125 14.21826172 C106.51792846 13.94477242 109.04720931 13.90067442 111.625 13.9375 C112.88183594 13.95103516 112.88183594 13.95103516 114.1640625 13.96484375 C114.76992188 13.97644531 115.37578125 13.98804688 116 14 C116 14.33 116 14.66 116 15 C104.08839284 16.80795636 92.41487901 17.36322602 80.375 17.3125 C79.49770233 17.31100952 78.62040466 17.30951904 77.71652222 17.3079834 C64.27474415 17.26698698 51.21039299 16.66645095 38 14 C37.28054199 13.86609863 36.56108398 13.73219727 35.81982422 13.59423828 C23.07290403 11.19053333 11.08205746 6.63255112 -1 2 C-0.67 1.34 -0.34 0.68 0 0 Z " fill="#1175C7" transform="translate(432,765)"/>
<path d="M0 0 C0.99 0.33 1.98 0.66 3 1 C3.10883596 3.37625177 3.18766696 5.74743976 3.25 8.125 C3.28351563 8.79015625 3.31703125 9.4553125 3.3515625 10.140625 C3.45203423 15.26468323 2.24760534 18.08377003 -1 22 C-3.25 22.875 -3.25 22.875 -5 23 C-5 23.66 -5 24.32 -5 25 C-23.81 25 -42.62 25 -62 25 C-62.33 24.01 -62.66 23.02 -63 22 C-61.96762711 22.01665459 -61.96762711 22.01665459 -60.91439819 22.03364563 C-53.7443338 22.14435296 -46.57451261 22.21971533 -39.40380859 22.2746582 C-36.72819073 22.29696178 -34.05391007 22.333886 -31.37841797 22.37719727 C-27.53075234 22.4379198 -23.68399523 22.4662284 -19.8359375 22.48828125 C-18.64197357 22.51408768 -17.44800964 22.5398941 -16.21786499 22.56648254 C-9.2740084 22.68781547 -9.2740084 22.68781547 -3.26025391 19.65698242 C0.33729933 15.42797272 0.11194038 12.20150121 0.0625 6.8125 C0.05347656 5.54019531 0.04445313 4.26789062 0.03515625 2.95703125 C0.02355469 1.98121094 0.01195312 1.00539063 0 0 Z " fill="#72B8D5" transform="translate(670,598)"/>
<path d="M0 0 C0.66 0 1.32 0 2 0 C2.07403712 5.23271569 2.12854783 10.46512801 2.16479492 15.69824219 C2.17990173 17.47922067 2.20038835 19.26016184 2.22631836 21.04101562 C2.26261943 23.59774978 2.27970688 26.1539931 2.29296875 28.7109375 C2.30845261 29.50994476 2.32393646 30.30895203 2.33988953 31.13217163 C2.34057617 33.37646484 2.34057617 33.37646484 2 37 C1.01 37.66 0.02 38.32 -1 39 C-1.54838752 41.78551937 -1.54838752 41.78551937 -1.625 44.9375 C-1.79451907 48.25926649 -1.94517084 50.83551251 -3 54 C-3.01957084 55.93751316 -2.99353325 57.87569837 -2.9375 59.8125 C-2.88861001 64.2940827 -3.15098519 67.83971669 -5 72 C-5.33 72 -5.66 72 -6 72 C-6.28460522 63.15193981 -5.52108471 54.57259947 -4.4041748 45.81585693 C-3.92841318 42.08226191 -3.47627713 38.34580851 -3.0234375 34.609375 C-2.88887146 33.50437149 -2.88887146 33.50437149 -2.75158691 32.37704468 C-1.61335561 22.93853101 -0.77758156 13.47421737 0 4 C-0.66 3.67 -1.32 3.34 -2 3 C-1.34 2.01 -0.68 1.02 0 0 Z " fill="#78F5F5" transform="translate(511,226)"/>
<path d="M0 0 C4.61098501 5.34455081 4.89358421 9.23000841 4.85546875 16.12890625 C4.20905918 21.390801 1.79481233 24.57324208 -1.5625 28.53125 C-2.305 29.541875 -3.0475 30.5525 -3.8125 31.59375 C-4.39 32.233125 -4.9675 32.8725 -5.5625 33.53125 C-6.2225 33.53125 -6.8825 33.53125 -7.5625 33.53125 C-7.81 34.43875 -8.0575 35.34625 -8.3125 36.28125 C-9.60231342 39.63476489 -10.88221042 41.20833236 -13.5625 43.53125 C-13.5625 39.61402145 -12.19475147 38.12966107 -10 34.90625 C-8.91332031 33.30910156 -8.91332031 33.30910156 -7.8046875 31.6796875 C-5.30056944 28.16345203 -2.66945478 24.78745074 0.08984375 21.46875 C2.55919421 17.91861136 2.89968126 13.91949524 2.8515625 9.62890625 C2.06476053 5.64293779 -0.56350299 3.11511138 -3.5625 0.53125 C-8.20967663 -2.2815148 -13.3710674 -2.03887 -18.57421875 -1.109375 C-25.002909 0.75987089 -28.53251548 5.41874304 -32.5625 10.53125 C-33.5625 7.53125 -33.5625 7.53125 -32.875 5.53125 C-31.3676337 3.23431088 -29.88472861 1.98264288 -27.5625 0.53125 C-26.9025 0.53125 -26.2425 0.53125 -25.5625 0.53125 C-25.5625 -0.12875 -25.5625 -0.78875 -25.5625 -1.46875 C-18.00864963 -5.839192 -6.62202474 -6.22470326 0 0 Z " fill="#7CF8F3" transform="translate(464.5625,388.46875)"/>
<path d="M0 0 C5.03993274 4.55625397 8.62338063 9.97180883 12.4375 15.5625 C13.86291415 17.63306527 15.28870256 19.70337293 16.71484375 21.7734375 C17.4301123 22.81467773 18.14538086 23.85591797 18.88232422 24.92871094 C22.05885111 29.53566371 25.2802777 34.11069009 28.5 38.6875 C32.81725614 44.83633752 37.04524439 51.02752449 41.1796875 57.30078125 C44.32260478 61.96120151 47.65626737 66.48240379 51 71 C50.67 71.66 50.34 72.32 50 73 C48.5 71.625 48.5 71.625 47 70 C47 69.34 47 68.68 47 68 C46.38125 67.773125 45.7625 67.54625 45.125 67.3125 C43 66 43 66 42.1875 63.8671875 C40.61856926 60.07904551 38.31633764 57.08471305 35.875 53.8125 C31 47.26549587 31 47.26549587 31 45 C30.01 45 29.02 45 28 45 C27.773125 44.13375 27.54625 43.2675 27.3125 42.375 C26.16794028 39.43184642 25.36813118 38.04238317 23.375 35.75 C21 33 21 33 21 31 C20.34 31 19.68 31 19 31 C18.505 28.525 18.505 28.525 18 26 C17.34 26 16.68 26 16 26 C14.94073305 24.37035854 13.95419998 22.69330452 13 21 C11.65929907 18.90797558 10.30457414 16.82488636 8.9375 14.75 C8.24527344 13.69296875 7.55304687 12.6359375 6.83984375 11.546875 C5.25013498 8.93208626 5.25013498 8.93208626 3 8 C2.375 5.4375 2.375 5.4375 2 3 C1.34 3 0.68 3 0 3 C0 2.01 0 1.02 0 0 Z " fill="#26C0E0" transform="translate(545,275)"/>
<path d="M0 0 C1.24526459 -0.0049926 1.24526459 -0.0049926 2.51568604 -0.01008606 C4.27770431 -0.0151605 6.03973224 -0.01749423 7.80175781 -0.01733398 C10.49039764 -0.01951082 13.17862088 -0.03763405 15.8671875 -0.05664062 C17.5781236 -0.05957642 19.28906164 -0.06155997 21 -0.0625 C21.80226013 -0.06968552 22.60452026 -0.07687103 23.43109131 -0.08427429 C27.66701108 -0.06706266 30.89835577 0.21547177 34.765625 2.16796875 C34.765625 2.82796875 34.765625 3.48796875 34.765625 4.16796875 C34.27408936 4.0078833 33.78255371 3.84779785 33.27612305 3.68286133 C29.72945466 2.95545458 26.20381366 2.96471728 22.59765625 2.9296875 C21.80340744 2.92161575 21.00915863 2.91354401 20.19084167 2.90522766 C18.51063193 2.8914184 16.8303945 2.88068216 15.15014648 2.87280273 C13.44433278 2.86130651 11.73855438 2.84089203 10.03295898 2.8112793 C-4.73768842 2.55078067 -4.73768842 2.55078067 -17.72265625 9.01953125 C-18.32464844 9.60476563 -18.92664063 10.19 -19.546875 10.79296875 C-21.9930026 13.1416615 -24.12704596 14.78236066 -27.234375 16.16796875 C-25.87640331 10.56633552 -21.76754424 7.36412996 -17.234375 4.16796875 C-14.58999736 2.91177558 -12.03730664 2.05310506 -9.234375 1.16796875 C-7.1765411 -0.88986515 -2.83239674 0.00388959 0 0 Z " fill="#BDB1BD" transform="translate(628.234375,587.83203125)"/>
<path d="M0 0 C3.5625 0.3125 3.5625 0.3125 5.5 1.375 C7.19585287 4.46743758 6.99310657 6.86764741 6.5625 10.3125 C4.9375 12.3125 4.9375 12.3125 2.5625 13.3125 C-0.9178645 13.24147215 -2.73235909 12.92665498 -5.375 10.625 C-6.82300221 7.47346578 -6.367426 5.60300737 -5.4375 2.3125 C-3.4375 0.3125 -3.4375 0.3125 0 0 Z " fill="#EBF3F7" transform="translate(617.4375,544.6875)"/>
<path d="M0 0 C2.4375 1.625 2.4375 1.625 4 4 C4 7.53156157 3.67698902 9.27465462 1.25 11.875 C-1.47601911 13.23800956 -2.99435315 13.53947508 -6 13 C-8.5348994 10.72733157 -8.96041822 9.32325124 -9.375 5.9375 C-9 3 -9 3 -7.875 1.125 C-5.07553259 -0.55468045 -3.20195936 -0.45742277 0 0 Z " fill="#EEF4F8" transform="translate(437,545)"/>
<path d="M0 0 C0.66 0.33 1.32 0.66 2 1 C-1.25263991 6.75391011 -4.50962584 12.44442769 -8.375 17.8125 C-16.53978129 29.23954882 -23.18608286 41.74139257 -30 54 C-30.66 54 -31.32 54 -32 54 C-30.3341708 47.83643195 -27.12194714 42.51740344 -24 37 C-23.34 37 -22.68 37 -22 37 C-21.938125 36.01 -21.938125 36.01 -21.875 35 C-20.78257814 31.25455364 -18.83268006 28.94832556 -16.375 25.96484375 C-14.88346115 24.09145615 -14.88346115 24.09145615 -14.5 21.87890625 C-14 20 -14 20 -11 18 C-9.9242779 16.21961076 -9.9242779 16.21961076 -9.0625 14.1875 C-7.41447912 10.70275356 -5.48412188 7.96491966 -3 5 C-1.9731657 3.3497306 -0.96432076 1.68756133 0 0 Z " fill="#DCFEFE" transform="translate(387,440)"/>
<path d="M0 0 C0.66 0 1.32 0 2 0 C1.0687891 6.96594129 -3.92874831 11.288014 -9 15.8125 C-16.86628233 21.54833087 -24.32387146 22.32707162 -34 21 C-37.23299605 19.45890713 -39.55783694 17.59690066 -42 15 C-42.66 14.34 -43.32 13.68 -44 13 C-43.67 12.01 -43.34 11.02 -43 10 C-42.67 10.99 -42.34 11.98 -42 13 C-40.20067421 14.06716704 -40.20067421 14.06716704 -38 15 C-37.154375 15.515625 -36.30875 16.03125 -35.4375 16.5625 C-30.78849214 19.30422258 -26.2775541 19.80896815 -21 19 C-13.78842938 16.35849948 -8.4624036 13.24736504 -4 7 C-3.34 7 -2.68 7 -2 7 C-1.855625 6.401875 -1.71125 5.80375 -1.5625 5.1875 C-1.1127561 3.43849596 -0.57107659 1.71322977 0 0 Z " fill="#DDFEFE" transform="translate(493,345)"/>
<path d="M0 0 C3.2364725 3.03212107 5.68041583 6.24638874 8.16015625 9.91796875 C8.54700592 10.48849472 8.93385559 11.05902069 9.33242798 11.64683533 C10.58050726 13.49058527 11.82183856 15.3387521 13.0625 17.1875 C13.91693156 18.45501111 14.77150567 19.72242612 15.6262207 20.98974609 C20.35269246 28.00841898 25.05884994 35.04136656 29.6875 42.125 C30.13810791 42.80973389 30.58871582 43.49446777 31.05297852 44.19995117 C34 48.76006662 34 48.76006662 34 51 C33.01 51 32.02 51 31 51 C30.87625 50.2265625 30.87625 50.2265625 30.75 49.4375 C29.6660882 45.91478666 27.95092643 43.13330608 26 40 C25.34 39.67 24.68 39.34 24 39 C23.08952497 37.57614185 22.24291656 36.11081324 21.4375 34.625 C21.00308594 33.83351563 20.56867187 33.04203125 20.12109375 32.2265625 C19 30 19 30 18 27 C17.01 26.67 16.02 26.34 15 26 C14.2848974 24.35353394 13.6263839 22.68222039 13 21 C11.88390086 19.19686814 10.71522249 17.42537114 9.5 15.6875 C8.8915625 14.80449219 8.283125 13.92148437 7.65625 13.01171875 C7.1096875 12.34785156 6.563125 11.68398438 6 11 C5.34 11 4.68 11 4 11 C3.34 8.36 2.68 5.72 2 3 C1.34 3 0.68 3 0 3 C0 2.01 0 1.02 0 0 Z " fill="#23A9D7" transform="translate(653,433)"/>
<path d="M0 0 C1.82144531 0.73476563 1.82144531 0.73476563 3.6796875 1.484375 C9.8045247 3.52199207 15.7296783 3.36641086 22.125 3.25 C23.83623047 3.24226562 23.83623047 3.24226562 25.58203125 3.234375 C32.41149782 3.1715364 32.41149782 3.1715364 39.1796875 2.359375 C40.11039063 2.24078125 41.04109375 2.1221875 42 2 C42.66 2.66 43.32 3.32 44 4 C39.85826751 6.00811272 36.56008209 6.08603928 32 6 C31.01 6.495 31.01 6.495 30 7 C27.55071345 7.09855117 25.13618624 7.13900583 22.6875 7.125 C21.37136719 7.12757813 20.05523437 7.13015625 18.69921875 7.1328125 C13.94820356 6.96223751 9.77182923 6.0361749 5.25 4.625 C4.47140625 4.39039063 3.6928125 4.15578125 2.890625 3.9140625 C2.26671875 3.61242187 1.6428125 3.31078125 1 3 C0.67 2.01 0.34 1.02 0 0 Z " fill="#35C3EA" transform="translate(489,616)"/>
<path d="M0 0 C0.99 0.495 0.99 0.495 2 1 C2.21311443 6.32786071 2.39320332 11.09963129 0 16 C-3.62492094 19.50341814 -5.875217 20.49781946 -10.8918457 20.45410156 C-12.05267166 20.45379944 -13.21349762 20.45349731 -14.40950012 20.45318604 C-15.65237289 20.43254089 -16.89524567 20.41189575 -18.17578125 20.390625 C-19.45607712 20.38496521 -20.73637299 20.37930542 -22.0554657 20.37347412 C-25.44727213 20.35825452 -28.83838548 20.31900634 -32.22991943 20.2746582 C-35.69550197 20.23362496 -39.1611973 20.21544605 -42.62695312 20.1953125 C-49.41826836 20.15122837 -56.20907136 20.08430178 -63 20 C-62.67 19.34 -62.34 18.68 -62 18 C-61.02733437 18.00999275 -61.02733437 18.00999275 -60.03501892 18.02018738 C-53.27022268 18.08669141 -46.50551973 18.13186326 -39.74047852 18.16479492 C-37.21765367 18.17985705 -34.6948549 18.20031077 -32.17211914 18.22631836 C-28.54046176 18.26281383 -24.90915142 18.2797526 -21.27734375 18.29296875 C-20.15416245 18.30845261 -19.03098114 18.32393646 -17.87376404 18.33988953 C-11.82401809 18.34118207 -7.28094304 18.0792178 -2 15 C0.58255567 10.28402878 0.20964902 5.24122545 0 0 Z " fill="#5CC7E4" transform="translate(424,603)"/>
<path d="M0 0 C5.90819071 -0.04945048 11.81626084 -0.08574364 17.72460938 -0.10986328 C19.73439635 -0.1199187 21.7441687 -0.13356485 23.75390625 -0.15087891 C26.64326588 -0.17514724 29.53243202 -0.18648771 32.421875 -0.1953125 C33.31992859 -0.20563507 34.21798218 -0.21595764 35.14324951 -0.22659302 C35.98381897 -0.22674408 36.82438843 -0.22689514 37.69042969 -0.22705078 C38.42767273 -0.231492 39.16491577 -0.23593323 39.92449951 -0.24050903 C42.30519726 0.03536626 43.93016431 0.82098568 46 2 C46 2.66 46 3.32 46 4 C46.99 4 47.98 4 49 4 C49.495 6.475 49.495 6.475 50 9 C48.2925002 7.71937515 46.62626404 6.38232443 45 5 C45 4.34 45 3.68 45 3 C40.47427035 1.87532914 36.00991271 1.82181804 31.375 1.796875 C30.5504834 1.79117493 29.7259668 1.78547485 28.87646484 1.77960205 C27.13835929 1.77018443 25.40023614 1.76363099 23.66210938 1.75976562 C21.008799 1.75003228 18.35625479 1.71896781 15.703125 1.6875 C14.01042124 1.68097173 12.31771198 1.67572057 10.625 1.671875 C9.83528809 1.6595282 9.04557617 1.6471814 8.23193359 1.63446045 C3.59683302 1.65315037 0.73977364 2.24087032 -3 5 C-4.21614728 5.57029752 -5.44423767 6.11651967 -6.6875 6.625 C-8.47902663 7.36865256 -10.26504483 8.13252241 -12 9 C-12 8.01 -12 7.02 -12 6 C-10.56570999 5.32645501 -9.12742943 4.66140299 -7.6875 4 C-6.48673828 3.443125 -6.48673828 3.443125 -5.26171875 2.875 C-3 2 -3 2 0 2 C0 1.34 0 0.68 0 0 Z " fill="#57CCE9" transform="translate(618,587)"/>
<path d="M0 0 C1.19201973 3.5760592 0.72074853 4.60860409 -0.44140625 8.12109375 C-0.77487061 9.13349121 -1.10833496 10.14588867 -1.4519043 11.18896484 C-1.81840088 12.26098145 -2.18489746 13.33299805 -2.5625 14.4375 C-2.93093018 15.52756348 -3.29936035 16.61762695 -3.67895508 17.74072266 C-6.25501096 25.20798853 -9.15753047 32.09437871 -13 39 C-13.96648494 40.91256915 -14.92518983 42.82909539 -15.875 44.75 C-16.58333333 46.16666667 -17.29166667 47.58333333 -18 49 C-18.33 49 -18.66 49 -19 49 C-19.34986966 44.8015641 -18.60104849 43.22530013 -16 40 C-15.29485154 37.85266073 -15.29485154 37.85266073 -15 36 C-14.34 36 -13.68 36 -13 36 C-12.9175 35.360625 -12.835 34.72125 -12.75 34.0625 C-11.54765437 29.15292201 -9.38780398 24.54870464 -6.97265625 20.11328125 C-5.71966514 17.39091904 -5.07146141 14.662475 -4.375 11.75 C-4.11460937 10.67234375 -3.85421875 9.5946875 -3.5859375 8.484375 C-3.39257812 7.66453125 -3.19921875 6.8446875 -3 6 C-2.34 6 -1.68 6 -1 6 C-0.67 4.02 -0.34 2.04 0 0 Z " fill="#0F7BD0" transform="translate(712,633)"/>
<path d="M0 0 C4.24232126 2.77725536 8.32701422 5.69152185 12.375 8.75 C12.92027344 9.16121094 13.46554687 9.57242188 14.02734375 9.99609375 C15.35268356 10.9959115 16.67650492 11.99774159 18 13 C16 14 16 14 14.27587891 13.51855469 C13.59960449 13.23915039 12.92333008 12.95974609 12.2265625 12.671875 C11.4840625 12.36636719 10.7415625 12.06085937 9.9765625 11.74609375 C9.20054687 11.41738281 8.42453125 11.08867188 7.625 10.75 C6.85671875 10.43675781 6.0884375 10.12351562 5.296875 9.80078125 C1.50982244 8.22175068 -1.86443922 6.71636816 -5 4 C-2.525 4.495 -2.525 4.495 0 5 C0 3.35 0 1.7 0 0 Z " fill="#27A5D9" transform="translate(413,752)"/>
<path d="M0 0 C2.70299993 2.70299993 2.39395355 4.28459509 2.5 8.0625 C2.40770005 15.02345422 0.41713743 18.79254142 -4 24 C-4.7425 25.010625 -5.485 26.02125 -6.25 27.0625 C-6.8275 27.701875 -7.405 28.34125 -8 29 C-8.66 29 -9.32 29 -10 29 C-10.2475 29.9075 -10.495 30.815 -10.75 31.75 C-12.03981342 35.10351489 -13.31971042 36.67708236 -16 39 C-16 35.08277145 -14.63225147 33.59841107 -12.4375 30.375 C-11.35082031 28.77785156 -11.35082031 28.77785156 -10.2421875 27.1484375 C-7.73806944 23.63220203 -5.10695478 20.25620074 -2.34765625 16.9375 C0.24476274 13.21042806 0.11539126 9.69286623 0.0625 5.25 C0.05347656 4.26515625 0.04445313 3.2803125 0.03515625 2.265625 C0.02355469 1.51796875 0.01195312 0.7703125 0 0 Z " fill="#6CF5F5" transform="translate(467,393)"/>
<path d="M0 0 C0.33 0 0.66 0 1 0 C1.01458252 0.84892822 1.02916504 1.69785645 1.04418945 2.57250977 C1.38150497 20.24045274 2.2193926 37.51190317 5 55 C4.34 55 3.68 55 3 55 C2.87939209 54.07719238 2.87939209 54.07719238 2.75634766 53.13574219 C2.38663896 50.33945757 2.0059393 47.54477586 1.625 44.75 C1.49867188 43.78191406 1.37234375 42.81382812 1.2421875 41.81640625 C1.11328125 40.88183594 0.984375 39.94726562 0.8515625 38.984375 C0.73635254 38.12553711 0.62114258 37.26669922 0.50244141 36.38183594 C0.12565347 33.98706802 0.12565347 33.98706802 -1.11572266 32.06347656 C-2.37522618 29.12440318 -1.64010221 27.09217117 -1 24 C-0.86166625 22.05674805 -0.75686009 20.11085381 -0.68359375 18.1640625 C-0.64169922 17.10058594 -0.59980469 16.03710938 -0.55664062 14.94140625 C-0.51732422 13.84699219 -0.47800781 12.75257813 -0.4375 11.625 C-0.39431641 10.50738281 -0.35113281 9.38976562 -0.30664062 8.23828125 C-0.20102589 5.49229801 -0.0989203 2.74623119 0 0 Z " fill="#A1F8FE" transform="translate(330,576)"/>
<path d="M0 0 C1.77335484 4.15932318 0.06064467 7.78237622 -1.3125 11.8125 C-1.76772781 13.19374677 -2.22216142 14.57525556 -2.67578125 15.95703125 C-2.8989502 16.63403076 -3.12211914 17.31103027 -3.35205078 18.00854492 C-4.94038688 22.89025462 -6.20105938 27.42819483 -6.5 32.5625 C-6.81028093 36.65820824 -7.44363657 40.1609702 -9 44 C-9.33 44 -9.66 44 -10 44 C-10.2780432 37.41964417 -9.27307738 31.63987168 -7.75 25.25 C-7.52473633 24.28223633 -7.29947266 23.31447266 -7.06738281 22.31738281 C-3.3556262 6.7112524 -3.3556262 6.7112524 0 0 Z " fill="#5EDFEF" transform="translate(342,524)"/>
<path d="M0 0 C4.26709318 3.92880111 7.24650032 8.15810566 10.3125 13.0625 C11.27258623 14.57606115 12.23353029 16.08907848 13.1953125 17.6015625 C13.66614258 18.34438477 14.13697266 19.08720703 14.62207031 19.85253906 C17.20909802 23.88434199 19.92594054 27.82797349 22.63671875 31.77734375 C24 34 24 34 24 36 C23.34 36 22.68 36 22 36 C20.7734375 34.234375 20.7734375 34.234375 19.375 31.75 C16.33431322 26.4814833 12.98651787 21.47853534 9.5390625 16.46875 C8 14 8 14 8 12 C7.34 12 6.68 12 6 12 C5.7525 11.4225 5.505 10.845 5.25 10.25 C4.07618973 7.86885658 4.07618973 7.86885658 1.875 6 C0 4 0 4 0 0 Z " fill="#23B2D9" transform="translate(623,388)"/>
<path d="M0 0 C0.99 0.33 1.98 0.66 3 1 C-28.42857143 19 -28.42857143 19 -35 19 C-35 18.34 -35 17.68 -35 17 C-34.154375 16.68546875 -33.30875 16.3709375 -32.4375 16.046875 C-26.0945358 13.6538476 -20.01577978 11.11929322 -14 8 C-13.01 7.67 -12.02 7.34 -11 7 C-11 6.34 -11 5.68 -11 5 C-10.113125 4.731875 -9.22625 4.46375 -8.3125 4.1875 C-4.9988194 3.1333932 -4.9988194 3.1333932 -2.3125 1.3125 C-1.549375 0.879375 -0.78625 0.44625 0 0 Z " fill="#1178CC" transform="translate(627,748)"/>
<path d="M0 0 C0.66 0.33 1.32 0.66 2 1 C1.071875 1.598125 0.14375 2.19625 -0.8125 2.8125 C-5.56766702 6.03168022 -5.56766702 6.03168022 -8 11 C-8.77681756 17.08670977 -8.80583936 21.67274696 -5 26.6875 C-4.02495646 27.81376557 -3.03319469 28.92683051 -2 30 C-3.65 29.67 -5.3 29.34 -7 29 C-7 28.01 -7 27.02 -7 26 C-8.32 25.34 -9.64 24.68 -11 24 C-11.37499733 15.41672786 -11.42128147 9.84894165 -5.5 3.1875 C-3 1 -3 1 0 0 Z " fill="#98BACD" transform="translate(362,590)"/>
<path d="M0 0 C0.66 0 1.32 0 2 0 C4.5667541 7.04329548 5.70884099 13.48901178 5 21 C4.67 21.33 4.34 21.66 4 22 C3.63239269 24.32817964 3.29758419 26.6618385 3 29 C2.34 29 1.68 29 1 29 C1.00523682 28.26362305 1.01047363 27.52724609 1.01586914 26.76855469 C1.03666867 23.42904515 1.04966968 20.08954926 1.0625 16.75 C1.07087891 15.59113281 1.07925781 14.43226563 1.08789062 13.23828125 C1.09111328 12.12324219 1.09433594 11.00820313 1.09765625 9.859375 C1.10289307 8.83295898 1.10812988 7.80654297 1.11352539 6.74902344 C1.01336951 4.32374344 0.69923078 2.31302639 0 0 Z " fill="#3CC5E7" transform="translate(646,519)"/>
<path d="M0 0 C0.66 0 1.32 0 2 0 C0.34818229 4.75129589 -2.20157166 8.77551556 -4.875 13 C-5.30941406 13.69867188 -5.74382812 14.39734375 -6.19140625 15.1171875 C-8.5842069 18.9255489 -10.97789984 22.65083272 -14 26 C-14.66 26 -15.32 26 -16 26 C-14.87548273 23.0280615 -13.77706209 20.66559313 -12 18 C-11.34 18 -10.68 18 -10 18 C-9.7525 17.31550781 -9.505 16.63101562 -9.25 15.92578125 C-7.78290648 12.49186549 -5.95200695 9.3595113 -4 6.1875 C-3.46632813 5.2912793 -3.46632813 5.2912793 -2.921875 4.37695312 C-2.00555558 2.88109586 -1.00864753 1.43522138 0 0 Z " fill="#DDFEFE" transform="translate(417,394)"/>
<path d="M0 0 C0.64582031 0.2165625 1.29164063 0.433125 1.95703125 0.65625 C11.65985872 3.52329615 20.99163238 3.2826631 31 3 C29.68 4.32 28.36 5.64 27 7 C27 6.34 27 5.68 27 5 C26.01 5.495 26.01 5.495 25 6 C17.01260976 6.54507125 10.27656489 6.43234193 3 3 C2.01 2.67 1.02 2.34 0 2 C0 1.34 0 0.68 0 0 Z " fill="#43D5F4" transform="translate(400,573)"/>
<path d="M0 0 C-0.92039062 0.06316406 -1.84078125 0.12632812 -2.7890625 0.19140625 C-12.98936595 1.17819732 -20.04514806 4.06493657 -29 9 C-29.99 9.33 -30.98 9.66 -32 10 C-32 9.34 -32 8.68 -32 8 C-29.91796875 6.4921875 -29.91796875 6.4921875 -27.1875 4.875 C-26.29417969 4.33617187 -25.40085937 3.79734375 -24.48046875 3.2421875 C-22 2 -22 2 -19 2 C-19 1.34 -19 0.68 -19 0 C-17.35878976 -0.23934316 -15.71723376 -0.47650224 -14.07421875 -0.703125 C-12.67814807 -0.90293926 -11.28472331 -1.12208804 -9.89453125 -1.359375 C-5.80622606 -2.00368576 -3.56383332 -2.06244012 0 0 Z " fill="#5CEAF8" transform="translate(424,489)"/>
<path d="M0 0 C0.66 0 1.32 0 2 0 C0.67202486 3.67146069 -0.96039118 6.5940527 -3.25 9.75 C-6.2204858 13.88015353 -9.02211879 18.08160182 -11.73828125 22.3828125 C-12.36283203 23.18332031 -12.36283203 23.18332031 -13 24 C-13.66 24 -14.32 24 -15 24 C-13.67202486 20.32853931 -12.03960882 17.4059473 -9.75 14.25 C-6.7795142 10.11984647 -3.97788121 5.91839818 -1.26171875 1.6171875 C-0.84535156 1.08351563 -0.42898438 0.54984375 0 0 Z " fill="#DEFEFE" transform="translate(444,354)"/>
<path d="M0 0 C0.66 0 1.32 0 2 0 C1.56765599 5.22834612 -1.23424038 8.47795314 -4.3125 12.5 C-4.79912109 13.15097656 -5.28574219 13.80195313 -5.78710938 14.47265625 C-8.46024436 18.03443772 -11.19760428 21.53860861 -14 25 C-14 23.68 -14 22.36 -14 21 C-13.34 21 -12.68 21 -12 21 C-11.34 19.02 -10.68 17.04 -10 15 C-9.34 15 -8.68 15 -8 15 C-8 14.01 -8 13.02 -8 12 C-7.34 12 -6.68 12 -6 12 C-5.34 10.35 -4.68 8.7 -4 7 C-3.34 7 -2.68 7 -2 7 C-1.34 4.69 -0.68 2.38 0 0 Z " fill="#CFFEFE" transform="translate(465,404)"/>
<path d="M0 0 C4.28879579 3.78913026 7.14703458 8.49904816 10.25 13.25 C10.80429687 14.09046875 11.35859375 14.9309375 11.9296875 15.796875 C13.29069425 17.86185075 14.64729288 19.92958185 16 22 C15.67 22.66 15.34 23.32 15 24 C11.16897345 20.29667433 8.34864144 16.2681697 5.625 11.6875 C4.42609087 9.70468874 3.14126603 7.77323719 1.8125 5.875 C0 3 0 3 0 0 Z " fill="#23B9DD" transform="translate(601,355)"/>
<path d="M0 0 C0.99 0.33 1.98 0.66 3 1 C3.92017937 14.39372197 3.92017937 14.39372197 1.6640625 18.33203125 C0 19.9375 0 19.9375 -3 22 C-3.66 21.67 -4.32 21.34 -5 21 C-4.360625 20.401875 -3.72125 19.80375 -3.0625 19.1875 C0.5437181 15.36272323 0.10876207 11.85506526 0.0625 6.8125 C0.05347656 5.54019531 0.04445313 4.26789062 0.03515625 2.95703125 C0.02355469 1.98121094 0.01195312 1.00539063 0 0 Z " fill="#80B1CD" transform="translate(670,598)"/>
<path d="M0 0 C0.33 0.66 0.66 1.32 1 2 C0.06263507 3.70734327 -0.88447245 5.41039268 -1.890625 7.078125 C-3.53840854 9.93273592 -4.72200766 12.96476818 -6 16 C-7.29987802 18.68483895 -8.64724072 21.34112831 -10 24 C-10.66 24 -11.32 24 -12 24 C-12 24.99 -12 25.98 -12 27 C-12.66 26.67 -13.32 26.34 -14 26 C-9.65940705 17.1205129 -5.30345069 8.35695261 0 0 Z " fill="#6DEAF2" transform="translate(365,478)"/>
<path d="M0 0 C0.88945312 0.00644531 1.77890625 0.01289062 2.6953125 0.01953125 C3.61570312 0.03628906 4.53609375 0.05304687 5.484375 0.0703125 C6.42023438 0.07933594 7.35609375 0.08835937 8.3203125 0.09765625 C10.62526157 0.12117614 12.9296866 0.15404397 15.234375 0.1953125 C15.234375 0.5253125 15.234375 0.8553125 15.234375 1.1953125 C13.96722656 1.18628906 12.70007813 1.17726563 11.39453125 1.16796875 C-0.94243535 1.14868121 -0.94243535 1.14868121 -11.26953125 7.30859375 C-12.7622767 9.19108997 -13.79330421 11.00396266 -14.765625 13.1953125 C-15.095625 12.5353125 -15.425625 11.8753125 -15.765625 11.1953125 C-12.35934444 4.38275139 -7.81394458 -0.10017878 0 0 Z " fill="#E5A0A5" transform="translate(368.765625,589.8046875)"/>
<path d="M0 0 C0.6875 1.6875 0.6875 1.6875 1 4 C-0.99065474 7.92892382 -3.54264192 10.75879722 -6.6875 13.8125 C-7.49574219 14.60269531 -8.30398438 15.39289062 -9.13671875 16.20703125 C-9.75160156 16.79871094 -10.36648438 17.39039063 -11 18 C-11.99 17.34 -12.98 16.68 -14 16 C-13.32453125 15.43152344 -12.6490625 14.86304688 -11.953125 14.27734375 C-6.85572761 9.86500121 -2.86999536 6.13135372 0 0 Z " fill="#45CEEE" transform="translate(459,553)"/>
<path d="M0 0 C2.30791795 3.46187692 3.59574221 7.05493578 5 10.9375 C5.51874295 12.36404312 6.0395178 13.78984931 6.5625 15.21484375 C6.80613281 15.87983887 7.04976563 16.54483398 7.30078125 17.22998047 C8.01054732 19.12887263 8.01054732 19.12887263 9.25 21.31640625 C10 23 10 23 9 26 C5.42988974 22.267612 4.89086558 17.9050011 4 13 C3.34 13 2.68 13 2 13 C0.54815522 8.46298506 -0.23509196 4.81938524 0 0 Z " fill="#65DBFA" transform="translate(339,647)"/>
<path d="M0 0 C0.66 0.33 1.32 0.66 2 1 C0.39801112 2.46072532 -1.20667116 3.91849716 -2.8125 5.375 C-3.70582031 6.18710937 -4.59914063 6.99921875 -5.51953125 7.8359375 C-10.29241877 12 -10.29241877 12 -14 12 C-14.33 12.99 -14.66 13.98 -15 15 C-16.32 14.67 -17.64 14.34 -19 14 C-18.13117187 13.40832031 -17.26234375 12.81664062 -16.3671875 12.20703125 C-15.20301726 11.40901132 -14.03896084 10.61082532 -12.875 9.8125 C-12.30523438 9.42513672 -11.73546875 9.03777344 -11.1484375 8.63867188 C-7.24264023 5.95343625 -3.60178783 3.08177287 0 0 Z " fill="#014383" transform="translate(646,736)"/>
<path d="M0 0 C0.33 0.66 0.66 1.32 1 2 C1.66 2.33 2.32 2.66 3 3 C2.95875 4.299375 2.9175 5.59875 2.875 6.9375 C2.85493751 11.17737298 3.52504309 14.88397814 4.66015625 18.95703125 C5.04668366 21.28063854 4.62508042 22.75468771 4 25 C3.32184046 22.33580182 2.65734223 19.66934242 2 17 C1.80921875 16.25621094 1.6184375 15.51242187 1.421875 14.74609375 C0.19252201 9.69696542 -0.18894522 5.19599358 0 0 Z " fill="#31C2F1" transform="translate(333,614)"/>
<path d="M0 0 C0.66 0 1.32 0 2 0 C0.5199653 4.16259759 -1.5446929 7.58509308 -4 11.25 C-5.051875 12.83554687 -5.051875 12.83554687 -6.125 14.453125 C-8 17 -8 17 -10 18 C-9.32902328 13.80639551 -7.1441606 10.59665648 -5 7 C-4.34 7 -3.68 7 -3 7 C-2.814375 6.1028125 -2.814375 6.1028125 -2.625 5.1875 C-2 3 -2 3 0 0 Z " fill="#DFFEFE" transform="translate(399,421)"/>
<path d="M0 0 C0.99 0.495 0.99 0.495 2 1 C2 1.66 2 2.32 2 3 C2.66 3.33 3.32 3.66 4 4 C5.31204155 6.68865604 6.20690516 9.55088687 7.1875 12.375 C7.47302734 13.15617188 7.75855469 13.93734375 8.05273438 14.7421875 C8.31763672 15.495 8.58253906 16.2478125 8.85546875 17.0234375 C9.09934326 17.71356934 9.34321777 18.40370117 9.59448242 19.11474609 C10 21 10 21 9 24 C7.86684609 21.5034256 6.74343421 19.00316228 5.625 16.5 C5.30789063 15.80390625 4.99078125 15.1078125 4.6640625 14.390625 C2.55790626 9.65177346 1.12893429 5.06309922 0 0 Z " fill="#7FDAF3" transform="translate(315,645)"/>
<path d="M0 0 C3.33855101 0.41731888 5.92690737 1.39462662 8.875 2.9375 C12.52665833 4.84663696 16.00768011 6.00192003 20 7 C16.80042565 8.05711427 15.03354912 7.95184778 11.890625 6.78515625 C11.13652344 6.51123047 10.38242187 6.23730469 9.60546875 5.95507812 C8.82816406 5.66052734 8.05085938 5.36597656 7.25 5.0625 C6.45722656 4.77181641 5.66445313 4.48113281 4.84765625 4.18164062 C2.89487371 3.46405186 0.94694059 2.73329094 -1 2 C-0.67 1.34 -0.34 0.68 0 0 Z " fill="#117BCB" transform="translate(432,765)"/>
<path d="M0 0 C0.33 0 0.66 0 1 0 C1.08152344 2.54232342 1.14073716 5.08199202 1.1875 7.625 C1.22520508 8.69427734 1.22520508 8.69427734 1.26367188 9.78515625 C1.33024446 14.62276416 0.55559453 17.74738338 -2 22 C-2.93979382 18.96143341 -2.99875808 16.79304528 -2.44140625 13.671875 C-2.30283203 12.87265625 -2.16425781 12.0734375 -2.02148438 11.25 C-1.87001953 10.425 -1.71855469 9.6 -1.5625 8.75 C-1.41490234 7.90953125 -1.26730469 7.0690625 -1.11523438 6.203125 C-0.7508064 4.13411456 -0.37637459 2.06687061 0 0 Z " fill="#024988" transform="translate(716,612)"/>
<path d="M0 0 C-13.44874715 5.55580866 -13.44874715 5.55580866 -21 6 C-20 4 -20 4 -17.671875 3.21875 C-16.70765625 2.9815625 -15.7434375 2.744375 -14.75 2.5 C-11.82590253 1.77292712 -9.14859999 1.0658467 -6.390625 -0.15625 C-3.7408753 -1.09145578 -2.59241568 -0.96015396 0 0 Z " fill="#107ACE" transform="translate(589,769)"/>
<path d="M0 0 C0.33 0.66 0.66 1.32 1 2 C-2.69158511 6.02718375 -6.21180156 8.38004236 -11 11 C-11.66 11.66 -12.32 12.32 -13 13 C-13 12.34 -13 11.68 -13 11 C-13.66 10.67 -14.32 10.34 -15 10 C-14.16855469 9.52949219 -13.33710937 9.05898438 -12.48046875 8.57421875 C-11.39378906 7.95160156 -10.30710937 7.32898438 -9.1875 6.6875 C-8.10855469 6.07261719 -7.02960937 5.45773437 -5.91796875 4.82421875 C-3.55359169 3.34608744 -1.81952282 2.07489444 0 0 Z " fill="#3AC7EE" transform="translate(548,607)"/>
<path d="M0 0 C0.33 0.66 0.66 1.32 1 2 C-1.64308033 6.20935016 -4.36909826 9.55529835 -8 13 C-8.598125 13.598125 -9.19625 14.19625 -9.8125 14.8125 C-10.204375 15.204375 -10.59625 15.59625 -11 16 C-11.66 15.67 -12.32 15.34 -13 15 C-12.34644531 14.38125 -12.34644531 14.38125 -11.6796875 13.75 C-7.27883681 9.48250842 -3.54395804 4.99788955 0 0 Z " fill="#014683" transform="translate(677,705)"/>
<path d="M0 0 C0.99 0 1.98 0 3 0 C1.43632643 3.52238047 -0.69495889 6.27123994 -3.125 9.25 C-3.84945312 10.14203125 -4.57390625 11.0340625 -5.3203125 11.953125 C-5.87460937 12.62859375 -6.42890625 13.3040625 -7 14 C-7.33 13.01 -7.66 12.02 -8 11 C-7.01 10.67 -6.02 10.34 -5 10 C-5 9.01 -5 8.02 -5 7 C-4.34 7 -3.68 7 -3 7 C-2.690625 6.21625 -2.38125 5.4325 -2.0625 4.625 C-1 2 -1 2 0 0 Z " fill="#107BCD" transform="translate(680,697)"/>
<path d="M0 0 C1.74216797 0.15275391 1.74216797 0.15275391 3.51953125 0.30859375 C4.39996094 0.39238281 5.28039062 0.47617187 6.1875 0.5625 C6.1875 0.8925 6.1875 1.2225 6.1875 1.5625 C-1.0725 2.2225 -8.3325 2.8825 -15.8125 3.5625 C-10.22786258 -0.62597806 -6.8233386 -0.62030351 0 0 Z " fill="#CFF9FB" transform="translate(421.8125,820.4375)"/>
<path d="M0 0 C0.66 0 1.32 0 2 0 C0.61219205 3.89006773 -1.2152227 6.96558708 -3.625 10.3125 C-4.25664063 11.19550781 -4.88828125 12.07851563 -5.5390625 12.98828125 C-6.02117188 13.65214844 -6.50328125 14.31601562 -7 15 C-7.33 14.34 -7.66 13.68 -8 13 C-7.0625 10.375 -7.0625 10.375 -6 8 C-5.34 8 -4.68 8 -4 8 C-3.34 6.02 -2.68 4.04 -2 2 C-1.34 2 -0.68 2 0 2 C0 1.34 0 0.68 0 0 Z " fill="#117BCC" transform="translate(691,682)"/>
<path d="M0 0 C0.33 0.99 0.66 1.98 1 3 C-0.40851947 4.32123942 -1.82715741 5.63169769 -3.25 6.9375 C-4.03890625 7.66839844 -4.8278125 8.39929688 -5.640625 9.15234375 C-7.89044414 10.91420543 -9.21628554 11.59776603 -12 12 C-8 8 -4 4 0 0 Z " fill="#3FC2E6" transform="translate(640,559)"/>
<path d="M0 0 C1.875 0.1875 1.875 0.1875 4 1 C5.5225431 3.68257593 6.12235992 5.24544717 5.625 8.3125 C5.41875 8.869375 5.2125 9.42625 5 10 C0 4.5 0 4.5 0 0 Z " fill="#32ADE4" transform="translate(355,684)"/>
<path d="M0 0 C0.33 0 0.66 0 1 0 C0.99097656 0.72445312 0.98195313 1.44890625 0.97265625 2.1953125 C1.04795578 8.02691991 1.04795578 8.02691991 3.625 13.06640625 C5.3579512 14.51635534 7.07960368 15.81166077 9 17 C8.34 17.33 7.68 17.66 7 18 C6.01 17.67 5.02 17.34 4 17 C4 16.01 4 15.02 4 14 C2.68 13.34 1.36 12.68 0 12 C0 8.04 0 4.08 0 0 Z " fill="#6EC0DC" transform="translate(351,602)"/>
<path d="M0 0 C0.66 0 1.32 0 2 0 C0.43006215 5.02380113 -2.60115742 9.0469983 -6 13 C-6.99 13.495 -6.99 13.495 -8 14 C-6.67997942 10.42705968 -5.10478612 7.36046508 -3 4.1875 C-2.484375 3.39730469 -1.96875 2.60710937 -1.4375 1.79296875 C-0.7259375 0.90544922 -0.7259375 0.90544922 0 0 Z " fill="#DFFEFE" transform="translate(427,379)"/>
<path d="M0 0 C1 2 1 2 0.25 4.9375 C-0.91282011 7.78640926 -1.59599272 9.17295447 -4 11 C-4.99 11.33 -5.98 11.66 -7 12 C-5.44298069 7.32894208 -2.91552627 3.91294315 0 0 Z " fill="#BEDEE9" transform="translate(471,285)"/>
<path d="M0 0 C0.66 0.33 1.32 0.66 2 1 C0.58829091 2.29708314 -0.82958196 3.58745978 -2.25 4.875 C-3.03890625 5.59429688 -3.8278125 6.31359375 -4.640625 7.0546875 C-6.72026168 8.76935483 -8.54419267 9.92980873 -11 11 C-11 10.01 -11 9.02 -11 8 C-10.01 8 -9.02 8 -8 8 C-8 7.34 -8 6.68 -8 6 C-7.01 6 -6.02 6 -5 6 C-5 5.34 -5 4.68 -5 4 C-4.34 4 -3.68 4 -3 4 C-2.67 3.01 -2.34 2.02 -2 1 C-1.34 0.67 -0.68 0.34 0 0 Z " fill="#1179CC" transform="translate(655,727)"/>
<path d="M0 0 C0 0.33 0 0.66 0 1 C-1.32064453 1.29003906 -1.32064453 1.29003906 -2.66796875 1.5859375 C-4.41013672 1.97652344 -4.41013672 1.97652344 -6.1875 2.375 C-7.33605469 2.63023437 -8.48460937 2.88546875 -9.66796875 3.1484375 C-12.58807348 3.89472452 -15.23953389 4.80431788 -18 6 C-12.84098594 0.04729147 -7.42787774 -0.25613372 0 0 Z " fill="#D2FEFD" transform="translate(456,386)"/>
<path d="M0 0 C-0.639375 0.309375 -1.27875 0.61875 -1.9375 0.9375 C-3.93610821 1.8345163 -3.93610821 1.8345163 -5 3 C-7.18639453 3.07258946 -9.37500389 3.08373783 -11.5625 3.0625 C-13.35880859 3.04896484 -13.35880859 3.04896484 -15.19140625 3.03515625 C-16.11824219 3.02355469 -17.04507813 3.01195312 -18 3 C-18 2.67 -18 2.34 -18 2 C-16.12612523 1.6603981 -14.25083303 1.32861309 -12.375 1 C-11.33085938 0.814375 -10.28671875 0.62875 -9.2109375 0.4375 C-6.09425135 0.01284203 -3.14069188 -0.07545206 0 0 Z " fill="#014584" transform="translate(560,778)"/>
<path d="M0 0 C1.38318083 4.43605853 0.48340828 7.69470586 -1 12 C-2.625 15 -2.625 15 -4 17 C-5 15 -5 15 -4.00390625 11.5234375 C-3.53099953 10.13802064 -3.05018356 8.75528453 -2.5625 7.375 C-2.31951172 6.66859375 -2.07652344 5.9621875 -1.82617188 5.234375 C-1.22412795 3.48726713 -0.61291983 1.74332214 0 0 Z " fill="#014581" transform="translate(709,645)"/>
<path d="M0 0 C2 2 2 2 2.16015625 4.09375 C2.12792969 4.8878125 2.09570312 5.681875 2.0625 6.5 C1.8800954 9.88207958 1.8800954 9.88207958 3 13 C2.01 14.485 2.01 14.485 1 16 C-0.25447333 10.95970539 -1.39277298 6.23697313 -1 1 C-0.67 0.67 -0.34 0.34 0 0 Z " fill="#A7E9F7" transform="translate(310,615)"/>
<path d="M0 0 C2.46477712 2.30193899 4.31755197 4.75988654 6.1875 7.5625 C6.71730469 8.34753906 7.24710938 9.13257813 7.79296875 9.94140625 C9 12 9 12 9 14 C8.34 14 7.68 14 7 14 C5.52734375 11.953125 5.52734375 11.953125 3.9375 9.25 C3.41027344 8.36828125 2.88304687 7.4865625 2.33984375 6.578125 C1.17160513 4.3302023 0.46779218 2.47179076 0 0 Z " fill="#20AAD1" transform="translate(638,410)"/>
<path d="M0 0 C0 0.66 0 1.32 0 2 C-1.45804169 2.81302325 -2.91644315 3.62540131 -4.375 4.4375 C-5.59316406 5.11619141 -5.59316406 5.11619141 -6.8359375 5.80859375 C-8.20996622 6.5650536 -9.59709261 7.29854631 -11 8 C-11.66 7.34 -12.32 6.68 -13 6 C-11.21118264 4.99491199 -9.41885304 3.99607264 -7.625 3 C-6.62726562 2.443125 -5.62953125 1.88625 -4.6015625 1.3125 C-2 0 -2 0 0 0 Z " fill="#00427E" transform="translate(627,751)"/>
<path d="M0 0 C0.66 0 1.32 0 2 0 C4.87369037 3.9981779 6.36263205 8.39977575 8 13 C7.34 13.66 6.68 14.32 6 15 C5.18618205 13.06305322 4.37399084 11.12542289 3.5625 9.1875 C3.11003906 8.10855469 2.65757812 7.02960937 2.19140625 5.91796875 C1.39624987 3.9704874 0.66520352 1.99561057 0 0 Z " fill="#024380" transform="translate(699,505)"/>
<path d="M0 0 C4.66283606 3.51582826 7.72210402 6.03648545 9 12 C5.74483572 8.83525695 2.67991207 5.67247209 0 2 C0 1.34 0 0.68 0 0 Z " fill="#4DB4D4" transform="translate(344,700)"/>
<path d="M0 0 C0.66 0 1.32 0 2 0 C0.58832253 5.26170694 -1.74850232 8.72171358 -5 13 C-6 10 -6 10 -4.85546875 7.51953125 C-4.30503906 6.62621094 -3.75460937 5.73289062 -3.1875 4.8125 C-2.37345703 3.46091797 -2.37345703 3.46091797 -1.54296875 2.08203125 C-1.03378906 1.39496094 -0.52460937 0.70789063 0 0 Z " fill="#034878" transform="translate(554,594)"/>
<path d="M0 0 C2.31242092 2.16323247 4.0156396 4.37647804 5.6875 7.0625 C6.12449219 7.75472656 6.56148437 8.44695312 7.01171875 9.16015625 C8 11 8 11 8 13 C7.01 13 6.02 13 5 13 C4.9175 12.484375 4.835 11.96875 4.75 11.4375 C4.03861904 9.12551188 3.16058925 7.44517579 1.9375 5.375 C0 2 0 2 0 0 Z " fill="#209CD9" transform="translate(679,471)"/>
<path d="M0 0 C3.25548753 3.02295271 5.68977058 6.20462309 8 10 C8 10.66 8 11.32 8 12 C7.34 12 6.68 12 6 12 C4.6273318 10.02678947 3.29572383 8.02456848 2 6 C1.34 5.34 0.68 4.68 0 4 C0 2.68 0 1.36 0 0 Z " fill="#2EC7DF" transform="translate(535,260)"/>
<path d="M0 0 C4.95 0.99 9.9 1.98 15 3 C15 3.33 15 3.66 15 4 C12.36 4.33 9.72 4.66 7 5 C6.67 4.01 6.34 3.02 6 2 C4.35 2 2.7 2 1 2 C0.67 1.34 0.34 0.68 0 0 Z " fill="#013E79" transform="translate(455,775)"/>
<path d="M0 0 C0.625 1.875 0.625 1.875 1 4 C0.34 4.66 -0.32 5.32 -1 6 C-1.66 6 -2.32 6 -3 6 C-4.37310707 7.29233607 -5.71034824 8.62437146 -7 10 C-7.66 9.67 -8.32 9.34 -9 9 C-7.88121617 7.82737096 -6.75476949 6.66204862 -5.625 5.5 C-4.68527344 4.52546875 -4.68527344 4.52546875 -3.7265625 3.53125 C-2 2 -2 2 0 2 C0 1.34 0 0.68 0 0 Z " fill="#1ABBFD" transform="translate(690,614)"/>
<path d="M0 0 C0.66 0.33 1.32 0.66 2 1 C-0.53645881 4.10011632 -3.15184135 5.0575938 -7 6 C-9.19140625 5.546875 -9.19140625 5.546875 -11 5 C-9.21289414 4.13633178 -7.4201535 3.28431406 -5.625 2.4375 C-4.62726562 1.96183594 -3.62953125 1.48617187 -2.6015625 0.99609375 C-1.74304688 0.66738281 -0.88453125 0.33867188 0 0 Z " fill="#014382" transform="translate(606,761)"/>
<path d="M0 0 C3.48749314 2.78999451 6.50157221 5.25235831 9 9 C8.67 9.66 8.34 10.32 8 11 C6.66072279 9.54712339 5.32873153 8.08752741 4 6.625 C3.2575 5.81289063 2.515 5.00078125 1.75 4.1640625 C0 2 0 2 0 0 Z " fill="#39B3E8" transform="translate(375,713)"/>
<path d="M0 0 C3.26782914 1.08927638 3.81937333 1.68347929 5.75 4.375 C6.42289063 5.28378906 6.42289063 5.28378906 7.109375 6.2109375 C8 8 8 8 7 11 C5.83051998 9.35616456 4.6644855 7.70987731 3.5 6.0625 C2.8503125 5.14597656 2.200625 4.22945313 1.53125 3.28515625 C0 1 0 1 0 0 Z " fill="#01467A" transform="translate(644,418)"/>
<path d="M0 0 C0.99 0.33 1.98 0.66 3 1 C0.36 3.64 -2.28 6.28 -5 9 C-5.33 8.34 -5.66 7.68 -6 7 C-5.67 6.34 -5.34 5.68 -5 5 C-4.34 5 -3.68 5 -3 5 C-3 4.34 -3 3.68 -3 3 C-2.34 3 -1.68 3 -1 3 C-0.67 2.01 -0.34 1.02 0 0 Z " fill="#0E7BCD" transform="translate(669,712)"/>
<path d="M0 0 C0.268125 0.556875 0.53625 1.11375 0.8125 1.6875 C1.98723915 4.08808046 1.98723915 4.08808046 3.6875 6.5 C5 9 5 9 4.58203125 11.15625 C4.29392578 12.06890625 4.29392578 12.06890625 4 13 C3.13372601 11.40233897 2.28233535 9.79660056 1.4375 8.1875 C0.96183594 7.29417969 0.48617188 6.40085937 -0.00390625 5.48046875 C-1 3 -1 3 0 0 Z " fill="#6AD3EB" transform="translate(326,668)"/>
<path d="M0 0 C0.66 0 1.32 0 2 0 C6 5.29411765 6 5.29411765 6 9 C4.125 8.4375 4.125 8.4375 2 7 C0.75 3.375 0.75 3.375 0 0 Z " fill="#0BA0EC" transform="translate(341,648)"/>
<path d="M0 0 C-1.32 0.99 -2.64 1.98 -4 3 C-4 2.34 -4 1.68 -4 1 C-8.29 1 -12.58 1 -17 1 C-17 0.67 -17 0.34 -17 0 C-14.9174133 -0.19561869 -12.83388144 -0.38119313 -10.75 -0.5625 C-9.58984375 -0.66691406 -8.4296875 -0.77132812 -7.234375 -0.87890625 C-4.48128523 -0.98198087 -2.580018 -0.86213473 0 0 Z " fill="#48CBEF" transform="translate(431,577)"/>
<path d="M0 0 C0.66 1.32 1.32 2.64 2 4 C0.35 5.65 -1.3 7.3 -3 9 C-3.66 8.67 -4.32 8.34 -5 8 C-3.35 5.36 -1.7 2.72 0 0 Z " fill="#174771" transform="translate(334,438)"/>
<path d="M0 0 C0.33 1.32 0.66 2.64 1 4 C0.34 4 -0.32 4 -1 4 C-1.268125 4.969375 -1.53625 5.93875 -1.8125 6.9375 C-2.204375 7.948125 -2.59625 8.95875 -3 10 C-3.99 10.33 -4.98 10.66 -6 11 C-4.54955729 6.89041233 -2.48889248 3.56741255 0 0 Z " fill="#D1FEFE" transform="translate(426,407)"/>
<path d="M0 0 C0.66 0.99 1.32 1.98 2 3 C2.8353125 4.2375 2.8353125 4.2375 3.6875 5.5 C4.120625 6.325 4.55375 7.15 5 8 C4.67 8.99 4.34 9.98 4 11 C2.02 8.03 0.04 5.06 -2 2 C-1.34 1.34 -0.68 0.68 0 0 Z " fill="#014B7B" transform="translate(587,330)"/>
<path d="M0 0 C0.8125 1.625 0.8125 1.625 1 4 C-0.46818136 6.24609835 -2.15852858 8.02378677 -4 10 C-4.66 9.67 -5.32 9.34 -6 9 C-5.071875 7.88625 -5.071875 7.88625 -4.125 6.75 C-2.39562719 4.51198812 -1.13893339 2.56260013 0 0 Z " fill="#3DC3ED" transform="translate(555,596)"/>
<path d="M0 0 C0.99 0 1.98 0 3 0 C1.68775452 3.93673644 0.08089673 6.22719294 -3 9 C-2.30058404 5.85262818 -1.23921302 2.97411124 0 0 Z " fill="#45C8EA" transform="translate(536,583)"/>
<path d="M0 0 C0.66 0.33 1.32 0.66 2 1 C-0.475 5.455 -0.475 5.455 -3 10 C-3.33 10 -3.66 10 -4 10 C-3.67 7.69 -3.34 5.38 -3 3 C-2.34 3 -1.68 3 -1 3 C-0.67 2.01 -0.34 1.02 0 0 Z " fill="#4EDBF1" transform="translate(569,505)"/>
<path d="M0 0 C1.47968023 2.95936046 0.84835797 4.86760134 0 8 C-2.05078125 9.1875 -2.05078125 9.1875 -4 10 C-3.52449439 8.51965236 -3.04448784 7.04074979 -2.5625 5.5625 C-2.29566406 4.73878906 -2.02882813 3.91507813 -1.75390625 3.06640625 C-1 1 -1 1 0 0 Z " fill="#034D8B" transform="translate(703,662)"/>
<path d="M0 0 C2.97 1.65 5.94 3.3 9 5 C5 6 5 6 2.8125 5.3125 C1 4 1 4 0 0 Z " fill="#1ABBFA" transform="translate(375,646)"/>
<path d="M0 0 C0.66 0.33 1.32 0.66 2 1 C-0.71182212 3.60334924 -1.89133813 3.99456691 -5.75 4.1875 C-6.8225 4.125625 -7.895 4.06375 -9 4 C-6.06195683 2.47657021 -3.13439441 1.07229283 0 0 Z " fill="#014480" transform="translate(587,769)"/>
<path d="M0 0 C2.61500768 2.36595933 4.38999603 4.86049226 6 8 C5.67 8.66 5.34 9.32 5 10 C1.32769295 6.92000054 0.43197635 4.7517398 0 0 Z " fill="#2197D3" transform="translate(687,484)"/>
<path d="M0 0 C0.99 0 1.98 0 3 0 C3.99 2.31 4.98 4.62 6 7 C5.01 7.495 5.01 7.495 4 8 C0 2.25 0 2.25 0 0 Z " fill="#014173" transform="translate(628,393)"/>
<path d="M0 0 C1.8125 0.125 1.8125 0.125 4 1 C5.75 4.0625 5.75 4.0625 7 7 C6.01 7 5.02 7 4 7 C2.02 3.535 2.02 3.535 0 0 Z " fill="#024B7B" transform="translate(592,341)"/>
<path d="M0 0 C0.33 0.99 0.66 1.98 1 3 C-0.40445835 5.2636564 -2.1967913 7.0208685 -4 9 C-4.66 8.67 -5.32 8.34 -6 8 C-4.02 5.36 -2.04 2.72 0 0 Z " fill="#14456D" transform="translate(469,242)"/>
<path d="M0 0 C4.8 2.46153846 4.8 2.46153846 5.8125 5.1875 C5.874375 5.785625 5.93625 6.38375 6 7 C3.00675737 5.9024777 2.15389099 5.32317108 0.75 2.375 C0.5025 1.59125 0.255 0.8075 0 0 Z " fill="#249EDC" transform="translate(386,725)"/>
<path d="M0 0 C0.99 0.495 0.99 0.495 2 1 C2 1.66 2 2.32 2 3 C2.66 3.33 3.32 3.66 4 4 C4.33 4.99 4.66 5.98 5 7 C4.01 8.485 4.01 8.485 3 10 C2.01 6.7 1.02 3.4 0 0 Z " fill="#7ECFE4" transform="translate(315,645)"/>
<path d="M0 0 C0.99 0.99 1.98 1.98 3 3 C1.68 4.32 0.36 5.64 -1 7 C-1.66 6.67 -2.32 6.34 -3 6 C-2.01 4.02 -1.02 2.04 0 0 Z " fill="#40CDF0" transform="translate(645,550)"/>
<path d="M0 0 C2.79872437 2.52788007 4.45773019 4.20411134 5 8 C4.34 8 3.68 8 3 8 C2.67 6.68 2.34 5.36 2 4 C1.34 4 0.68 4 0 4 C0 2.68 0 1.36 0 0 Z " fill="#1C98D5" transform="translate(693,496)"/>
<path d="M0 0 C1 3 1 3 0.3125 5.125 C-1 7 -1 7 -5 8 C-3.35 5.36 -1.7 2.72 0 0 Z " fill="#CEE3ED" transform="translate(365,441)"/>
</svg>
