<?xml version="1.0" encoding="UTF-8"?>
<svg version="1.1" xmlns="http://www.w3.org/2000/svg" width="1024" height="1024" viewBox="0 0 1024.000000 1024.000000"
 preserveAspectRatio="xMidYMid meet">
<path d="M0 0 C337.92 0 675.84 0 1024 0 C1024 337.92 1024 675.84 1024 1024 C686.08 1024 348.16 1024 0 1024 C0 686.08 0 348.16 0 0 Z " fill="transparent" transform="translate(0,0)"/>
<path d="M0 0 C2.12677857 0.22853752 4.25424261 0.44331544 6.38323975 0.65002441 C13.7121043 1.36316684 21.00359092 2.22692017 28.2958374 3.2467041 C29.54139404 3.41782715 30.78695068 3.5889502 32.07025146 3.76525879 C115.5291059 15.32160648 115.5291059 15.32160648 139.2958374 45.2467041 C153.63773717 65.17843118 150.89378304 88.11795584 148.0458374 111.0592041 C147.81486608 112.97817037 147.58440371 114.89719796 147.35443115 116.81628418 C145.98587585 128.1343299 144.48105128 139.42593758 142.81195068 150.70373535 C141.37428507 160.47245238 140.13225525 170.26041693 138.9208374 180.0592041 C138.81788361 180.89147522 138.71492981 181.72374634 138.6088562 182.58123779 C138.18015183 186.04770316 137.75147509 189.51417192 137.32313538 192.98068237 C135.37601597 208.70991038 133.34796003 224.42903961 131.33180237 240.14953613 C130.70186459 245.06414492 130.07565265 249.97918346 129.45681763 254.89520264 C127.65927938 269.17343207 125.69525387 283.41431508 123.54321289 297.64266968 C121.37382846 312.05280049 119.64687478 326.50854245 117.99530029 340.98620605 C117.10268436 348.77043751 116.14600573 356.49722054 114.78973389 364.21691895 C113.83150545 370.095127 113.17695663 376.01719602 112.46548462 381.92944336 C110.26737717 400.14903355 107.77901891 418.32281569 105.2333374 436.4967041 C102.94705577 452.83122544 100.73429615 469.15788109 98.9833374 485.5592041 C98.82889068 486.99654273 98.67443139 488.43388001 98.5199585 489.87121582 C98.23960081 492.48577276 97.9596053 495.10036826 97.67962646 497.71496582 C96.21029965 511.23613742 94.64769615 523.63779416 89.2958374 536.2467041 C88.96970459 537.0407666 88.64357178 537.8348291 88.30755615 538.6529541 C87.66201008 540.19492196 86.98483546 541.72365575 86.2958374 543.2467041 C86.91917969 543.22640137 87.54252197 543.20609863 88.18475342 543.18518066 C98.59439258 543.00743963 108.88159214 544.02901166 119.2333374 544.9967041 C120.69040604 545.13108887 120.69040604 545.13108887 122.1769104 545.26818848 C189.85916716 551.5434475 189.85916716 551.5434475 202.9208374 561.1842041 C204.2958374 563.2467041 204.2958374 563.2467041 204.8583374 565.7467041 C204.04870006 569.34509231 202.34390579 570.28239336 199.2958374 572.2467041 C193.93497842 574.85840463 188.43538291 575.37152863 182.53234863 575.37127686 C180.84250854 575.37512138 180.84250854 575.37512138 179.11853027 575.37904358 C177.8966803 575.37694382 176.67483032 575.37484406 175.41595459 575.37268066 C173.42255466 575.37554865 171.42915472 575.37842458 169.43575525 575.38159609 C167.29883012 575.38427085 165.16191296 575.38472093 163.02498627 575.38480377 C158.55006782 575.38595039 154.07523074 575.39883761 149.6003418 575.41436768 C148.46370248 575.41822696 148.46370248 575.41822696 147.30410075 575.4221642 C145.75461572 575.42743081 144.20513075 575.43271629 142.65564585 575.43802023 C132.24696029 575.47299304 121.83837578 575.4996944 111.42962646 575.49719238 C104.39759176 575.49559298 97.3658358 575.51189259 90.3338902 575.54789901 C86.62319438 575.5661901 82.91296283 575.57585262 79.20223236 575.56342316 C58.14642201 575.43590751 58.14642201 575.43590751 37.71899414 580.07891846 C31.18687532 582.30730447 24.96119829 582.39702808 18.13526917 582.40060425 C17.11449317 582.4049865 16.09371718 582.40936876 15.04200858 582.41388381 C11.62246588 582.42723498 8.20294894 582.43344251 4.78338623 582.4395752 C2.33060084 582.44747934 -0.1221834 582.45574849 -2.57496643 582.46435547 C-9.93635652 582.48828655 -17.29774233 582.50350195 -24.65915796 582.51641554 C-26.74180541 582.5201321 -28.82445221 582.52410497 -30.90709901 582.5281682 C-43.86561908 582.55341647 -56.82414033 582.57544961 -69.78267956 582.58789635 C-72.781491 582.59082562 -75.78030241 582.59378733 -78.77911377 582.59680176 C-79.89700079 582.59792083 -79.89700079 582.59792083 -81.03747139 582.59906252 C-93.08439861 582.61169024 -105.13117737 582.64488087 -117.17803534 582.68660359 C-129.57342399 582.72917781 -141.968737 582.75260941 -154.36419851 582.75781691 C-161.31267057 582.76121425 -168.26091094 582.77276874 -175.20931053 582.80591965 C-181.75685811 582.83710834 -188.30407813 582.84225087 -194.85171318 582.83053589 C-197.2416255 582.83031656 -199.63155738 582.83850346 -202.02140427 582.85618973 C-214.88184362 582.94610427 -226.42399711 582.26672408 -238.7500658 578.41759682 C-244.27401473 576.69925786 -249.71708477 576.12301041 -255.48988342 576.11540222 C-257.1486425 576.10938995 -257.1486425 576.10938995 -258.84091187 576.10325623 C-260.03433197 576.10378494 -261.22775208 576.10431366 -262.45733643 576.1048584 C-264.41057652 576.09952499 -266.36381661 576.09418561 -268.31705606 576.08862174 C-270.40619857 576.08344278 -272.49533485 576.08051706 -274.58448219 576.07803917 C-278.95227072 576.07209623 -283.31997918 576.05552519 -287.68772888 576.03669739 C-289.18714996 576.03036098 -290.68657108 576.02403535 -292.18599224 576.01772022 C-292.93662453 576.01455441 -293.68725682 576.0113886 -294.46063554 576.00812685 C-304.61967809 575.96616025 -314.77868165 575.93308143 -324.93780518 575.92077637 C-331.80384368 575.91237492 -338.66968171 575.88981136 -345.53561991 575.8514207 C-349.1621464 575.83173736 -352.78837377 575.81922973 -356.41495705 575.82425499 C-360.46451706 575.82979876 -364.51333575 575.80440642 -368.56280518 575.7767334 C-369.75015259 575.78333481 -370.9375 575.78993622 -372.16082764 575.79673767 C-379.82305067 575.7110067 -387.3510862 574.89964692 -393.43798542 569.79174328 C-394.7041626 568.2467041 -394.7041626 568.2467041 -395.3291626 565.3717041 C-394.7041626 562.2467041 -394.7041626 562.2467041 -392.0166626 559.6217041 C-384.2024402 554.77471128 -375.04413209 553.16779159 -366.09088135 551.78967285 C-365.27006577 551.6620607 -364.44925018 551.53444855 -363.6035614 551.40296936 C-353.85362067 549.92045602 -344.06626121 548.78113337 -334.2666626 547.6842041 C-333.31514313 547.57653717 -332.36362366 547.46887024 -331.38327026 547.35794067 C-292.71328624 542.9983256 -292.71328624 542.9983256 -276.7041626 543.2467041 C-277.09088135 542.36111816 -277.4776001 541.47553223 -277.8760376 540.56311035 C-278.40277788 539.31210219 -278.92877769 538.06078208 -279.4541626 536.8092041 C-280.21986572 535.0167627 -280.21986572 535.0167627 -281.0010376 533.18811035 C-285.51228337 521.04689894 -287.32609506 508.28776463 -288.54379272 495.46542358 C-288.8512927 492.23172642 -289.18458306 489.00082946 -289.51664734 485.76957703 C-289.68212905 484.159188 -289.84650299 482.54868472 -290.00971985 480.93806458 C-290.66431604 474.50691682 -291.41903158 468.09295494 -292.2666626 461.6842041 C-292.36922363 460.89835937 -292.47178467 460.11251465 -292.57745361 459.30285645 C-293.11596893 455.28651583 -293.69603852 451.27830261 -294.32086182 447.27453613 C-295.93531751 436.86900906 -297.34654985 426.44682859 -298.6416626 415.9967041 C-298.72537046 415.32137697 -298.80907833 414.64604984 -298.8953228 413.95025826 C-299.58940213 408.34143523 -300.27703313 402.7318242 -300.96453857 397.12219238 C-301.56233731 392.2466682 -302.16250644 387.37144481 -302.7666626 382.4967041 C-302.84985245 381.82514408 -302.9330423 381.15358406 -303.01875305 380.46167374 C-304.22914951 370.72189053 -305.58094091 361.01464695 -307.08306885 351.31604004 C-307.90264758 346.01481121 -308.56902568 340.69782204 -309.2041626 335.3717041 C-310.11216121 327.94748013 -311.05515469 320.53082799 -312.0791626 313.1217041 C-313.36853321 303.75011703 -314.6349942 294.37559618 -315.87976074 284.99798584 C-316.08959576 283.42049235 -316.30042552 281.84313072 -316.51245117 280.26593018 C-317.66491954 271.68716676 -318.73171903 263.10630328 -319.65150452 254.49925232 C-321.76534778 234.7739992 -324.46243458 215.12919376 -327.11568832 195.47077942 C-328.33063601 186.45936358 -329.53628944 177.44669579 -330.7432251 168.4342041 C-330.87395857 167.45871864 -331.00469204 166.48323318 -331.13938713 165.47818756 C-333.53035154 147.63312856 -335.85172638 129.7803023 -338.09210205 111.91564941 C-338.19886261 111.06647949 -338.30562317 110.21730957 -338.4156189 109.34240723 C-338.60584668 107.8266172 -338.79493295 106.31068312 -338.98245239 104.79455566 C-339.34734009 101.87868918 -339.74969679 98.98368313 -340.2510376 96.08776855 C-343.12672635 78.05738602 -340.64454623 61.06349467 -330.14556885 46.0123291 C-310.61240236 19.84781048 -280.9415084 12.42208225 -250.14556885 7.93029785 C-247.93029019 7.61353563 -245.71441001 7.30178448 -243.49786377 6.99401855 C-241.27107202 6.68481637 -239.04519152 6.36963798 -236.81939697 6.05334473 C-223.0275361 4.10328201 -209.22773179 2.34943422 -195.3631134 1.00566101 C-191.25996371 0.60717544 -187.16110721 0.19318511 -183.06646729 -0.28552246 C-122.98063639 -7.30195175 -60.09070187 -6.54017829 0 0 Z " fill="#50D5FD" transform="translate(607.7041625976563,208.7532958984375)"/>
<path d="M0 0 C2.12677857 0.22853752 4.25424261 0.44331544 6.38323975 0.65002441 C13.7121043 1.36316684 21.00359092 2.22692017 28.2958374 3.2467041 C29.54139404 3.41782715 30.78695068 3.5889502 32.07025146 3.76525879 C115.5291059 15.32160648 115.5291059 15.32160648 139.2958374 45.2467041 C153.63773717 65.17843118 150.89378304 88.11795584 148.0458374 111.0592041 C147.81486608 112.97817037 147.58440371 114.89719796 147.35443115 116.81628418 C145.98587585 128.1343299 144.48105128 139.42593758 142.81195068 150.70373535 C141.37428507 160.47245238 140.13225525 170.26041693 138.9208374 180.0592041 C138.81788361 180.89147522 138.71492981 181.72374634 138.6088562 182.58123779 C138.18015183 186.04770316 137.75147509 189.51417192 137.32313538 192.98068237 C135.37601597 208.70991038 133.34796003 224.42903961 131.33180237 240.14953613 C130.70186459 245.06414492 130.07565265 249.97918346 129.45681763 254.89520264 C127.65927938 269.17343207 125.69525387 283.41431508 123.54321289 297.64266968 C121.37382846 312.05280049 119.64687478 326.50854245 117.99530029 340.98620605 C117.10268436 348.77043751 116.14600573 356.49722054 114.78973389 364.21691895 C113.83150545 370.095127 113.17695663 376.01719602 112.46548462 381.92944336 C110.26737717 400.14903355 107.77901891 418.32281569 105.2333374 436.4967041 C102.94705577 452.83122544 100.73429615 469.15788109 98.9833374 485.5592041 C98.82889068 486.99654273 98.67443139 488.43388001 98.5199585 489.87121582 C98.23960081 492.48577276 97.9596053 495.10036826 97.67962646 497.71496582 C96.21029965 511.23613742 94.64769615 523.63779416 89.2958374 536.2467041 C88.96970459 537.0407666 88.64357178 537.8348291 88.30755615 538.6529541 C87.66201008 540.19492196 86.98483546 541.72365575 86.2958374 543.2467041 C86.91917969 543.22640137 87.54252197 543.20609863 88.18475342 543.18518066 C98.59439258 543.00743963 108.88159214 544.02901166 119.2333374 544.9967041 C120.69040604 545.13108887 120.69040604 545.13108887 122.1769104 545.26818848 C189.85916716 551.5434475 189.85916716 551.5434475 202.9208374 561.1842041 C204.2958374 563.2467041 204.2958374 563.2467041 204.8583374 565.7467041 C204.04870006 569.34509231 202.34390579 570.28239336 199.2958374 572.2467041 C193.93497842 574.85840463 188.43538291 575.37152863 182.53234863 575.37127686 C180.84250854 575.37512138 180.84250854 575.37512138 179.11853027 575.37904358 C177.8966803 575.37694382 176.67483032 575.37484406 175.41595459 575.37268066 C173.42255466 575.37554865 171.42915472 575.37842458 169.43575525 575.38159609 C167.29883012 575.38427085 165.16191296 575.38472093 163.02498627 575.38480377 C158.55006782 575.38595039 154.07523074 575.39883761 149.6003418 575.41436768 C148.46370248 575.41822696 148.46370248 575.41822696 147.30410075 575.4221642 C145.75461572 575.42743081 144.20513075 575.43271629 142.65564585 575.43802023 C132.24696029 575.47299304 121.83837578 575.4996944 111.42962646 575.49719238 C104.39759176 575.49559298 97.3658358 575.51189259 90.3338902 575.54789901 C86.62319438 575.5661901 82.91296283 575.57585262 79.20223236 575.56342316 C58.14642201 575.43590751 58.14642201 575.43590751 37.71899414 580.07891846 C31.18687532 582.30730447 24.96119829 582.39702808 18.13526917 582.40060425 C17.11449317 582.4049865 16.09371718 582.40936876 15.04200858 582.41388381 C11.62246588 582.42723498 8.20294894 582.43344251 4.78338623 582.4395752 C2.33060084 582.44747934 -0.1221834 582.45574849 -2.57496643 582.46435547 C-9.93635652 582.48828655 -17.29774233 582.50350195 -24.65915796 582.51641554 C-26.74180541 582.5201321 -28.82445221 582.52410497 -30.90709901 582.5281682 C-43.86561908 582.55341647 -56.82414033 582.57544961 -69.78267956 582.58789635 C-72.781491 582.59082562 -75.78030241 582.59378733 -78.77911377 582.59680176 C-79.89700079 582.59792083 -79.89700079 582.59792083 -81.03747139 582.59906252 C-93.08439861 582.61169024 -105.13117737 582.64488087 -117.17803534 582.68660359 C-129.57342399 582.72917781 -141.968737 582.75260941 -154.36419851 582.75781691 C-161.31267057 582.76121425 -168.26091094 582.77276874 -175.20931053 582.80591965 C-181.75685811 582.83710834 -188.30407813 582.84225087 -194.85171318 582.83053589 C-197.2416255 582.83031656 -199.63155738 582.83850346 -202.02140427 582.85618973 C-214.88184362 582.94610427 -226.42399711 582.26672408 -238.7500658 578.41759682 C-244.27401473 576.69925786 -249.71708477 576.12301041 -255.48988342 576.11540222 C-257.1486425 576.10938995 -257.1486425 576.10938995 -258.84091187 576.10325623 C-260.03433197 576.10378494 -261.22775208 576.10431366 -262.45733643 576.1048584 C-264.41057652 576.09952499 -266.36381661 576.09418561 -268.31705606 576.08862174 C-270.40619857 576.08344278 -272.49533485 576.08051706 -274.58448219 576.07803917 C-278.95227072 576.07209623 -283.31997918 576.05552519 -287.68772888 576.03669739 C-289.18714996 576.03036098 -290.68657108 576.02403535 -292.18599224 576.01772022 C-292.93662453 576.01455441 -293.68725682 576.0113886 -294.46063554 576.00812685 C-304.61967809 575.96616025 -314.77868165 575.93308143 -324.93780518 575.92077637 C-331.80384368 575.91237492 -338.66968171 575.88981136 -345.53561991 575.8514207 C-349.1621464 575.83173736 -352.78837377 575.81922973 -356.41495705 575.82425499 C-360.46451706 575.82979876 -364.51333575 575.80440642 -368.56280518 575.7767334 C-369.75015259 575.78333481 -370.9375 575.78993622 -372.16082764 575.79673767 C-379.82305067 575.7110067 -387.3510862 574.89964692 -393.43798542 569.79174328 C-394.7041626 568.2467041 -394.7041626 568.2467041 -395.3291626 565.3717041 C-394.7041626 562.2467041 -394.7041626 562.2467041 -392.0166626 559.6217041 C-384.2024402 554.77471128 -375.04413209 553.16779159 -366.09088135 551.78967285 C-365.27006577 551.6620607 -364.44925018 551.53444855 -363.6035614 551.40296936 C-353.85362067 549.92045602 -344.06626121 548.78113337 -334.2666626 547.6842041 C-333.31514313 547.57653717 -332.36362366 547.46887024 -331.38327026 547.35794067 C-292.71328624 542.9983256 -292.71328624 542.9983256 -276.7041626 543.2467041 C-277.09088135 542.36111816 -277.4776001 541.47553223 -277.8760376 540.56311035 C-278.40277788 539.31210219 -278.92877769 538.06078208 -279.4541626 536.8092041 C-280.21986572 535.0167627 -280.21986572 535.0167627 -281.0010376 533.18811035 C-285.51228337 521.04689894 -287.32609506 508.28776463 -288.54379272 495.46542358 C-288.8512927 492.23172642 -289.18458306 489.00082946 -289.51664734 485.76957703 C-289.68212905 484.159188 -289.84650299 482.54868472 -290.00971985 480.93806458 C-290.66431604 474.50691682 -291.41903158 468.09295494 -292.2666626 461.6842041 C-292.36922363 460.89835937 -292.47178467 460.11251465 -292.57745361 459.30285645 C-293.11596893 455.28651583 -293.69603852 451.27830261 -294.32086182 447.27453613 C-295.93531751 436.86900906 -297.34654985 426.44682859 -298.6416626 415.9967041 C-298.72537046 415.32137697 -298.80907833 414.64604984 -298.8953228 413.95025826 C-299.58940213 408.34143523 -300.27703313 402.7318242 -300.96453857 397.12219238 C-301.56233731 392.2466682 -302.16250644 387.37144481 -302.7666626 382.4967041 C-302.84985245 381.82514408 -302.9330423 381.15358406 -303.01875305 380.46167374 C-304.22914951 370.72189053 -305.58094091 361.01464695 -307.08306885 351.31604004 C-307.90264758 346.01481121 -308.56902568 340.69782204 -309.2041626 335.3717041 C-310.11216121 327.94748013 -311.05515469 320.53082799 -312.0791626 313.1217041 C-313.36853321 303.75011703 -314.6349942 294.37559618 -315.87976074 284.99798584 C-316.08959576 283.42049235 -316.30042552 281.84313072 -316.51245117 280.26593018 C-317.66491954 271.68716676 -318.73171903 263.10630328 -319.65150452 254.49925232 C-321.76534778 234.7739992 -324.46243458 215.12919376 -327.11568832 195.47077942 C-328.33063601 186.45936358 -329.53628944 177.44669579 -330.7432251 168.4342041 C-330.87395857 167.45871864 -331.00469204 166.48323318 -331.13938713 165.47818756 C-333.53035154 147.63312856 -335.85172638 129.7803023 -338.09210205 111.91564941 C-338.19886261 111.06647949 -338.30562317 110.21730957 -338.4156189 109.34240723 C-338.60584668 107.8266172 -338.79493295 106.31068312 -338.98245239 104.79455566 C-339.34734009 101.87868918 -339.74969679 98.98368313 -340.2510376 96.08776855 C-343.12672635 78.05738602 -340.64454623 61.06349467 -330.14556885 46.0123291 C-310.61240236 19.84781048 -280.9415084 12.42208225 -250.14556885 7.93029785 C-247.93029019 7.61353563 -245.71441001 7.30178448 -243.49786377 6.99401855 C-241.27107202 6.68481637 -239.04519152 6.36963798 -236.81939697 6.05334473 C-223.0275361 4.10328201 -209.22773179 2.34943422 -195.3631134 1.00566101 C-191.25996371 0.60717544 -187.16110721 0.19318511 -183.06646729 -0.28552246 C-122.98063639 -7.30195175 -60.09070187 -6.54017829 0 0 Z M113.2958374 91.2467041 C112.82017334 91.61021973 112.34450928 91.97373535 111.85443115 92.3482666 C76.30111033 117.88380089 16.74675432 117.13383242 -25.54827881 119.13955688 C-27.81096858 119.25201235 -30.07228844 119.38228405 -32.33404541 119.51208496 C-52.38914629 120.57978295 -72.47580955 120.43402664 -92.55279541 120.43200684 C-96.79893281 120.43192592 -101.04496153 120.43882649 -105.29107666 120.45251465 C-140.84242159 120.5650318 -175.92408469 119.52942724 -211.2666626 115.4342041 C-212.41709045 115.3038678 -213.56751831 115.17353149 -214.75280762 115.03924561 C-231.56088464 113.12888698 -248.1844188 110.94754518 -264.7041626 107.2467041 C-266.23143264 106.92864164 -267.75877231 106.61091323 -269.28619385 106.2935791 C-279.96577592 103.96344354 -290.87547845 100.19741126 -299.9776001 94.0279541 C-302.57994666 91.97324102 -302.57994666 91.97324102 -305.7041626 92.2467041 C-306.63806664 96.68066369 -306.63690579 100.23390099 -305.9541626 104.70373535 C-305.86090698 105.33849792 -305.76765137 105.9732605 -305.67156982 106.6272583 C-305.46575348 108.0267511 -305.25615241 109.42569121 -305.04327393 110.8241272 C-304.43843421 114.8106153 -303.86765695 118.80194583 -303.2979126 122.7935791 C-303.10835999 124.11906517 -303.10835999 124.11906517 -302.91497803 125.47132874 C-301.16074841 137.89366061 -299.70556657 150.35436178 -298.2041626 162.8092041 C-296.23363585 179.11289451 -294.19644403 195.39246053 -291.77941895 211.63613892 C-289.68707496 225.74346661 -288.05398702 239.89752207 -286.49078369 254.0723877 C-285.46487661 263.28475529 -284.25428276 272.42958909 -282.75881958 281.57789612 C-281.67460115 288.25913397 -280.88140399 294.94941467 -280.2041626 301.6842041 C-279.43920108 309.26298948 -278.49668937 316.78662456 -277.33306885 324.31311035 C-275.3140551 337.42033615 -273.75075125 350.58410006 -272.1416626 363.7467041 C-271.53914182 368.67415545 -270.93318996 373.60116798 -270.32525635 378.5279541 C-270.19187363 379.62820923 -270.05849091 380.72846436 -269.92106628 381.86206055 C-269.15087378 388.10169425 -268.23857782 394.29539754 -267.15753174 400.48901367 C-266.35240628 405.38631826 -265.82436435 410.31622922 -265.2666626 415.2467041 C-264.38591967 422.8098117 -263.43942885 430.34823812 -262.2666626 437.8717041 C-260.96004586 446.31472592 -259.80338733 454.77427984 -258.7041626 463.2467041 C-258.61870178 463.90355194 -258.53324097 464.56039978 -258.44519043 465.2371521 C-257.04200892 476.0752279 -255.83197579 486.92759088 -254.83111572 497.81115723 C-253.18701086 514.4841961 -248.51234938 527.84927412 -235.7041626 539.2467041 C-225.9335075 546.2027672 -216.81310429 549.55521553 -204.9077301 549.51412964 C-203.93833046 549.51866075 -202.96893081 549.52319186 -201.97015542 549.52786028 C-198.73080754 549.54049248 -195.49162804 549.53888465 -192.2522583 549.53723145 C-189.92589604 549.54321748 -187.59953577 549.55002321 -185.2731781 549.55758667 C-178.95892804 549.57524765 -172.6447322 549.57994214 -166.33045983 549.58121824 C-162.38295634 549.58264052 -158.43546661 549.5869116 -154.48796654 549.59221268 C-141.41977235 549.6097598 -128.35161225 549.61905288 -115.28340624 549.61755173 C-114.57961179 549.61747182 -113.87581735 549.6173919 -113.1506958 549.61730957 C-112.44603572 549.61722781 -111.74137564 549.61714605 -111.01536223 549.61706181 C-99.60397152 549.61624949 -88.19271298 549.63537538 -76.78136048 549.6635863 C-65.04702277 549.6923653 -53.3127494 549.70612379 -41.57837552 549.70439875 C-34.99738884 549.70388957 -28.41655173 549.70954884 -21.83559608 549.73075485 C-15.64261851 549.75016579 -9.44993272 549.75024186 -3.25694466 549.73572159 C-0.98988161 549.73363586 1.27719982 549.73832021 3.54423141 549.7504425 C22.2824398 549.84411265 35.35500392 547.61247444 49.5458374 534.4967041 C60.19563296 523.30904009 62.34328669 509.00181027 63.98724365 494.20373535 C64.21175441 492.28370314 64.43628116 490.36367275 64.66137981 488.44370937 C64.90015573 486.39733365 65.13546662 484.35058451 65.36993408 482.30371094 C66.21376334 474.94991633 67.09076942 467.60004963 67.97161865 460.25061035 C68.06335735 459.48406002 68.15509605 458.71750969 68.24961472 457.92773056 C70.47020403 439.4220155 72.98707442 420.95824911 75.5458374 402.4967041 C75.65063038 401.74050907 75.75542336 400.98431404 75.86339188 400.20520401 C76.76921351 393.67146414 77.67685252 387.13797736 78.58659363 380.6047821 C80.23340076 368.76571282 81.82258515 356.91945145 83.39251709 345.06994629 C83.53944 343.9611763 83.68636292 342.85240631 83.83773804 341.71003723 C84.16135931 339.26338843 84.48381817 336.81658575 84.80545044 334.36967468 C85.59717322 328.37468598 86.40071888 322.38597484 87.3409729 316.41239929 C89.44361134 303.0487211 91.02890419 289.61770609 92.6550293 276.18972778 C93.44608883 269.65752019 94.24640336 263.12644272 95.04598618 256.59527397 C95.31004964 254.43793353 95.57383764 252.28055952 95.83761597 250.1231842 C97.71778008 234.75621712 99.67395468 219.39955425 101.67181396 204.04748535 C102.24334569 199.65496715 102.81072017 195.26191801 103.3777771 190.86882019 C106.03806345 170.26996953 108.73949873 149.67870239 111.6473999 129.11315918 C112.61293451 122.27461011 113.55152148 115.43309943 114.4286499 108.5826416 C114.59252197 107.30695313 114.75639404 106.03126465 114.92523193 104.71691895 C115.37422098 100.51274876 115.44661112 96.46836816 115.2958374 92.2467041 C114.6358374 91.9167041 113.9758374 91.5867041 113.2958374 91.2467041 Z " fill="#1F266B" transform="translate(607.7041625976563,208.7532958984375)"/>
<path d="M0 0 C0.66 0.33 1.32 0.66 2 1 C2.30408214 8.75843859 1.27314983 16.22546677 0.14996338 23.88342285 C-0.44110377 27.91901423 -1.00928098 31.95786983 -1.58203125 35.99609375 C-1.70122925 36.83214142 -1.82042725 37.66818909 -1.9432373 38.52957153 C-3.1391425 46.9295991 -4.27011344 55.33756368 -5.375 63.75 C-5.47544617 64.51363861 -5.57589233 65.27727722 -5.67938232 66.0640564 C-7.77663136 82.04129963 -9.76351662 98.03233054 -11.75027466 114.02362061 C-13.52018706 128.26735872 -15.31383158 142.50766001 -17.15625 156.7421875 C-17.29155152 157.7879105 -17.29155152 157.7879105 -17.42958641 158.85475922 C-18.22732425 165.01864798 -19.02618572 171.18238945 -19.83023071 177.34545898 C-22.27016648 195.93602131 -22.27016648 195.93602131 -24.39448547 214.56454468 C-24.88813308 219.24708846 -25.62337338 223.8474808 -26.44238281 228.48193359 C-27.20266784 233.27865306 -27.77377021 238.09333183 -28.359375 242.9140625 C-29.7483128 254.17827449 -31.28017206 265.41795507 -32.87399292 276.65478516 C-33.6479879 282.11805102 -34.41293958 287.58258822 -35.1796875 293.046875 C-36.04445917 299.2039796 -36.90971405 305.36101324 -37.77832031 311.51757812 C-38.5052792 316.67739083 -39.2244327 321.83824964 -39.9375 327 C-40.05498596 327.84896851 -40.17247192 328.69793701 -40.29351807 329.57263184 C-42.00891492 342.03293424 -43.55938496 354.51076984 -45.046875 367 C-45.22573524 368.49764219 -45.40461405 369.99528216 -45.58351135 371.49291992 C-46.38183166 378.18526124 -47.17523336 384.878056 -47.94857979 391.57333374 C-48.2726491 394.36673632 -48.60295214 397.15938072 -48.93450165 399.9519043 C-49.15975931 401.86768019 -49.37681889 403.78441456 -49.59356689 405.70117188 C-51.69445136 423.30881347 -55.84605369 437.37500087 -70 449 C-79.44693377 455.30682621 -88.72695409 458.46390099 -100.04367065 458.38768005 C-101.50139175 458.39575836 -101.50139175 458.39575836 -102.98856175 458.40399987 C-106.2241138 458.41823404 -109.45925412 458.41118683 -112.69482422 458.40405273 C-115.02310514 458.40975868 -117.35138326 458.41672381 -119.67965698 458.42485046 C-125.98961917 458.44277253 -132.29944222 458.44161516 -138.60942221 458.43590808 C-144.55056385 458.43242295 -150.49168436 458.44038359 -156.43282141 458.44726873 C-168.91922851 458.46097842 -181.40557286 458.45556702 -193.89197852 458.44408352 C-205.29745676 458.43415405 -216.70277271 458.44708951 -228.10822593 458.47101771 C-239.83923956 458.49544215 -251.57017771 458.5050083 -263.30121624 458.49836498 C-269.87933748 458.49499785 -276.45732467 458.49739451 -283.03542709 458.51461601 C-289.222696 458.53010773 -295.4096556 458.52610446 -301.59691238 458.50731087 C-303.86277966 458.50363114 -306.12866997 458.50671538 -308.39451599 458.51719666 C-330.29468888 458.61073811 -330.29468888 458.61073811 -339 454 C-340.56621094 453.22269531 -340.56621094 453.22269531 -342.1640625 452.4296875 C-353.84601138 445.04966265 -362.84266629 434.75792625 -365.98681641 421.01831055 C-367.1642343 415.56944837 -367.79632007 410.09179276 -368.40234375 404.5546875 C-368.5255751 403.46777618 -368.64880646 402.38086487 -368.77577209 401.26101685 C-369.16755931 397.79950508 -369.55293217 394.3373206 -369.9375 390.875 C-370.44390866 386.35125503 -370.95323024 381.82784671 -371.46484375 377.3046875 C-371.59023529 376.19482483 -371.71562683 375.08496216 -371.84481812 373.94146729 C-373.09914945 362.94355278 -374.52724969 351.97050164 -376 341 C-376.18560377 339.60825411 -376.37108222 338.2164915 -376.55639648 336.82470703 C-376.85925592 334.55484476 -377.16343168 332.28515783 -377.46875 330.015625 C-377.89815273 326.79845925 -378.30961546 323.5791786 -378.71875 320.359375 C-378.84765625 319.35197266 -378.9765625 318.34457031 -379.109375 317.30664062 C-379.36176559 315.33168425 -379.61192303 313.35644061 -379.859375 311.38085938 C-379.97796875 310.45595703 -380.0965625 309.53105469 -380.21875 308.578125 C-380.32123047 307.76762695 -380.42371094 306.95712891 -380.52929688 306.12207031 C-380.95012682 303.33079783 -381.44661656 300.5699458 -381.96557617 297.7956543 C-382.94891689 292.44458333 -383.68649992 287.09233932 -384.33203125 281.69140625 C-384.57315218 279.72525936 -384.81428209 277.75911357 -385.05541992 275.79296875 C-385.17887787 274.77638184 -385.30233582 273.75979492 -385.42953491 272.71240234 C-387.38568725 256.62297531 -389.41992271 240.54860103 -391.6875 224.5 C-393.42284176 212.19443806 -395.06205755 199.88301585 -396.56689453 187.546875 C-397.51527577 179.78019931 -398.47353839 172.0147566 -399.4375 164.25 C-399.54511658 163.38231995 -399.65273315 162.51463989 -399.76361084 161.6206665 C-401.11235197 150.7718548 -402.53918135 139.94202548 -404.125 129.125 C-405.34071175 120.82386626 -406.44525521 112.52555905 -407.375 104.1875 C-408.75592468 91.81785743 -410.30155211 79.47143981 -411.875 67.125 C-412.00317108 66.11602661 -412.13134216 65.10705322 -412.26339722 64.06750488 C-413.61737239 53.4266228 -415.00669503 42.7931368 -416.53515625 32.17578125 C-416.65499878 31.33851501 -416.77484131 30.50124878 -416.89831543 29.63861084 C-417.45787223 25.73704755 -418.02726075 21.83739727 -418.61474609 17.93994141 C-418.8150723 16.56286821 -419.01512186 15.18575473 -419.21484375 13.80859375 C-419.39136475 12.63095459 -419.56788574 11.45331543 -419.74975586 10.23999023 C-420.00398181 6.94844618 -419.6863175 4.21797155 -419 1 C-415.59181849 1.58524329 -412.8086513 3.06835598 -409.77587891 4.6784668 C-372.19354977 24.55661124 -322.17312144 25.8163185 -280.42828369 27.81660461 C-278.15746074 27.93808186 -275.88765157 28.08045477 -273.61950684 28.24450684 C-262.37877185 29.05046312 -251.18037098 29.16366238 -239.9140625 29.16796875 C-237.88520283 29.17119852 -235.85634337 29.17456373 -233.82748413 29.17805481 C-229.5798082 29.1840105 -225.33215246 29.18589901 -221.08447266 29.18530273 C-216.82466295 29.18522241 -212.56496294 29.19201815 -208.30517578 29.20581055 C-186.2328899 29.27607951 -164.19941353 29.16565548 -142.1484375 28.11328125 C-141.31303059 28.07433432 -140.47762367 28.03538738 -139.6169014 27.99526024 C-128.13681214 27.44465894 -116.73381704 26.45291634 -105.30597878 25.23878479 C-102.18705618 24.91581943 -99.0655692 24.62406911 -95.94322681 24.33631039 C-44.54985333 21.56373006 -44.54985333 21.56373006 0 0 Z M-377 133 C-382.38534853 141.0780228 -377.74322635 154.05558862 -376 163 C-375.24589844 162.24332031 -374.49179687 161.48664063 -373.71484375 160.70703125 C-358.04768709 145.08495993 -340.52847655 137.68686896 -318.42138672 137.61499023 C-296.87603518 137.92411774 -277.88958891 146.17580703 -259.23706055 156.22387695 C-246.45964399 163.04656714 -233.13238845 168.6920713 -219 172 C-218.27022949 172.17660156 -217.54045898 172.35320312 -216.78857422 172.53515625 C-210.2330671 174.00496584 -203.95448849 174.31438369 -197.25 174.25 C-196.18652344 174.24033203 -195.12304688 174.23066406 -194.02734375 174.22070312 C-170.61817705 173.86342036 -150.50673711 165.93298584 -129.6897583 155.87771606 C-119.66409994 151.04548338 -109.888065 147.32573226 -99 145 C-98.38882324 144.82710449 -97.77764648 144.65420898 -97.14794922 144.47607422 C-94.53112612 143.89607819 -92.03794312 143.78332767 -89.359375 143.68359375 C-87.75449219 143.62075195 -87.75449219 143.62075195 -86.1171875 143.55664062 C-85.00601562 143.51732422 -83.89484375 143.47800781 -82.75 143.4375 C-81.62335938 143.39431641 -80.49671875 143.35113281 -79.3359375 143.30664062 C-76.55741046 143.20067985 -73.77879609 143.09860858 -71 143 C-71.33 143.66 -71.66 144.32 -72 145 C-72.39771924 147.56340211 -72.74919675 150.11377184 -73.0625 152.6875 C-73.15337891 153.38294922 -73.24425781 154.07839844 -73.33789062 154.79492188 C-73.88899146 159.23273385 -74.08790301 163.52866679 -74 168 C-75.0415625 167.96519531 -76.083125 167.93039062 -77.15625 167.89453125 C-91.99309778 167.55245124 -105.01452547 169.93279908 -119 175 C-120.49375327 175.49791776 -121.98863114 175.99246928 -123.484375 176.484375 C-125.05221581 177.0100217 -126.61992469 177.53606207 -128.1875 178.0625 C-128.94345459 178.30782471 -129.69940918 178.55314941 -130.47827148 178.8059082 C-132.35179395 179.44819118 -134.18153302 180.21527604 -136 181 C-136.33 181.99 -136.66 182.98 -137 184 C-138.5778125 184.2165625 -138.5778125 184.2165625 -140.1875 184.4375 C-144.76303413 185.11257881 -149.09404084 185.97173218 -153.5 187.375 C-172.25468635 193.01509546 -191.19230786 195.26076326 -210.75 195.3125 C-212.6225647 195.32059692 -212.6225647 195.32059692 -214.53295898 195.32885742 C-221.09865818 195.27819956 -227.25822018 194.78341053 -233.69042969 193.46118164 C-236.37644067 192.92483124 -239.01659671 192.7025657 -241.75 192.5625 C-245.51380629 192.2501729 -248.47531449 191.65508404 -251.90625 189.96484375 C-254.96955809 188.55320737 -258.13852897 187.44511704 -261.3125 186.3125 C-262.52550781 185.87550781 -263.73851562 185.43851562 -264.98828125 184.98828125 C-267.78842994 183.89607073 -267.78842994 183.89607073 -270 184 C-270 183.34 -270 182.68 -270 182 C-272.8025191 180.13165393 -274.13343805 179.61494808 -277.3125 179 C-280.98338413 178.23348586 -284.50610854 177.39755658 -288 176 C-288.33 175.34 -288.66 174.68 -289 174 C-292.6128101 172.55487596 -295.06687842 172 -299 172 C-299 171.34 -299 170.68 -299 170 C-324.65231703 164.02690331 -349.23208881 163.26737201 -374 173 C-373.47830701 183.83256043 -372.23268226 194.46318963 -370.70303345 205.19454956 C-370.01843053 210.00292615 -369.35256065 214.81388707 -368.6875 219.625 C-368.54866898 220.62816757 -368.40983795 221.63133514 -368.26679993 222.66490173 C-366.4062588 236.19856851 -364.75149632 249.75846707 -363.09301758 263.31811523 C-361.65127204 275.06394422 -360.07259216 286.78181704 -358.36508179 298.49191284 C-357.30675069 305.76257581 -356.27588466 313.03719749 -355.25 320.3125 C-355.12571625 321.19255707 -355.0014325 322.07261414 -354.87338257 322.9793396 C-353.19754084 334.89042126 -351.62969479 346.81166964 -350.16015625 358.75 C-350.00596222 360.0004863 -349.85176819 361.2509726 -349.69290161 362.53935242 C-348.93462926 368.70451092 -348.18547439 374.87062099 -347.44824219 381.03833008 C-345.31669569 407.1978717 -345.31669569 407.1978717 -331 428 C-324.64391635 431.73887273 -319.34720304 432.14874102 -312.08236694 432.14717102 C-311.17128917 432.15084771 -310.2602114 432.1545244 -309.32152522 432.1583125 C-306.26170774 432.16934545 -303.20192423 432.17319254 -300.14208984 432.17700195 C-297.95085543 432.18326692 -295.75962208 432.18991375 -293.56838989 432.19691467 C-286.36591329 432.21795431 -279.16343647 432.22831728 -271.9609375 432.23828125 C-269.48099379 432.2423289 -267.0010502 432.24644583 -264.52110672 432.25063133 C-253.53787601 432.26859034 -242.55464991 432.28296861 -231.57140712 432.29080774 C-229.56241593 432.29224618 -227.55342476 432.29369756 -225.54443359 432.29516602 C-224.5469147 432.29589163 -224.5469147 432.29589163 -223.5292439 432.2966319 C-212.7629675 432.30492743 -201.99680237 432.33025714 -191.23057453 432.36274669 C-180.16757482 432.39585858 -169.10463447 432.41350011 -158.04158556 432.41702431 C-151.83395816 432.41937406 -145.62650666 432.42832499 -139.41892624 432.45348549 C-133.57647401 432.47678333 -127.73431329 432.48099235 -121.89182663 432.47072411 C-119.75131256 432.47022905 -117.61078406 432.4765405 -115.47031403 432.49028015 C-112.53970751 432.50803417 -109.61014325 432.50087538 -106.67953491 432.48774719 C-105.83981939 432.49871644 -105.00010386 432.50968568 -104.13494241 432.52098733 C-95.18211676 432.42468434 -87.3383477 429.3383477 -81 423 C-75.44937649 416.0220733 -73.6838871 407.72163489 -72.5 399.0625 C-72.3774585 398.21187988 -72.25491699 397.36125977 -72.12866211 396.48486328 C-71.00909348 388.51570663 -70.09671993 380.51994215 -69.265625 372.51586914 C-68.44243073 364.91805877 -67.3006943 357.39216272 -66.11328125 349.84375 C-64.1729538 337.46238504 -62.55864188 325.05696658 -61.04919434 312.61657715 C-60.31126207 306.54259826 -59.55846638 300.4704674 -58.8046875 294.3984375 C-58.6538269 293.18281128 -58.50296631 291.96718506 -58.34753418 290.71472168 C-56.89318981 279.04907315 -55.34459605 267.39722649 -53.75 255.75 C-53.63134583 254.87990295 -53.51269165 254.00980591 -53.39044189 253.11334229 C-51.38828131 238.45733065 -51.38828131 238.45733065 -50.28515625 231.35400391 C-47.79335606 215.29880205 -45.9359993 199.17573556 -44.05224609 183.03955078 C-40.9270183 156.34020035 -40.9270183 156.34020035 -38.8885498 145.63253784 C-37.27962058 136.93790447 -37.27962058 136.93790447 -39.875 128.8125 C-50.038911 118.27638945 -66.86227786 117.03204647 -80.58276367 116.65625 C-102.84348762 116.39543786 -121.86122261 123.00520877 -141.59375 132.75 C-157.29198565 140.49101778 -173.16883907 147.84539456 -191 148 C-191.93328125 148.04898438 -192.8665625 148.09796875 -193.828125 148.1484375 C-215.74444296 148.91023465 -236.72909781 139.89340886 -255.5625 129.5078125 C-263.79391137 124.97859589 -271.88118094 121.03717142 -280.8125 118.0625 C-281.62299805 117.79236084 -282.43349609 117.52222168 -283.26855469 117.24389648 C-295.42567653 113.39884764 -307.11505759 111.45727692 -319.875 111.5625 C-321.84944092 111.57603516 -321.84944092 111.57603516 -323.86376953 111.58984375 C-343.94161122 111.94735694 -363.055957 117.8291206 -377 133 Z " fill="#FDFEFE" transform="translate(721,300)"/>
<path d="M0 0 C1.30791504 0.00499512 2.61583008 0.00999023 3.96337891 0.01513672 C15.38386761 0.21819875 25.65779471 2.01860193 36.5 5.5 C37.76070313 5.87640625 39.02140625 6.2528125 40.3203125 6.640625 C50.36857204 10.01137873 59.5770595 15.08927788 68.92648315 20.01495361 C88.37756227 30.25353947 107.30094562 37.05776519 129.5 36.5 C130.40234375 36.49484375 131.3046875 36.4896875 132.234375 36.484375 C149.56816111 35.79885804 165.13088204 28.00112953 180.3828125 20.4765625 C206.80361162 7.49342974 235.82322952 -0.11112324 264.9921875 8.53515625 C271.707476 10.90301875 279.11641236 13.73282471 282.5 20.5 C282.80913872 26.9845526 281.91315506 33.04835437 280.875 39.4375 C278.77879068 52.90198425 277.12640147 66.40938769 275.5 79.9375 C273.38185832 97.49578834 271.09837342 115.00566043 268.5 132.5 C267.53094224 139.0401161 266.57260044 145.58173996 265.625 152.125 C265.49836975 152.99849091 265.3717395 153.87198181 265.24127197 154.77194214 C262.88975739 171.07367822 260.90930143 187.41133474 258.99179077 203.76904297 C257.53170471 216.20729116 256.00824229 228.59873126 253.97045898 240.95751953 C252.9159763 247.4617132 252.04526521 253.97561844 251.25 260.515625 C251.14128067 261.40708221 251.03256134 262.29853943 250.92054749 263.2170105 C250.38116762 267.65981496 249.85261209 272.10361824 249.33764648 276.54931641 C245.86132927 305.94369905 245.86132927 305.94369905 236.5 314.5 C229.10327228 319.42233044 223.39883696 320.64939602 214.56890869 320.64044189 C213.20017534 320.64489858 213.20017534 320.64489858 211.80379081 320.6494453 C208.73930182 320.65813246 205.6748519 320.65964056 202.61035156 320.66113281 C200.41587236 320.66576097 198.22139396 320.67078563 196.0269165 320.67617798 C190.05986467 320.68930418 184.09282409 320.69574737 178.12576008 320.70018864 C174.3982484 320.70311901 170.6707398 320.70722375 166.94322968 320.71169281 C155.28206547 320.72536832 143.62090773 320.73505061 131.95973611 320.7388947 C130.61801418 320.73933816 129.27629224 320.73978473 127.93457031 320.74023438 C127.26903309 320.7404558 126.60349587 320.74067723 125.91779086 320.74090537 C115.1372523 320.74485216 104.35678138 320.76230315 93.57626894 320.7855939 C82.5019816 320.80932575 71.42772239 320.82151277 60.35340858 320.82293582 C54.13805475 320.82398416 47.92279633 320.82989838 41.70746613 320.84775543 C35.86013041 320.86422825 30.01296191 320.86639535 24.16561127 320.85761642 C22.02103732 320.85684563 19.8764544 320.86119429 17.73190308 320.87107468 C14.80074504 320.8837857 11.87018 320.87792173 8.93902588 320.86749268 C7.67071407 320.87957728 7.67071407 320.87957728 6.37677979 320.89190602 C-3.30422633 320.81153191 -9.72831805 317.28673013 -16.5 310.5 C-21.96538888 304.60313305 -22.7674077 299.2548233 -22.5 291.5 C-21.51 291.17 -20.52 290.84 -19.5 290.5 C-19.005 289.2625 -19.005 289.2625 -18.5 288 C-18.005 286.7625 -18.005 286.7625 -17.5 285.5 C-16.51 285.17 -15.52 284.84 -14.5 284.5 C-14.5 283.84 -14.5 283.18 -14.5 282.5 C-9.84134205 281.0338503 -5.75856995 280.21718289 -0.84399414 280.02929688 C0.43942368 279.97584106 1.72284149 279.92238525 3.04515076 279.86730957 C4.43504792 279.81777577 5.8249456 279.76825631 7.21484375 279.71875 C8.67195693 279.66002931 10.12903374 279.60040012 11.58607483 279.53991699 C15.42510642 279.38230878 19.26443232 279.23398361 23.10394287 279.08856201 C60.50576296 277.96694962 60.50576296 277.96694962 97.625 273.625 C99.18287231 273.36674438 99.18287231 273.36674438 100.7722168 273.10327148 C119.39174432 269.90174353 135.33902484 263.08839446 151.5 253.5 C152.35722656 252.99597656 153.21445312 252.49195313 154.09765625 251.97265625 C160.01196776 248.26950295 164.9490429 243.57184297 169.99609375 238.79296875 C172.5 236.5 172.5 236.5 174.5 235.5 C174.83 234.51 175.16 233.52 175.5 232.5 C176.16 232.5 176.82 232.5 177.5 232.5 C177.5 231.84 177.5 231.18 177.5 230.5 C178.16 230.5 178.82 230.5 179.5 230.5 C179.8403125 229.4171875 179.8403125 229.4171875 180.1875 228.3125 C181.5 225.5 181.5 225.5 183.75 223.375 C187.658035 219.28932705 189.94704302 214.50941044 192.5 209.5 C193.16 209.5 193.82 209.5 194.5 209.5 C194.83 208.18 195.16 206.86 195.5 205.5 C196.36625 205.665 197.2325 205.83 198.125 206 C209.36955175 207.54783303 221.59410447 207.56895942 231.4375 201.25 C236.18834484 197.42198114 238.47025378 192.98674501 239.4375 187 C239.84914399 181.09642282 237.90960176 177.12646357 234.0625 172.6875 C231.89169282 170.83437192 230.1226356 169.56848117 227.5 168.5 C228.07778176 164.13742312 229.17154814 160.52448377 230.9375 156.5 C232.25838473 153.47182247 233.48949759 150.53356572 234.4765625 147.37890625 C235.48297414 144.54789336 236.60355086 142.78476824 238.4375 140.4375 C243.57544259 133.00067356 245.35037458 123.42893308 244.5 114.5 C243.25637941 108.12961698 241.78471832 102.13094569 238.5 96.5 C239.16 96.5 239.82 96.5 240.5 96.5 C240.64187744 95.36046875 240.78375488 94.2209375 240.92993164 93.046875 C241.48418266 88.61335341 242.05124151 84.18153946 242.62109375 79.75 C242.83659588 78.07161553 243.05209042 76.39323008 243.26757812 74.71484375 C243.60088849 72.119941 243.93428026 69.52504877 244.26782227 66.93017578 C244.48603068 65.2322771 244.70409961 63.53436048 244.92202759 61.83642578 C245.13707563 60.16156629 245.35254612 58.48676098 245.56845093 56.81201172 C246.08488711 52.79439312 246.59044794 48.77601046 247.07080078 44.75390625 C247.2047097 43.64341919 247.2047097 43.64341919 247.34132385 42.51049805 C247.58208312 40.50473932 247.81865248 38.49847892 248.05493164 36.4921875 C248.5 33.5 248.5 33.5 249.5 31.5 C226.80734942 31.64858457 209.2432006 35.6838894 188.82226562 45.39648438 C156.38242216 60.81154876 123.25645785 68.80802943 88.28515625 56.734375 C77.27543344 52.7728675 66.84079374 47.9459764 56.5 42.5 C46.36231094 37.17051459 36.56334818 32.6541295 25.5 29.5 C24.43007813 29.1803125 23.36015625 28.860625 22.2578125 28.53125 C2.38914575 23.38540825 -18.66319483 25.33520847 -36.48828125 35.57421875 C-43.43737319 40.01767183 -49.53873626 44.88498168 -54.5 51.5 C-57.50524294 46.27239254 -57.79999567 40.39226948 -58.5 34.5 C-58.68369141 33.11748047 -58.68369141 33.11748047 -58.87109375 31.70703125 C-59.24308115 26.81046241 -58.6717009 24.07193571 -55.5 20.25 C-54.19996154 18.96540754 -52.86643286 17.71372938 -51.5 16.5 C-50.94441406 15.97792969 -50.38882812 15.45585937 -49.81640625 14.91796875 C-45.59354148 11.35345707 -40.81374857 9.06892153 -35.8125 6.8125 C-35.18996338 6.52689209 -34.56742676 6.24128418 -33.92602539 5.94702148 C-22.97505563 1.23522084 -11.83076033 -0.05997656 0 0 Z " fill="#1FA4FD" transform="translate(400.5,411.5)"/>
<path d="M0 0 C2.64000513 0.39932851 5.2816672 0.76238504 7.92871094 1.11132812 C17.28099885 2.39547869 26.49923801 4.33548516 35.71505737 6.36068726 C37.06465991 6.6572197 38.41484061 6.95113618 39.76565552 7.24209595 C65.6080889 12.84578942 65.6080889 12.84578942 71.90527344 20.43945312 C72.28027344 23.37695312 72.28027344 23.37695312 70.90527344 26.43945312 C50.06906778 48.56739121 0.46090225 48.16414972 -27.09472656 50.43945312 C-29.20413123 50.62401018 -31.31350791 50.80888755 -33.42285156 50.99414062 C-39.97533727 51.55243594 -46.53311981 52.00347471 -53.09472656 52.43945312 C-54.39539063 52.5311377 -55.69605469 52.62282227 -57.03613281 52.71728516 C-256.6020566 66.57729537 -256.6020566 66.57729537 -317.09472656 29.43945312 C-319.91976009 26.80703552 -321.0283985 25.76601428 -321.21972656 21.93945312 C-318.72741327 16.40097913 -314.071736 14.22297715 -308.71972656 11.93945312 C-277.91824751 0.91685025 -241.80189451 -1.71892309 -209.3671875 -4.22070312 C-206.43069849 -4.44913637 -203.49746447 -4.70130199 -200.56445312 -4.97070312 C-134.60829625 -11.00843136 -65.51484736 -9.93685434 0 0 Z " fill="#FCFDFE" transform="translate(637.0947265625,244.560546875)"/>
<path d="M0 0 C0.66 0.33 1.32 0.66 2 1 C2.30408214 8.75843859 1.27314983 16.22546677 0.14996338 23.88342285 C-0.44110377 27.91901423 -1.00928098 31.95786983 -1.58203125 35.99609375 C-1.70122925 36.83214142 -1.82042725 37.66818909 -1.9432373 38.52957153 C-3.1391425 46.9295991 -4.27011344 55.33756368 -5.375 63.75 C-5.47544617 64.51363861 -5.57589233 65.27727722 -5.67938232 66.0640564 C-7.77663136 82.04129963 -9.76351662 98.03233054 -11.75027466 114.02362061 C-13.52018706 128.26735872 -15.31383158 142.50766001 -17.15625 156.7421875 C-17.29155152 157.7879105 -17.29155152 157.7879105 -17.42958641 158.85475922 C-18.22732425 165.01864798 -19.02618572 171.18238945 -19.83023071 177.34545898 C-22.27016648 195.93602131 -22.27016648 195.93602131 -24.39448547 214.56454468 C-24.88813308 219.24708846 -25.62337338 223.8474808 -26.44238281 228.48193359 C-27.20266784 233.27865306 -27.77377021 238.09333183 -28.359375 242.9140625 C-29.7483128 254.17827449 -31.28017206 265.41795507 -32.87399292 276.65478516 C-33.6479879 282.11805102 -34.41293958 287.58258822 -35.1796875 293.046875 C-36.04445917 299.2039796 -36.90971405 305.36101324 -37.77832031 311.51757812 C-38.5052792 316.67739083 -39.2244327 321.83824964 -39.9375 327 C-40.05498596 327.84896851 -40.17247192 328.69793701 -40.29351807 329.57263184 C-42.00891492 342.03293424 -43.55938496 354.51076984 -45.046875 367 C-45.22573524 368.49764219 -45.40461405 369.99528216 -45.58351135 371.49291992 C-46.38183166 378.18526124 -47.17523336 384.878056 -47.94857979 391.57333374 C-48.2726491 394.36673632 -48.60295214 397.15938072 -48.93450165 399.9519043 C-49.15975931 401.86768019 -49.37681889 403.78441456 -49.59356689 405.70117188 C-51.69445136 423.30881347 -55.84605369 437.37500087 -70 449 C-80.24173867 455.83744244 -89.73150281 458.46251348 -101.94555664 458.34057617 C-103.10754578 458.34101425 -104.26953491 458.34145233 -105.46673584 458.34190369 C-109.2813843 458.33982507 -113.0955852 458.3165371 -116.91015625 458.29296875 C-119.5653101 458.2873695 -122.22043962 458.28295326 -124.87559509 458.28010559 C-131.13337297 458.27081388 -137.39099198 458.24623951 -143.64870018 458.21605712 C-150.77813405 458.18242306 -157.90757586 458.16600457 -165.03706944 458.15097082 C-179.69147293 458.11968701 -194.34570485 458.06471133 -209 458 C-209 449.75 -209 441.5 -209 433 C-245.63 433 -282.26 433 -320 433 C-320 432.67 -320 432.34 -320 432 C-318.85993563 431.99853344 -317.71987125 431.99706688 -316.54525948 431.99555588 C-288.79388386 431.95894681 -261.04262879 431.89947863 -233.29135323 431.81609726 C-230.61871488 431.80814592 -227.9460763 431.80027958 -225.2734375 431.79248047 C-224.27701152 431.78956841 -224.27701152 431.78956841 -223.26045571 431.78659752 C-213.18373252 431.75753431 -203.1070312 431.7401071 -193.03027344 431.72900391 C-181.33185968 431.71598965 -169.63357501 431.68903051 -157.93523395 431.64538693 C-151.742115 431.62276733 -145.54915529 431.60708964 -139.35599136 431.60811615 C-133.52337941 431.60886244 -127.69111956 431.59092322 -121.85859871 431.55883217 C-119.72133935 431.55033362 -117.5840405 431.54858291 -115.44677162 431.55419731 C-112.52026857 431.56085925 -109.59487861 431.54286374 -106.66848755 431.51898193 C-105.82993449 431.52674235 -104.99138144 431.53450277 -104.12741768 431.54249835 C-95.98214654 431.42546205 -87.86080821 428.86080821 -82 423 C-76.4606665 415.99437234 -74.68600595 407.7371325 -73.5 399.0625 C-73.3774585 398.21187988 -73.25491699 397.36125977 -73.12866211 396.48486328 C-72.00909348 388.51570663 -71.09671993 380.51994215 -70.265625 372.51586914 C-69.44243073 364.91805877 -68.3006943 357.39216272 -67.11328125 349.84375 C-65.1729538 337.46238504 -63.55864188 325.05696658 -62.04919434 312.61657715 C-61.31126207 306.54259826 -60.55846638 300.4704674 -59.8046875 294.3984375 C-59.57839661 292.57499817 -59.57839661 292.57499817 -59.34753418 290.71472168 C-57.89318981 279.04907315 -56.34459605 267.39722649 -54.75 255.75 C-54.63134583 254.87990295 -54.51269165 254.00980591 -54.39044189 253.11334229 C-52.38828131 238.45733065 -52.38828131 238.45733065 -51.28515625 231.35400391 C-48.79335606 215.29880205 -46.9359993 199.17573556 -45.05224609 183.03955078 C-41.9270183 156.34020035 -41.9270183 156.34020035 -39.8885498 145.63253784 C-38.34257845 137.28561178 -38.34257845 137.28561178 -40.375 129.3125 C-49.3127922 121.43873068 -61.40827982 118.7152338 -73 118 C-73 117.67 -73 117.34 -73 117 C-71.35 117 -69.7 117 -68 117 C-67.92652344 115.43765625 -67.92652344 115.43765625 -67.8515625 113.84375 C-67.77634523 112.39581753 -67.70080637 110.94790175 -67.625 109.5 C-67.5940625 108.82324219 -67.563125 108.14648438 -67.53125 107.44921875 C-67.27565575 102.72072512 -66.77007378 98.06193575 -66.15234375 93.3671875 C-65.09947107 85.31706109 -64.30618573 77.24465506 -63.52734375 69.1640625 C-63.4630014 68.49862679 -63.39865906 67.83319107 -63.33236694 67.14759064 C-62.72630626 60.87686169 -62.12586574 54.60559985 -61.52905273 48.33398438 C-61.26309777 45.54107927 -60.99504386 42.74839028 -60.7247467 39.9559021 C-60.47202553 37.34313085 -60.22260052 34.73003826 -59.97679138 32.11660767 C-59.86319778 30.94713593 -59.74960419 29.77766418 -59.63256836 28.57275391 C-59.48506386 27.02631699 -59.48506386 27.02631699 -59.33457947 25.44863892 C-59 23 -59 23 -58 21 C-58.99 20.67 -59.98 20.34 -61 20 C-59.92105469 19.84144531 -58.84210938 19.68289063 -57.73046875 19.51953125 C-37.89181004 16.48343563 -16.29169487 12.45056356 0 0 Z " fill="#B9E4FD" transform="translate(721,300)"/>
<path d="M0 0 C0.25007812 0.60457031 0.50015625 1.20914063 0.7578125 1.83203125 C2.18785771 4.32786487 3.42519693 5.22224043 5.875 6.6875 C6.55304688 7.10386719 7.23109375 7.52023437 7.9296875 7.94921875 C11.73364498 9.8799066 15.16511782 10.12666026 19.39804077 10.13803101 C21.0419429 10.14621101 21.0419429 10.14621101 22.71905518 10.15455627 C24.51593781 10.15611977 24.51593781 10.15611977 26.34912109 10.15771484 C28.29199216 10.16551465 30.23486322 10.17331849 32.17773366 10.18127275 C34.26544387 10.18898163 36.35314971 10.19436751 38.44086838 10.19923019 C42.80531548 10.2099439 47.16968595 10.23020158 51.53408813 10.25234985 C63.9450526 10.31414827 76.35601361 10.36813377 88.76708984 10.40136719 C95.62249789 10.41980432 102.4777783 10.44885855 109.33309233 10.4893719 C112.95415313 10.51030188 116.575054 10.52587892 120.19617844 10.52817917 C124.24994006 10.53075708 128.30326173 10.55637235 132.35693359 10.58349609 C134.12345276 10.57898689 134.12345276 10.57898689 135.92565918 10.5743866 C145.1413325 10.66532721 153.89280374 12.0714689 162.6960392 14.85135555 C173.5888038 18.16713159 184.97128261 17.42768445 196.24121094 17.40405273 C198.69975087 17.4097613 201.15828815 17.41672744 203.61682129 17.42485046 C209.58031283 17.44089033 215.54365262 17.44289287 221.50715086 17.43763756 C226.35990349 17.43358075 231.21262511 17.43505727 236.06537628 17.44038582 C237.10509466 17.44150845 237.10509466 17.44150845 238.16581745 17.44265376 C239.57439135 17.4441854 240.98296524 17.44572375 242.39153913 17.44726873 C255.57532745 17.46096917 268.75905629 17.45557393 281.94284323 17.44408352 C293.97200279 17.43415879 306.00100837 17.44708298 318.03014418 17.47101771 C330.41555322 17.49547342 342.80089073 17.50500043 355.1863234 17.49836498 C362.12617104 17.49488643 369.06590044 17.49701369 376.00572968 17.51461601 C382.53610955 17.53097584 389.06624506 17.52605617 395.59663391 17.50731087 C397.98295793 17.50364298 400.36930394 17.5066804 402.7556076 17.51719666 C415.88316081 17.57059751 427.42253455 16.88175269 440 13 C444.75160359 11.6477536 449.09064614 10.74981397 454.06455994 10.73498535 C455.20687576 10.72671219 456.34919159 10.71843903 457.52612305 10.70991516 C458.75492188 10.71089706 459.9837207 10.71187897 461.24975586 10.71289062 C463.2655243 10.70240186 465.28129274 10.69191258 467.29706109 10.68140411 C469.45051393 10.67206938 471.60392822 10.66757217 473.75739861 10.66447449 C478.25944303 10.65772399 482.76133991 10.63592682 487.26332092 10.61193848 C496.82134591 10.56310093 506.37940213 10.53069742 515.9375 10.5 C526.25507736 10.46685466 536.57259645 10.43082207 546.89008433 10.37586927 C551.35840324 10.35263049 555.82661902 10.33880746 560.29499233 10.33237457 C562.40874634 10.32784753 564.52242468 10.31882076 566.63615417 10.30781555 C569.20352439 10.2944744 571.77094434 10.2880299 574.33834839 10.29008484 C584.10634566 10.21951483 591.70229173 9.29640953 600 4 C599.39704855 7.41926897 598.18745677 9.37590463 595.9375 12 C595.11572266 12.99 595.11572266 12.99 594.27734375 14 C588.54797982 19.03161978 581.36674044 21.02212652 574.125 22.9375 C573.18317871 23.19055908 572.24135742 23.44361816 571.27099609 23.7043457 C560.55844509 26.49926653 549.7036524 28.51298707 538.81445312 30.48144531 C536.50979545 30.90607169 534.21537205 31.35565503 531.921875 31.8359375 C510.65480105 36.1924086 488.7675717 38.07056341 467.16015625 39.9609375 C461.03557417 40.50077475 454.96001518 41.1335459 448.87109375 41.98828125 C437.63280354 43.48797255 426.28683508 43.84368372 414.97094727 44.37768555 C411.12934735 44.55933906 407.28831892 44.75052897 403.44726562 44.94335938 C371.99137713 46.49541983 340.61357892 47.17812901 309.12440872 47.12897491 C306.39306896 47.12493427 303.66173126 47.12246154 300.9303894 47.12030029 C261.33349535 47.08428321 221.77419137 46.82215569 182.25292969 44.15106201 C179.9318786 43.99543237 177.61052379 43.84517877 175.2890625 43.69580078 C130.54171974 40.79246395 85.90544953 35.82661001 41.9375 26.875 C40.80900635 26.64562744 39.6805127 26.41625488 38.51782227 26.17993164 C9.10729809 19.93797831 9.10729809 19.93797831 1 10 C-0.1577506 6.52674819 -0.06866652 3.63932552 0 0 Z " fill="#BFE4FC" transform="translate(212,773)"/>
<path d="M0 0 C1.30791504 0.00499512 2.61583008 0.00999023 3.96337891 0.01513672 C15.38386761 0.21819875 25.65779471 2.01860193 36.5 5.5 C37.76070313 5.87640625 39.02140625 6.2528125 40.3203125 6.640625 C50.36857204 10.01137873 59.5770595 15.08927788 68.92648315 20.01495361 C88.37756227 30.25353947 107.30094562 37.05776519 129.5 36.5 C130.40234375 36.49484375 131.3046875 36.4896875 132.234375 36.484375 C149.56816111 35.79885804 165.13088204 28.00112953 180.3828125 20.4765625 C206.80361162 7.49342974 235.82322952 -0.11112324 264.9921875 8.53515625 C271.707476 10.90301875 279.11641236 13.73282471 282.5 20.5 C282.88049972 27.34899498 281.75474366 33.77815899 280.5 40.5 C275.45359388 39.63127632 270.67053811 38.00770004 265.82226562 36.40429688 C238.49891765 27.61330666 213.93123984 33.4541665 188.82226562 45.39648438 C156.38242216 60.81154876 123.25645785 68.80802943 88.28515625 56.734375 C77.27543344 52.7728675 66.84079374 47.9459764 56.5 42.5 C46.36231094 37.17051459 36.56334818 32.6541295 25.5 29.5 C24.43007813 29.1803125 23.36015625 28.860625 22.2578125 28.53125 C2.38914575 23.38540825 -18.66319483 25.33520847 -36.48828125 35.57421875 C-43.43737319 40.01767183 -49.53873626 44.88498168 -54.5 51.5 C-57.50524294 46.27239254 -57.79999567 40.39226948 -58.5 34.5 C-58.68369141 33.11748047 -58.68369141 33.11748047 -58.87109375 31.70703125 C-59.24308115 26.81046241 -58.6717009 24.07193571 -55.5 20.25 C-54.19996154 18.96540754 -52.86643286 17.71372938 -51.5 16.5 C-50.94441406 15.97792969 -50.38882812 15.45585937 -49.81640625 14.91796875 C-45.59354148 11.35345707 -40.81374857 9.06892153 -35.8125 6.8125 C-35.18996338 6.52689209 -34.56742676 6.24128418 -33.92602539 5.94702148 C-22.97505563 1.23522084 -11.83076033 -0.05997656 0 0 Z " fill="#1E2569" transform="translate(400.5,411.5)"/>
<path d="M0 0 C12.77741655 6.82269019 26.1046721 12.46819435 40.23706055 15.77612305 C40.96683105 15.95272461 41.69660156 16.12932617 42.44848633 16.3112793 C49.00399344 17.78108888 55.28257205 18.09050674 61.98706055 18.02612305 C63.05053711 18.01645508 64.11401367 18.00678711 65.2097168 17.99682617 C88.6188835 17.63954341 108.73032344 9.70910889 129.54730225 -0.34616089 C139.57296061 -5.17839357 149.34899555 -8.89814469 160.23706055 -11.22387695 C160.8482373 -11.40128418 161.45941406 -11.57869141 162.08911133 -11.76147461 C164.73122653 -12.33025913 167.17511848 -12.33590856 169.87768555 -12.3215332 C171.48256836 -12.31669922 171.48256836 -12.31669922 173.11987305 -12.31176758 C174.23104492 -12.30338867 175.3422168 -12.29500977 176.48706055 -12.28637695 C178.17702148 -12.27960938 178.17702148 -12.27960938 179.90112305 -12.27270508 C182.67982272 -12.26093093 185.45841464 -12.24448535 188.23706055 -12.22387695 C187.92595426 -9.36955225 187.61321628 -6.5154217 187.29956055 -3.66137695 C187.21254883 -2.86151367 187.12553711 -2.06165039 187.03588867 -1.23754883 C186.51944602 3.44869002 185.93184524 8.11292851 185.23706055 12.77612305 C184.58447266 12.80528809 183.93188477 12.83445312 183.25952148 12.86450195 C169.0231783 13.57008604 156.06210078 15.19830557 142.59790039 19.9440918 C140.15998892 20.80328542 137.71056959 21.62031374 135.2565918 22.43237305 C133.68682131 22.96137294 132.11777605 23.49253108 130.54956055 24.02612305 C129.46094727 24.39495605 129.46094727 24.39495605 128.3503418 24.77124023 C124.58367714 25.88205229 124.58367714 25.88205229 122.23706055 28.77612305 C116.71877439 31.34276777 110.68970532 32.34390414 104.7175293 33.2487793 C102.27367291 33.64957754 102.27367291 33.64957754 100.41259766 34.74438477 C97.9092567 35.93158249 95.68083005 36.36393646 92.94799805 36.8112793 C91.92319336 36.98079102 90.89838867 37.15030273 89.8425293 37.32495117 C88.77647461 37.49446289 87.71041992 37.66397461 86.61206055 37.83862305 C85.56920898 38.01200195 84.52635742 38.18538086 83.4519043 38.36401367 C71.99147317 40.23116256 60.91779061 40.95785145 49.29956055 40.96362305 C48.00598633 40.97586914 46.71241211 40.98811523 45.37963867 41.00073242 C38.56288347 41.01108699 32.19440028 40.6343277 25.51806641 39.24169922 C22.84201336 38.69548995 20.21242225 38.47827667 17.48706055 38.33862305 C12.86061874 37.96562845 9.45961835 36.77224128 5.23706055 34.77612305 C1.92610103 33.69688698 -1.41294553 32.72652374 -4.76293945 31.77612305 C-4.76293945 31.11612305 -4.76293945 30.45612305 -4.76293945 29.77612305 C-6.74293945 29.44612305 -8.72293945 29.11612305 -10.76293945 28.77612305 C-10.76293945 28.11612305 -10.76293945 27.45612305 -10.76293945 26.77612305 C-11.54797852 26.59436523 -12.33301758 26.41260742 -13.1418457 26.2253418 C-18.95719517 24.83393916 -24.36298804 23.35337258 -29.76293945 20.77612305 C-29.76293945 20.11612305 -29.76293945 19.45612305 -29.76293945 18.77612305 C-30.67043945 18.63174805 -31.57793945 18.48737305 -32.51293945 18.33862305 C-34.97770901 17.91202832 -37.35141053 17.42538083 -39.76293945 16.77612305 C-39.76293945 16.11612305 -39.76293945 15.45612305 -39.76293945 14.77612305 C-41.64239258 14.57696289 -41.64239258 14.57696289 -43.55981445 14.3737793 C-45.21087192 14.19554014 -46.86191272 14.01714664 -48.51293945 13.83862305 C-49.33793945 13.75161133 -50.16293945 13.66459961 -51.01293945 13.57495117 C-51.8121582 13.48793945 -52.61137695 13.40092773 -53.43481445 13.3112793 C-54.16796875 13.23272705 -54.90112305 13.1541748 -55.65649414 13.07324219 C-57.76293945 12.77612305 -57.76293945 12.77612305 -59.64282227 12.26196289 C-74.98752617 8.7456155 -93.62764819 11.13498228 -108.1496582 16.46362305 C-111.76293945 17.77612305 -111.76293945 17.77612305 -114.76293945 17.77612305 C-115.09293945 18.76612305 -115.42293945 19.75612305 -115.76293945 20.77612305 C-116.94068964 15.29141778 -117.99469533 10.13976271 -115.31762695 5.00268555 C-84.61819228 -30.90772327 -36.10055668 -19.44727872 0 0 Z " fill="#ADF4FD" transform="translate(461.762939453125,455.223876953125)"/>
<path d="M0 0 C8.81120092 6.27980618 17.7326168 15.5542411 19.80859375 26.57421875 C20.847833 40.27196941 19.12924535 51.58722957 10.28125 62.44921875 C5.81899524 67.32095101 0.84034247 70.00931626 -5.19140625 72.57421875 C-5.85398437 72.89519531 -6.5165625 73.21617187 -7.19921875 73.546875 C-17.79757976 78.0148115 -31.82741728 76.62088648 -42.359375 72.83203125 C-53.61638584 67.83236575 -60.40353472 60.31431833 -65.24609375 49.08984375 C-69.12260674 38.77383397 -67.60279527 28.48266575 -63.19140625 18.57421875 C-57.2873438 7.21473081 -47.82363601 0.43921788 -36.19140625 -4.42578125 C-24.47695942 -7.86471856 -10.16409257 -6.61300141 0 0 Z " fill="#1D256B" transform="translate(446.19140625,493.42578125)"/>
<path d="M0 0 C11.24231505 7.2623714 18.84145636 17.35007661 21.828125 30.3828125 C23.04053688 42.02196651 21.30576802 52.78291144 14.0390625 62.2265625 C6.43062777 70.86824145 -2.31853268 75.55287582 -13.89697266 76.56005859 C-27.73856082 77.30919228 -38.99865962 75.655915 -49.859375 66.3828125 C-57.94154502 58.8678123 -63.1156924 49.78276843 -64.09765625 38.69140625 C-64.41024106 26.59930951 -60.85417942 16.51973184 -52.859375 7.3828125 C-38.94477266 -6.31771904 -17.30110613 -9.19546979 0 0 Z " fill="#1D266A" transform="translate(623.859375,492.6171875)"/>
<path d="M0 0 C7.54567421 0.63157626 14.83431217 2.12523115 22.20947266 3.79150391 C24.22988343 4.24547991 26.25330698 4.68361048 28.27734375 5.12109375 C52.82526509 10.55399614 52.82526509 10.55399614 59 18 C59.375 20.9375 59.375 20.9375 58 24 C37.16379434 46.12793809 -12.44437119 45.7246966 -40 48 C-42.10940467 48.18455705 -44.21878134 48.36943443 -46.328125 48.5546875 C-52.88061071 49.11298281 -59.43839325 49.56402158 -66 50 C-67.30066406 50.09168457 -68.60132813 50.18336914 -69.94140625 50.27783203 C-125.40985639 54.13015948 -182.71272555 54.15030035 -238 48 C-238 47.67 -238 47.34 -238 47 C-237.41071716 46.95654953 -236.82143433 46.91309906 -236.21429443 46.86833191 C-202.34321159 44.48029009 -202.34321159 44.48029009 -168.55810547 41.14306641 C-161.38574938 40.32302447 -154.2095868 39.66023426 -147.015625 39.06640625 C-145.53858597 38.94431793 -145.53858597 38.94431793 -144.03170776 38.81976318 C-143.03301666 38.73728333 -142.03432556 38.65480347 -141.00537109 38.56982422 C-123.32431452 37.10935154 -105.8434721 35.46157775 -88.35498047 32.39648438 C-85.2683761 31.87682384 -82.16942926 31.50159749 -79.0625 31.125 C-62.10441761 28.73266129 -45.1868338 24.57044113 -29 19 C-27.79472656 18.62359375 -26.58945312 18.2471875 -25.34765625 17.859375 C-17.91808407 15.43931892 -11.87926603 12.3230906 -5.5234375 7.76953125 C-3.39139699 6.27446259 -1.36054352 5.08053048 1 4 C0.67 2.68 0.34 1.36 0 0 Z " fill="#BAE3FC" transform="translate(650,247)"/>
<path d="M0 0 C3.6578218 2.03993908 5.66946174 3.50419262 8 7 C9.64488689 15.33514798 6.48720776 22.12085092 2 29 C-3.50815742 36.06666707 -9.64170497 39.96172925 -18 43 C-18.87785156 43.36609375 -19.75570312 43.7321875 -20.66015625 44.109375 C-25.37668481 45.36711595 -29.889655 45.32892008 -34.75 45.3125 C-35.6884375 45.32861328 -36.626875 45.34472656 -37.59375 45.36132812 C-49.68079594 45.36967553 -59.90589639 41.5066002 -68.88671875 33.26953125 C-75.00600509 26.53369212 -78.49772898 18.63549187 -78.32421875 9.51953125 C-77.99820132 6.9860223 -77.58811483 5.49361954 -76.1875 3.375 C-72.15767941 0.37238858 -69.52223576 0.13088571 -64.58203125 0.421875 C-61.43036531 1.12754302 -59.87715493 2.45439414 -58.09765625 5.15234375 C-57.73542969 5.76207031 -57.37320312 6.37179687 -57 7 C-52.84109031 13.04396791 -48.7539383 18.4153539 -41.5625 20.8125 C-32.97605168 21.44077671 -27.22621109 20.75997459 -19.9375 16 C-16.32362733 12.79970404 -14.09866333 8.56786902 -11.7109375 4.42578125 C-8.61287734 0.03332609 -5.22520081 -0.6270241 0 0 Z " fill="#1D286B" transform="translate(548,575)"/>
<path d="M0 0 C4.26273444 3.00037961 6.11472822 6.83442646 7.375 11.8125 C8.12132767 16.97459973 7.97691842 20.60866316 5.625 25.3125 C3.57073231 27.59501966 2.23398185 28.79143505 -0.625 29.8125 C-0.625 30.4725 -0.625 31.1325 -0.625 31.8125 C-1.82768681 32.46878849 -3.03752554 33.11197505 -4.25 33.75 C-5.25933594 34.28947266 -5.25933594 34.28947266 -6.2890625 34.83984375 C-15.21474021 38.55638848 -27.28925226 37.99134823 -36.3046875 34.8671875 C-41.59129486 32.46418416 -46.7787247 29.21637143 -50.625 24.8125 C-52.72117165 19.18593399 -54.12722643 13.35208073 -51.71484375 7.66796875 C-46.8416136 -0.77791888 -39.56166219 -3.23656376 -30.625 -5.75 C-20.37381322 -7.99244711 -9.07511496 -4.87618117 0 0 Z " fill="#FBD6DA" transform="translate(436.625,582.1875)"/>
<path d="M0 0 C0.81984375 0.59296875 1.6396875 1.1859375 2.484375 1.796875 C3.31453125 2.37953125 4.1446875 2.9621875 5 3.5625 C9.72112762 7.75538956 10.86212794 11.95526515 11.296875 18.05078125 C11.16877855 23.16663318 9.17310416 26.48462884 5.859375 30.234375 C4.993125 30.9975 4.126875 31.760625 3.234375 32.546875 C2.533125 33.248125 1.831875 33.949375 1.109375 34.671875 C-7.0827926 40.014593 -17.2609149 40.61106867 -26.765625 39.546875 C-35.34577201 37.63157724 -41.64909744 34.10934838 -47.19921875 27.23046875 C-49.74075583 22.87626433 -50.03449996 19.39239126 -48.765625 14.546875 C-45.7419085 7.3529495 -40.41155481 2.62911232 -33.515625 -0.765625 C-24.5135802 -4.16365713 -8.56138534 -4.49835501 0 0 Z " fill="#FBD5D8" transform="translate(629.765625,579.453125)"/>
<path d="M0 0 C4.08726439 2.42490686 7.12029016 5.06324774 9.78125 9.0546875 C10.19375 9.6528125 10.60625 10.2509375 11.03125 10.8671875 C12.70734433 15.75579597 12.13422319 19.95861286 10.59375 24.7421875 C7.54637285 30.31153194 3.80240717 33.9361322 -2.21875 36.0546875 C-7.49068714 36.69990966 -11.76134936 36.75639892 -16.59375 34.4296875 C-21.00604142 30.43761431 -25.5047496 26.05308972 -26.58984375 19.9765625 C-26.78025451 13.74901052 -25.18221697 9.8434243 -21.21875 5.0546875 C-15.37471886 -0.49714208 -7.77185901 -3.31124979 0 0 Z " fill="#F9FAFC" transform="translate(598.21875,498.9453125)"/>
<path d="M0 0 C4.31633181 3.18586395 7.91120739 6.79612218 9.625 11.9375 C10.42442758 17.54361237 10.11461249 21.91893376 7.125 26.8125 C3.30465377 31.85571407 -0.59335611 34.3112405 -6.828125 35.34375 C-13.24240946 35.73726438 -17.49892189 34.05908104 -22.375 29.9375 C-27.13822596 24.93000604 -27.85485276 20.2896673 -27.78515625 13.5390625 C-26.87731042 7.7807261 -22.80527731 4.29966887 -18.75 0.4375 C-12.69973463 -2.25150683 -6.2627472 -1.9716056 0 0 Z " fill="#FAFAFD" transform="translate(428.375,500.0625)"/>
<path d="M0 0 C3.97190025 2.31560176 6.88901139 6.04364778 8.9296875 10.125 C9.48643715 16.07793853 9.47109868 21.09848091 5.9296875 26.125 C1.61911606 30.45595239 -1.92378003 33.19160292 -8.1953125 33.5625 C-13.99440298 33.50564617 -17.78741288 30.83033017 -22.0703125 27.125 C-25.78550832 22.9454047 -26.34421938 17.57823688 -26.0703125 12.125 C-24.51737411 6.74944403 -21.78066414 3.18672857 -17.0703125 0.125 C-16.1421875 -0.49375 -16.1421875 -0.49375 -15.1953125 -1.125 C-10.00403056 -2.95721715 -4.96477323 -2.00909111 0 0 Z " fill="#F8FDFE" transform="translate(606.0703125,663.875)"/>
<path d="M0 0 C10.18045425 0.7818045 19.85195068 4.28453027 29.27734375 8.0546875 C27.79234375 19.9346875 27.79234375 19.9346875 26.27734375 32.0546875 C25.94734375 31.3946875 25.61734375 30.7346875 25.27734375 30.0546875 C24.26671875 29.9103125 23.25609375 29.7659375 22.21484375 29.6171875 C18.27734375 29.0546875 18.27734375 29.0546875 14.77734375 27.6171875 C8.63222596 25.12987792 1.81968595 24.77877485 -4.72265625 24.0546875 C-4.82527767 18.84151953 -4.4560626 13.84709384 -3.78515625 8.6796875 C-3.69814453 7.95652344 -3.61113281 7.23335938 -3.52148438 6.48828125 C-2.71069572 0.08605383 -2.71069572 0.08605383 0 0 Z " fill="#4DC9FA" transform="translate(651.72265625,443.9453125)"/>
<path d="M0 0 C3.15955095 2.1815947 4.80451702 3.38158977 6.625 6.8125 C7.36312301 12.24297645 7.63607719 17.04311492 4.875 21.875 C4.1325 22.514375 3.39 23.15375 2.625 23.8125 C2.03976562 24.33714844 1.45453125 24.86179687 0.8515625 25.40234375 C-3.44368182 28.12266515 -8.49163784 27.49891637 -13.375 26.8125 C-17.31858076 25.08957637 -19.1319775 22.22015065 -21.3125 18.5625 C-22.61535692 13.96418146 -22.65239295 10.41284081 -21.375 5.8125 C-16.44460804 -2.17813525 -8.44346332 -2.97084821 0 0 Z " fill="#A7F4FE" transform="translate(413.375,637.1875)"/>
<path d="M0 0 C3.42545988 2.07435041 5.70592195 4.11776586 7 8 C7.40109454 12.25160217 7.26378256 14.5006973 5.25 18.3125 C1.96359018 22.23793395 1.96359018 22.23793395 -1 23 C-5.58037182 23 -7.45711706 22.47357873 -10.9375 19.4375 C-13.73507781 15.59660109 -13.58947232 12.64209451 -13 8 C-10.33182144 1.99659825 -6.71602784 -1.07456445 0 0 Z " fill="#FAFEFD" transform="translate(459,631)"/>
<path d="M0 0 C4.6 2.2 4.6 2.2 6 5 C6.50872093 11.10465114 6.06705978 14.11952826 2 19 C-1.49565336 21.33043558 -2.8865729 21.58763244 -7 21 C-9.25 18.6875 -9.25 18.6875 -11 16 C-11.66 15.01 -12.32 14.02 -13 13 C-13.53665542 8.97508435 -13.14921994 7.2636219 -11.125 3.6875 C-7.7416694 -0.59141812 -5.33162501 -0.3614661 0 0 Z " fill="#F7FEFD" transform="translate(500,527)"/>
<path d="M0 0 C0 0.66 0 1.32 0 2 C2.97 2.495 2.97 2.495 6 3 C6 3.66 6 4.32 6 5 C5.02160156 4.67515625 5.02160156 4.67515625 4.0234375 4.34375 C-0.77521132 2.81497692 -4.89921898 1.59730676 -10 2 C-10 1.34 -10 0.68 -10 0 C-11.13888672 -0.09087891 -11.13888672 -0.09087891 -12.30078125 -0.18359375 C-13.29464844 -0.26738281 -14.28851563 -0.35117187 -15.3125 -0.4375 C-16.29863281 -0.51871094 -17.28476562 -0.59992188 -18.30078125 -0.68359375 C-21 -1 -21 -1 -24 -2 C-38.16613165 -2.94156036 -51.7753998 -2.37949838 -65 3 C-66.134375 3.309375 -67.26875 3.61875 -68.4375 3.9375 C-71.07267098 4.7190724 -71.07267098 4.7190724 -71.9375 6.6875 C-72.02318968 9.85801816 -71.45416264 12.86167154 -71 16 C-70.74746248 18.32936116 -70.50826045 20.66020018 -70.28125 22.9921875 C-70.15363281 24.27351563 -70.02601563 25.55484375 -69.89453125 26.875 C-69.69516224 28.88946802 -69.49718997 30.90404395 -69.30224609 32.91894531 C-69.11169012 34.88124625 -68.91531789 36.84297967 -68.71875 38.8046875 C-68.60466797 39.96983887 -68.49058594 41.13499023 -68.37304688 42.33544922 C-68.2844025 44.91634272 -68.2844025 44.91634272 -67 46 C-66.80861861 47.85002015 -66.67412022 49.70595958 -66.5625 51.5625 C-66.02119329 59.42017807 -65.03196703 67.19512315 -64 75 C-64.99 75.495 -64.99 75.495 -66 76 C-68.01303573 61.66847487 -70.01568468 47.33553211 -72 33 C-72.10048645 32.27443909 -72.2009729 31.54887817 -72.30450439 30.80133057 C-72.83672961 26.95203037 -73.35984056 23.10161917 -73.875 19.25 C-73.99464111 18.37980225 -74.11428223 17.50960449 -74.23754883 16.61303711 C-74.8407553 12.029318 -75.11126401 7.62363769 -75 3 C-50.23208881 -6.73262799 -25.65231703 -5.97309669 0 0 Z " fill="#7BDBF2" transform="translate(422,470)"/>
<path d="M0 0 C3.0625 2.0625 3.0625 2.0625 5 5 C5.1875 8.5625 5.1875 8.5625 4 12 C0.69675826 15.14594451 -1.04802963 16 -5.625 16 C-9.35510986 14.89478226 -10.86486008 14.24541268 -13 11 C-13.5625 7.5 -13.5625 7.5 -13 4 C-9.45296743 -0.32294595 -5.30735024 -1.21738014 0 0 Z " fill="#EDCDD2" transform="translate(627,529)"/>
<path d="M0 0 C3 1.5 3 1.5 5 4 C5.70661959 6.82647835 5.71781314 9.17505796 5 12 C2.48110147 14.96341004 0.86615726 15.8341401 -2.9375 16.5625 C-7.22140391 15.77566051 -9.113795 14.22980084 -12 11 C-12.69955049 7.01256219 -12.62780647 5.02018552 -10.5 1.5625 C-7.02088519 -0.61194676 -3.93332798 -0.74772175 0 0 Z " fill="#F2CFD8" transform="translate(448,529)"/>
<path d="M0 0 C1.65 0.33 3.3 0.66 5 1 C5.44622327 10.77001149 4.0657224 20.17475047 2.6875 29.8125 C2.4544381 31.48167026 2.22210364 33.15094225 1.99047852 34.8203125 C1.535722 38.09118328 1.07732615 41.36150522 0.61523438 44.63134766 C-0.13116427 49.91814889 -0.84825871 55.20877345 -1.5625 60.5 C-3.35727771 73.66908379 -5.18092057 86.8342563 -7 100 C-7.33 100 -7.66 100 -8 100 C-8.35931559 79.71863118 -8.35931559 79.71863118 -6 75 C-5.81564968 73.06578477 -5.67742064 71.12707904 -5.5625 69.1875 C-4.33330635 51.66661269 -4.33330635 51.66661269 -2 47 C-1.72082258 45.07955902 -1.48896999 43.15213442 -1.28125 41.22265625 C-1.08982422 39.49305664 -1.08982422 39.49305664 -0.89453125 37.72851562 C-0.76433594 36.51873047 -0.63414062 35.30894531 -0.5 34.0625 C-0.24256729 31.67806137 0.0177174 29.29392842 0.28125 26.91015625 C0.39533203 25.84933838 0.50941406 24.78852051 0.62695312 23.69555664 C1 21 1 21 2 18 C2.07029121 15.42734182 2.09370832 12.88358569 2.0625 10.3125 C2.05798828 9.61060547 2.05347656 8.90871094 2.04882812 8.18554688 C2.03706927 6.45699462 2.01913454 4.72848635 2 3 C1.34 2.67 0.68 2.34 0 2 C0 1.34 0 0.68 0 0 Z " fill="#3BA9ED" transform="translate(672,473)"/>
<path d="M0 0 C0.66 0 1.32 0 2 0 C2 4.95 2 9.9 2 15 C2.66 15 3.32 15 4 15 C4.06058594 15.84304688 4.12117188 16.68609375 4.18359375 17.5546875 C4.26738281 18.65039062 4.35117187 19.74609375 4.4375 20.875 C4.55931641 22.51082031 4.55931641 22.51082031 4.68359375 24.1796875 C4.83001703 26.94728971 4.83001703 26.94728971 6 29 C6.31648391 32.3406635 6.51128525 35.68217611 6.71875 39.03125 C6.81288062 41.9264801 6.81288062 41.9264801 8 44 C8.20466634 45.97559868 8.36549059 47.95588811 8.5 49.9375 C8.7240646 53.23044938 8.95387694 55.86163082 10 59 C10.258753 62.45722763 10.44288042 65.90856444 10.60546875 69.37109375 C10.47120355 72.98793121 10.47120355 72.98793121 12 76 C13.03361631 83.6308957 13.13619034 91.3128119 13 99 C12.67 99 12.34 99 12 99 C11.68681275 96.63002224 11.37364059 94.26004248 11.06048584 91.89006042 C10.77841307 89.75538216 10.49630753 87.62070823 10.21417236 85.48603821 C9.42678231 79.52769852 8.64024789 73.56924771 7.85522461 67.6105957 C5.84113672 52.32288148 5.84113672 52.32288148 3.79231262 37.03979492 C3.32146755 33.55836913 2.85412227 30.07647774 2.38705444 26.59454346 C2.17249374 25.00326367 1.95607456 23.41223325 1.73770142 21.82147217 C1.43630607 19.62507807 1.14131423 17.42790866 0.84765625 15.23046875 C0.68273682 14.01770264 0.51781738 12.80493652 0.34790039 11.55541992 C-0.03300291 7.66272188 -0.05836389 3.90876685 0 0 Z " fill="#67CAEE" transform="translate(365,608)"/>
<path d="M0 0 C3.5625 0.375 3.5625 0.375 5.5625 2.0625 C6.84050253 5.01788086 6.64301862 6.36498383 5.5625 9.375 C3.8998669 11.78581799 3.00580589 12.28406546 0.125 12.875 C-2.4375 12.375 -2.4375 12.375 -4.8125 10.1875 C-6.4375 7.375 -6.4375 7.375 -6.3125 4.6875 C-4.89712562 0.9468677 -4.01076925 0.43753846 0 0 Z " fill="#E7FCFE" transform="translate(490.4375,655.625)"/>
<path d="M0 0 C9.11864049 -0.91186405 15.80282118 2.28373772 23.1796875 7.55859375 C30.40503574 13.52803382 36.71815094 21.82074355 39 31 C39.23262303 34.79598498 39.18876204 38.57380154 39.125 42.375 C39.11597656 43.39722656 39.10695313 44.41945313 39.09765625 45.47265625 C39.0742043 47.98201522 39.04138355 50.49088336 39 53 C38.34 53 37.68 53 37 53 C37.05800781 51.69546875 37.11601562 50.3909375 37.17578125 49.046875 C37.5326879 37.53883876 37.4005665 27.69242863 29.828125 18.30859375 C28 16 28 16 28 14 C27.443125 13.7525 26.88625 13.505 26.3125 13.25 C24 12 24 12 21.6875 10.125 C14.86741505 4.73237469 8.4247427 2.8260526 0 1 C0 0.67 0 0.34 0 0 Z " fill="#6BC8F1" transform="translate(428,487)"/>
<path d="M0 0 C0.99 0.495 0.99 0.495 2 1 C2.28696929 3.50580398 2.46732761 5.92355619 2.5625 8.4375 C2.59767285 13.36923374 2.59767285 13.36923374 4 18 C4.20466634 19.97559868 4.36549059 21.95588811 4.5 23.9375 C4.7240646 27.23044938 4.95387694 29.86163082 6 33 C6.30486441 36.12486016 6.50841216 39.25028111 6.71875 42.3828125 C6.71496985 44.92413861 6.71496985 44.92413861 8 46 C8.07313567 48.53049402 8.09247527 51.03304837 8.0625 53.5625 C8.05798828 54.27341797 8.05347656 54.98433594 8.04882812 55.71679688 C8.03700864 57.47790013 8.01907263 59.23896036 8 61 C7.67 61 7.34 61 7 61 C6.92483154 60.40799805 6.84966309 59.81599609 6.7722168 59.20605469 C5.30163938 47.66819103 3.77634206 36.14503439 2.00268555 24.64941406 C-0.1482439 10.67356096 -0.1482439 10.67356096 -0.0625 4.5 C-0.05347656 3.6440625 -0.04445313 2.788125 -0.03515625 1.90625 C-0.02355469 1.2771875 -0.01195312 0.648125 0 0 Z " fill="#70D3F0" transform="translate(357,546)"/>
<path d="M0 0 C0 0.33 0 0.66 0 1 C-5.03854106 1.83211276 -9.8125662 2.1078534 -14.9375 2.0625 C-15.62134766 2.05798828 -16.30519531 2.05347656 -17.00976562 2.04882812 C-18.67321604 2.0371956 -20.3366205 2.01926694 -22 2 C-22 2.99 -22 3.98 -22 5 C-32.06354218 5.12847075 -41.96724089 4.79692838 -52 4 C-52 3.67 -52 3.34 -52 3 C-46.52356111 2.56680063 -41.0466835 2.13981674 -35.56933594 1.71826172 C-33.71113429 1.57440717 -31.85305686 1.42893768 -29.99511719 1.28173828 C-19.98694443 0.48991837 -10.04958287 -0.27958654 0 0 Z " fill="#CCE1F4" transform="translate(464,291)"/>
<path d="M0 0 C0.67001038 0.0014502 1.34002075 0.00290039 2.03033447 0.00439453 C2.70018372 0.00294434 3.37003296 0.00149414 4.06018066 0 C16.4494301 0.00296402 28.21409351 1.56979165 40.28033447 4.37939453 C40.28033447 5.03939453 40.28033447 5.69939453 40.28033447 6.37939453 C42.26033447 6.70939453 44.24033447 7.03939453 46.28033447 7.37939453 C46.28033447 8.03939453 46.28033447 8.69939453 46.28033447 9.37939453 C45.30193604 9.05455078 45.30193604 9.05455078 44.30377197 8.72314453 C39.50512315 7.19437146 35.3811155 5.97670129 30.28033447 6.37939453 C30.28033447 5.71939453 30.28033447 5.05939453 30.28033447 4.37939453 C29.14144775 4.28851563 29.14144775 4.28851563 27.97955322 4.19580078 C26.98568604 4.11201172 25.99181885 4.02822266 24.96783447 3.94189453 C23.98170166 3.86068359 22.99556885 3.77947266 21.97955322 3.69580078 C19.28033447 3.37939453 19.28033447 3.37939453 16.28033447 2.37939453 C13.99648277 2.29560826 11.71023347 2.27209538 9.42486572 2.28173828 C8.76322922 2.28315323 8.10159271 2.28456818 7.41990662 2.286026 C5.31083619 2.29161457 3.2018727 2.30416488 1.09283447 2.31689453 C-0.33880462 2.32191101 -1.77044537 2.32647366 -3.2020874 2.33056641 C-6.70798141 2.34158023 -10.21381303 2.35883698 -13.71966553 2.37939453 C-10.1762735 -1.1639975 -4.80388117 0.0011789 0 0 Z " fill="#83E4F9" transform="translate(381.71966552734375,465.62060546875)"/>
<path d="M0 0 C10.69312977 0.41526718 10.69312977 0.41526718 15 5 C16.87740056 8.75480111 16.34965287 12.81655953 15.1875 16.75 C14.02283686 18.95673017 12.87882594 20.3773776 11 22 C10.34 21.67 9.68 21.34 9 21 C9.99 19.7625 9.99 19.7625 11 18.5 C13.62143414 14.57251326 13.53271595 11.64223901 13 7 C11.45661909 4.82523599 10.36334727 4.18167363 8 3 C3.07505833 2.53552403 3.07505833 2.53552403 -1.3125 4.5 C-3.61600764 7.91260391 -4.19371377 10.96856883 -5 15 C-5.66 14.34 -6.32 13.68 -7 13 C-6.68202585 9.34329724 -6.13596874 6.035324 -4 3 C-1.875 2.25 -1.875 2.25 0 2 C0 1.34 0 0.68 0 0 Z " fill="#78DCF3" transform="translate(492,525)"/>
<path d="M0 0 C0.33 0 0.66 0 1 0 C1.70391726 4.79594536 2.3970427 9.59329982 3.08129883 14.39208984 C3.31420048 16.01553731 3.54976731 17.63860523 3.78833008 19.26123047 C5.48785292 30.83810698 6.53925724 42.30745028 7 54 C5.48708874 51.25696105 4.7066796 49.03908936 4.40234375 45.92578125 C4.32306641 45.17619141 4.24378906 44.42660156 4.16210938 43.65429688 C4.08798828 42.88150391 4.01386719 42.10871094 3.9375 41.3125 C3.87223818 36.24946528 3.87223818 36.24946528 2 32 C1.77232143 30.48706938 1.60517713 28.96492295 1.46484375 27.44140625 C1.37783203 26.49716797 1.29082031 25.55292969 1.20117188 24.58007812 C1.0706543 23.08637695 1.0706543 23.08637695 0.9375 21.5625 C0.84662109 20.60150391 0.75574219 19.64050781 0.66210938 18.65039062 C0.10297659 12.41584985 -0.11581489 6.25829345 0 0 Z " fill="#DBFCFE" transform="translate(351,510)"/>
<path d="M0 0 C0 3.26656076 -0.11558061 4.37819911 -2 7 C-11.81624115 12.33491367 -25.45350392 15.44587223 -36.375 12.3203125 C-38.3125 11.5 -38.3125 11.5 -41 10 C-37.58830262 8.86276754 -36.44309436 9.27798164 -33 10 C-25.36541267 10.39221894 -18.29963742 10.34631203 -11 8 C-9.2675 7.443125 -9.2675 7.443125 -7.5 6.875 C-6.675 6.58625 -5.85 6.2975 -5 6 C-5 5.34 -5 4.68 -5 4 C-3.37373596 2.61767557 -1.7074998 1.28062485 0 0 Z " fill="#74CAEA" transform="translate(441,608)"/>
<path d="M0 0 C-0.87011719 0.69222656 -0.87011719 0.69222656 -1.7578125 1.3984375 C-11.50891618 9.54044816 -17.04694696 19.04877635 -18.3984375 31.7421875 C-18.65298697 35.161406 -18.85685869 38.57448028 -19 42 C-19.33 42 -19.66 42 -20 42 C-20.56816448 26.40704147 -18.19695205 14.97970502 -8.3125 2.4375 C-5.3240814 -0.71245475 -4.17178286 -1.39059429 0 0 Z " fill="#6CCFF4" transform="translate(398,496)"/>
<path d="M0 0 C0.76763672 -0.00128906 1.53527344 -0.00257813 2.32617188 -0.00390625 C3.51629883 0.00189453 3.51629883 0.00189453 4.73046875 0.0078125 C5.90319336 0.00201172 5.90319336 0.00201172 7.09960938 -0.00390625 C14.84054928 0.00902765 20.6518652 0.39502689 26.91796875 5.1328125 C26.25796875 5.4628125 25.59796875 5.7928125 24.91796875 6.1328125 C23.97050781 5.66359375 23.02304687 5.194375 22.046875 4.7109375 C16.82778136 2.33849939 11.48356462 2.77319651 5.85546875 2.8828125 C4.79263672 2.88796875 3.72980469 2.893125 2.63476562 2.8984375 C-2.36566034 2.94841053 -7.17179963 3.07758075 -12.08203125 4.1328125 C-8.14524538 0.89902411 -5.0427092 0.00825997 0 0 Z " fill="#DADBEC" transform="translate(606.08203125,576.8671875)"/>
<path d="M0 0 C3.31336654 3.31336654 2.40984267 7.56050182 2.4375 12.0625 C2.47037109 12.97966797 2.50324219 13.89683594 2.53710938 14.84179688 C2.61305476 24.58351857 -1.66540292 30.94144897 -8 38 C-8.66 37.67 -9.32 37.34 -10 37 C-9.52949219 36.42894531 -9.05898438 35.85789062 -8.57421875 35.26953125 C-0.24133776 24.41780838 0.54038431 13.34949381 0 0 Z " fill="#3696EA" transform="translate(645,520)"/>
<path d="M0 0 C0.66 0.33 1.32 0.66 2 1 C-4.23706676 7.23706676 -12.66246593 8.17372892 -21.125 8.375 C-27.0026027 8.25848365 -31.58520654 7.24060419 -37 5 C-33.98968256 4.06576355 -33.13349732 3.95550089 -30 5 C-20.1480851 5.9053921 -9.714877 6.24155645 -1 1 C-0.67 0.67 -0.34 0.34 0 0 Z " fill="#D3D8F1" transform="translate(631,611)"/>
<path d="M0 0 C0.495 0.99 0.495 0.99 1 2 C0.67 2.99 0.34 3.98 0 5 C-0.66 5 -1.32 5 -2 5 C-2.2784375 5.8971875 -2.2784375 5.8971875 -2.5625 6.8125 C-5.55210897 11.36190495 -12.12676477 12.58287137 -17.24609375 13.66015625 C-23.12672348 14.38585098 -29.08732557 14.14022153 -35 14 C-35 13.67 -35 13.34 -35 13 C-34.11699219 12.96261719 -33.23398437 12.92523437 -32.32421875 12.88671875 C-21.3001712 12.28282356 -11.61010261 11.35446265 -3 4 C-1.11696038 1.85823993 -1.11696038 1.85823993 0 0 Z " fill="#4BA4E5" transform="translate(638,606)"/>
<path d="M0 0 C1.13566406 -0.00128906 2.27132812 -0.00257813 3.44140625 -0.00390625 C5.19904297 0.00189453 5.19904297 0.00189453 6.9921875 0.0078125 C8.76142578 0.00201172 8.76142578 0.00201172 10.56640625 -0.00390625 C11.69949219 -0.00261719 12.83257813 -0.00132812 14 0 C15.03012207 0.00112793 16.06024414 0.00225586 17.12158203 0.00341797 C19.53818437 0.11730728 21.56046164 0.43838113 23.8671875 1.1328125 C23.8671875 2.1228125 23.8671875 3.1128125 23.8671875 4.1328125 C23.09761719 3.91625 23.09761719 3.91625 22.3125 3.6953125 C8.60099658 0.37131167 -4.43482479 0.85112247 -17.1328125 7.1328125 C-15.96903013 3.64146538 -15.23782506 2.97903618 -12.1328125 1.1328125 C-8.05229445 0.27918688 -4.1620831 0.0045473 0 0 Z " fill="#6DCCF3" transform="translate(596.1328125,486.8671875)"/>
<path d="M0 0 C0.66 0.33 1.32 0.66 2 1 C1.69964844 1.49886719 1.39929688 1.99773438 1.08984375 2.51171875 C-2.60567403 9.4893574 -2.09133705 15.32505361 -1 23 C-0.34 23 0.32 23 1 23 C2.625 25.5 2.625 25.5 4 28 C1.10371669 26.7016661 -1.0679604 25.54677947 -3 23 C-4.80806674 18.14676822 -6.00365448 13.15469145 -5 8 C-3.59128759 5.12858271 -1.90818145 2.56241509 0 0 Z " fill="#CEDCEB" transform="translate(389,584)"/>
<path d="M0 0 C0 0.33 0 0.66 0 1 C-0.73114014 1.02505615 -1.46228027 1.0501123 -2.21557617 1.07592773 C-5.53971417 1.19222641 -8.86359241 1.31479928 -12.1875 1.4375 C-13.33798828 1.47681641 -14.48847656 1.51613281 -15.67382812 1.55664062 C-17.34155273 1.61948242 -17.34155273 1.61948242 -19.04296875 1.68359375 C-20.06414795 1.72025146 -21.08532715 1.75690918 -22.13745117 1.79467773 C-24.83828463 1.98840063 -27.36166128 2.40451953 -30 3 C-22.50344421 -4.17061858 -9.06797621 -3.15407868 0 0 Z " fill="#D7DCEA" transform="translate(425,578)"/>
<path d="M0 0 C3.39576062 -0.05830787 6.7913915 -0.09369946 10.1875 -0.125 C11.14720703 -0.14175781 12.10691406 -0.15851562 13.09570312 -0.17578125 C14.02705078 -0.18222656 14.95839844 -0.18867187 15.91796875 -0.1953125 C16.77156982 -0.20578613 17.6251709 -0.21625977 18.50463867 -0.22705078 C21.30726815 0.02795806 23.44729419 0.84458578 26 2 C26 2.33 26 2.66 26 3 C24.91114502 2.99214478 24.91114502 2.99214478 23.80029297 2.98413086 C20.49187088 2.96326503 17.18346269 2.95030931 13.875 2.9375 C12.73289062 2.92912109 11.59078125 2.92074219 10.4140625 2.91210938 C9.30546875 2.90888672 8.196875 2.90566406 7.0546875 2.90234375 C6.03874512 2.89710693 5.02280273 2.89187012 3.97607422 2.88647461 C0.90885274 3.00347691 -1.98633134 3.43223583 -5 4 C-4.67 3.34 -4.34 2.68 -4 2 C-2.68 2 -1.36 2 0 2 C0 1.34 0 0.68 0 0 Z " fill="#7DD4F2" transform="translate(601,575)"/>
<path d="M0 0 C-2.59543881 1.74499163 -3.74485468 2.03758222 -6.890625 1.57421875 C-7.99921875 1.28160156 -9.1078125 0.98898437 -10.25 0.6875 C-18.15883606 -1.19397047 -25.89547572 -1.69476467 -34 -2 C-34 -2.33 -34 -2.66 -34 -3 C-22.21243232 -5.0063945 -11.38169855 -3.54097288 0 0 Z " fill="#1F4179" transform="translate(668,445)"/>
<path d="M0 0 C3.875 2.625 3.875 2.625 5 6 C5.40109454 10.25160217 5.26378256 12.5006973 3.25 16.3125 C-0.03640982 20.23793395 -0.03640982 20.23793395 -3 21 C-6.6875 20.75 -6.6875 20.75 -10 20 C-10.33 19.34 -10.66 18.68 -11 18 C-7.37 18 -3.74 18 0 18 C0 17.34 0 16.68 0 16 C0.66 16 1.32 16 2 16 C2.05423638 14.08364783 2.09289963 12.16685075 2.125 10.25 C2.14820313 9.18265625 2.17140625 8.1153125 2.1953125 7.015625 C2.00487687 4.07529894 1.52670104 2.47638122 0 0 Z " fill="#D5FBFE" transform="translate(461,633)"/>
<path d="M0 0 C0.66 0.66 1.32 1.32 2 2 C-1.3 2 -4.6 2 -8 2 C-10.12893285 6.25786569 -10.33899053 8.33888024 -10 13 C-9.01 14.485 -9.01 14.485 -8 16 C-8.33 16.99 -8.66 17.98 -9 19 C-11.29037598 15.99388153 -12.87295965 13.76224213 -13.5 10 C-12.86619108 6.19714649 -11.37421663 4.00268574 -9 1 C-5.98675805 -0.50662097 -3.31713623 -0.17770373 0 0 Z " fill="#DBFDFF" transform="translate(500,527)"/>
<path d="M0 0 C7.74152536 -0.39363688 14.52058632 1.05789567 22 3 C22 3.33 22 3.66 22 4 C20.98679687 3.9278125 19.97359375 3.855625 18.9296875 3.78125 C17.57813249 3.68739201 16.22656957 3.59364808 14.875 3.5 C14.20984375 3.45230469 13.5446875 3.40460938 12.859375 3.35546875 C8.89764586 3.08358538 4.97061445 2.95052194 1 3 C0.34 6.3 -0.32 9.6 -1 13 C-1.96697501 9.13209997 -1.979595 7.91837998 -1.0625 4.25 C-0.86785156 3.45078125 -0.67320312 2.6515625 -0.47265625 1.828125 C-0.31667969 1.22484375 -0.16070313 0.6215625 0 0 Z " fill="#32B4F7" transform="translate(647,468)"/>
<path d="M0 0 C0.66 0.99 1.32 1.98 2 3 C1.360625 3.61875 0.72125 4.2375 0.0625 4.875 C-2.74799713 9.13332898 -2.80559267 12.99401138 -3 18 C-2.34 18 -1.68 18 -1 18 C-0.67 19.65 -0.34 21.3 0 23 C-2.96083797 20.77937152 -4.68899998 19.39471545 -5.5078125 15.72265625 C-5.80903626 9.20618218 -3.97231532 5.07888888 0 0 Z " fill="#D2DDEC" transform="translate(586,586)"/>
<path d="M0 0 C-0.66 1.32 -1.32 2.64 -2 4 C-7.94 3.67 -13.88 3.34 -20 3 C-20.33 2.34 -20.66 1.68 -21 1 C-18.25008168 0.83188272 -15.50007888 0.6654519 -12.75 0.5 C-11.97269531 0.45230469 -11.19539062 0.40460937 -10.39453125 0.35546875 C-9.26337891 0.28779297 -9.26337891 0.28779297 -8.109375 0.21875 C-7.41811523 0.17685547 -6.72685547 0.13496094 -6.01464844 0.09179688 C-4.01161035 0.00052902 -2.0051163 0 0 0 Z " fill="#63C3EE" transform="translate(616,568)"/>
<path d="M0 0 C3.59382569 3.59382569 4.16114852 4.86316873 4.25 9.75 C4.20483412 14.21496946 3.54920638 17.22339795 1 21 C0.01 21.66 -0.98 22.32 -2 23 C-2 22.01 -2 21.02 -2 20 C-1.34 20 -0.68 20 0 20 C0 19.01 0 18.02 0 17 C0.66 17 1.32 17 2 17 C1.34 11.39 0.68 5.78 0 0 Z " fill="#D9F9FE" transform="translate(611,669)"/>
<path d="M0 0 C0 0.66 0 1.32 0 2 C-5.75 5 -5.75 5 -8 5 C-8.3403125 5.8971875 -8.3403125 5.8971875 -8.6875 6.8125 C-10.35899637 9.59832728 -12.2056404 10.37537232 -15 12 C-16.7041054 13.62836738 -18.38025441 15.28769752 -20 17 C-17.63380817 9.80126824 -11.43589869 5.26244755 -5.0625 1.5 C-2 0 -2 0 0 0 Z " fill="#11336E" transform="translate(407,491)"/>
<path d="M0 0 C2 2 2 2 2.046875 3.75 C1.94890625 4.4925 1.8509375 5.235 1.75 6 C1.64300781 6.87398437 1.53601563 7.74796875 1.42578125 8.6484375 C1.28527344 9.75445313 1.14476562 10.86046875 1 12 C0.73094492 14.37830123 0.4702529 16.75744352 0.20996094 19.13671875 C-0.18662352 22.75857254 -0.59374683 26.37921929 -1 30 C-1.33 30 -1.66 30 -2 30 C-2.13031433 23.29605159 -1.93582571 16.62973528 -1.5625 9.9375 C-1.52326416 9.18734619 -1.48402832 8.43719238 -1.44360352 7.66430664 C-1.12083489 2.24166977 -1.12083489 2.24166977 0 0 Z " fill="#3F4473" transform="translate(722,556)"/>
<path d="M0 0 C0.66 0.33 1.32 0.66 2 1 C1.67 1.99 1.34 2.98 1 4 C1.99 4.66 2.98 5.32 4 6 C2.35 7.65 0.7 9.3 -1 11 C-1.33 10.34 -1.66 9.68 -2 9 C-3.32 9 -4.64 9 -6 9 C-6 7 -6 7 -3.5625 4.5 C-2.716875 3.675 -1.87125 2.85 -1 2 C-0.67 1.34 -0.34 0.68 0 0 Z " fill="#272763" transform="translate(436,524)"/>
<path d="M0 0 C8.80451412 -0.88045141 15.96736682 1.9424395 22.875 7.51171875 C24.25 8.875 24.25 8.875 26 11 C22.60209952 10.36675491 20.35598728 9.03851148 17.5 7.125 C11.95028397 3.67920617 6.36451467 2.24665751 0 1 C0 0.67 0 0.34 0 0 Z " fill="#73CFF5" transform="translate(428,487)"/>
<path d="M0 0 C0.20625 0.5775 0.4125 1.155 0.625 1.75 C2.49750888 4.81410544 4.96958519 6.15539968 8 8 C7.01 8.495 7.01 8.495 6 9 C6 9.99 6 10.98 6 12 C3.48087612 11.66411682 2.32803881 11.42645046 0.75 9.375 C-0.25295915 6.1989627 -0.12721966 3.30771122 0 0 Z " fill="#B8D6ED" transform="translate(212,773)"/>
<path d="M0 0 C0.61875 0.33 1.2375 0.66 1.875 1 C-1.125 2 -1.125 2 -4.125 1 C-9.26318419 0.36116886 -9.26318419 0.36116886 -13.91015625 2.1171875 C-15.35148117 3.37082146 -16.74172299 4.68259332 -18.125 6 C-18.785 6 -19.445 6 -20.125 6 C-19.15941599 3.45436943 -18.18631195 2.05364796 -16.125 0.25 C-10.86095865 -1.94335056 -5.39315764 -1.72581044 0 0 Z " fill="#95F4FE" transform="translate(413.125,637)"/>
<path d="M0 0 C1.15048828 0.00483398 1.15048828 0.00483398 2.32421875 0.00976562 C3.07574219 -0.00634766 3.82726562 -0.02246094 4.6015625 -0.0390625 C9.51103933 -0.04334651 12.76815174 0.72354047 17.07421875 3.32226562 C13.70863101 4.66850072 11.74744771 3.89176808 8.421875 2.80273438 C3.08938979 1.71139381 -2.5082981 2.18701639 -7.92578125 2.32226562 C-5.34277478 -0.26074084 -3.52645473 0.034087 0 0 Z " fill="#78D2EF" transform="translate(411.92578125,574.677734375)"/>
<path d="M0 0 C1.42776575 2.85553151 0.2864731 4.68227272 -0.51953125 7.625 C-1.34940903 11.72716007 -1.15363304 15.83483756 -1 20 C-3.85237556 17.14762444 -3.76568161 14.60796806 -4.11328125 10.6875 C-3.9313714 6.37184574 -2.23087672 3.65052554 0 0 Z " fill="#C9F3FE" transform="translate(584,668)"/>
<path d="M0 0 C0.33 0 0.66 0 1 0 C0.67 5.94 0.34 11.88 0 18 C-2.30821663 14.53767506 -2.27000989 13.08201684 -2.25 9 C-2.25515625 7.948125 -2.2603125 6.89625 -2.265625 5.8125 C-2 3 -2 3 0 0 Z " fill="#1C4582" transform="translate(562,519)"/>
<path d="M0 0 C0.33 1.32 0.66 2.64 1 4 C-5.6276327 7.8741903 -10.29711007 9.6212008 -18 9 C-18 8.67 -18 8.34 -18 8 C-17.28714844 7.92523437 -16.57429687 7.85046875 -15.83984375 7.7734375 C-8.88639577 6.81885918 -4.77812048 5.18580994 0 0 Z " fill="#40A5E7" transform="translate(612,689)"/>
<path d="M0 0 C1.64869317 0.03780073 3.29594032 0.15470302 4.9375 0.3125 C5.83339844 0.39113281 6.72929688 0.46976562 7.65234375 0.55078125 C10 1 10 1 12 3 C8.37 2.67 4.74 2.34 1 2 C1 3.98 1 5.96 1 8 C0.34 8 -0.32 8 -1 8 C-1.04241723 5.66705225 -1.04092937 3.33297433 -1 1 C-0.67 0.67 -0.34 0.34 0 0 Z " fill="#60C8F1" transform="translate(650,444)"/>
<path d="M0 0 C0.33 0 0.66 0 1 0 C0.85915204 1.79206547 0.71216299 3.58364917 0.5625 5.375 C0.48128906 6.37273438 0.40007812 7.37046875 0.31640625 8.3984375 C0 11 0 11 -1 13 C-1.22467831 14.53668865 -1.40796805 16.07968054 -1.5625 17.625 C-1.64628906 18.44226563 -1.73007812 19.25953125 -1.81640625 20.1015625 C-1.87699219 20.72804688 -1.93757813 21.35453125 -2 22 C-2.33 22 -2.66 22 -3 22 C-3.36801906 14.06714481 -2.77476512 7.4654395 0 0 Z " fill="#194A83" transform="translate(382,514)"/>
<path d="M0 0 C2.9375 0.375 2.9375 0.375 6 1 C6.33 1.66 6.66 2.32 7 3 C7.99 3.33 8.98 3.66 10 4 C10 4.66 10 5.32 10 6 C11.32 6.66 12.64 7.32 14 8 C14 8.99 14 9.98 14 11 C13.49210938 10.61328125 12.98421875 10.2265625 12.4609375 9.828125 C9.19408332 7.3565724 5.93836498 4.91667921 2.5 2.6875 C1.675 2.130625 0.85 1.57375 0 1 C0 0.67 0 0.34 0 0 Z " fill="#6CC5F0" transform="translate(621,491)"/>
<path d="M0 0 C0.66 0.66 1.32 1.32 2 2 C0.1746875 2.12375 0.1746875 2.12375 -1.6875 2.25 C-5.78465871 2.73758372 -8.00139908 4.09510536 -11 7 C-11 4 -11 4 -8.875 1.8125 C-5.5518122 -0.28255318 -3.85633638 -0.51417818 0 0 Z " fill="#D0FBFE" transform="translate(459,631)"/>
<path d="M0 0 C1.41750563 0.11509661 2.83401169 0.24253658 4.25 0.375 C5.03890625 0.44460938 5.8278125 0.51421875 6.640625 0.5859375 C9.085877 1.01507113 10.84836903 1.78600638 13 3 C13 3.66 13 4.32 13 5 C14.65 5 16.3 5 18 5 C18 5.33 18 5.66 18 6 C12.88511563 6.37425983 9.60183702 5.17541386 5 3 C3.3357865 2.32723284 1.67013418 1.65793165 0 1 C0 0.67 0 0.34 0 0 Z " fill="#83E8FA" transform="translate(462,487)"/>
<path d="M0 0 C1.62490954 -0.02698189 3.24994633 -0.04638757 4.875 -0.0625 C5.77992188 -0.07410156 6.68484375 -0.08570313 7.6171875 -0.09765625 C10 0 10 0 12 1 C12 3.64 12 6.28 12 9 C11.71125 8.401875 11.4225 7.80375 11.125 7.1875 C9.95257974 4.80672208 9.95257974 4.80672208 8 2 C3.34854408 1.61975225 3.34854408 1.61975225 -1 3 C-0.67 2.01 -0.34 1.02 0 0 Z " fill="#59CCEF" transform="translate(486,655)"/>
<path d="M0 0 C-1.72343755 0.84511824 -3.45404053 1.67563354 -5.1875 2.5 C-6.15042969 2.9640625 -7.11335937 3.428125 -8.10546875 3.90625 C-10.98922693 4.99592921 -12.95354861 5.22277524 -16 5 C-14.54987453 2.09974906 -12.68687091 1.91293145 -9.6875 0.8125 C-8.72199219 0.44769531 -7.75648438 0.08289063 -6.76171875 -0.29296875 C-3.9652203 -1.008904 -2.66140462 -0.99249531 0 0 Z " fill="#73DFF5" transform="translate(600,478)"/>
<path d="M0 0 C1.32 0 2.64 0 4 0 C4 1.32 4 2.64 4 4 C0.5695421 6.71245508 -2.88545746 8.54780852 -7 10 C-2.375 5.125 -2.375 5.125 1 4 C0.67 2.68 0.34 1.36 0 0 Z " fill="#CFE4F5" transform="translate(650,247)"/>
<path d="M0 0 C7.875 0.875 7.875 0.875 9 2 C10.84891946 2.23363881 12.70488031 2.41303635 14.5625 2.5625 C15.57441406 2.64628906 16.58632813 2.73007812 17.62890625 2.81640625 C18.80259766 2.90728516 18.80259766 2.90728516 20 3 C20 3.33 20 3.66 20 4 C6.3667426 4.55353075 6.3667426 4.55353075 0 1 C0 0.67 0 0.34 0 0 Z " fill="#62CDEC" transform="translate(400,617)"/>
<path d="M0 0 C0 0.33 0 0.66 0 1 C-2.31 1 -4.62 1 -7 1 C-7.33 2.32 -7.66 3.64 -8 5 C-8.99 5 -9.98 5 -11 5 C-11 6.98 -11 8.96 -11 11 C-11.33 11 -11.66 11 -12 11 C-12.47863248 4.77777778 -12.47863248 4.77777778 -10.5 1.5625 C-6.86353539 -0.71029038 -4.24217465 -0.28281164 0 0 Z " fill="#D8BDD9" transform="translate(448,529)"/>
<path d="M0 0 C1.485 0.99 1.485 0.99 3 2 C5.11280345 2.63292383 5.11280345 2.63292383 7 3 C5.35 4.98 3.7 6.96 2 9 C0.14223235 5.86501708 -0.20140476 3.62528568 0 0 Z " fill="#283D71" transform="translate(344,454)"/>
<path d="M0 0 C0.33 0 0.66 0 1 0 C1.21467984 5.47433595 1.14372513 9.60892197 -2.625 13.8125 C-3.07875 14.204375 -3.5325 14.59625 -4 15 C-4.66 14.67 -5.32 14.34 -6 14 C-5.65066406 13.49210938 -5.30132812 12.98421875 -4.94140625 12.4609375 C-2.19475288 8.30594344 -0.3818364 5.09115195 0 0 Z " fill="#6DD9F1" transform="translate(507,532)"/>
<path d="M0 0 C1.77049689 -0.05410687 3.54146849 -0.09284119 5.3125 -0.125 C6.29863281 -0.14820313 7.28476562 -0.17140625 8.30078125 -0.1953125 C11 0 11 0 14 2 C13.26394531 1.97679687 12.52789063 1.95359375 11.76953125 1.9296875 C10.30580078 1.90261719 10.30580078 1.90261719 8.8125 1.875 C7.36810547 1.84019531 7.36810547 1.84019531 5.89453125 1.8046875 C2.87187222 2.0086456 0.73230015 2.73125368 -2 4 C-1.34 2.68 -0.68 1.36 0 0 Z " fill="#39A4E8" transform="translate(590,661)"/>
<path d="M0 0 C0.66 0.33 1.32 0.66 2 1 C1.34 2.65 0.68 4.3 0 6 C-2.31 6 -4.62 6 -7 6 C-6.21625 5.38125 -5.4325 4.7625 -4.625 4.125 C-2.03162353 2.10141339 -2.03162353 2.10141339 0 0 Z " fill="#60C4F7" transform="translate(634,558)"/>
<path d="M0 0 C0.33 0.99 0.66 1.98 1 3 C-0.65 4.65 -2.3 6.3 -4 8 C-4.66 6.68 -5.32 5.36 -6 4 C-4.02 2.68 -2.04 1.36 0 0 Z " fill="#B9D3F1" transform="translate(811,777)"/>
<path d="M0 0 C0 3.90838866 -1.50567876 5.11594107 -4 8 C-5.65 7.67 -7.3 7.34 -9 7 C-6.03716687 4.61327331 -3.05729491 2.2646629 0 0 Z " fill="#A2E0FD" transform="translate(639,723)"/>
<path d="M0 0 C0.66 0 1.32 0 2 0 C2.49230769 6.4 2.49230769 6.4 0 9.4375 C-0.99 10.2109375 -0.99 10.2109375 -2 11 C-1.34 7.37 -0.68 3.74 0 0 Z " fill="#42A4EB" transform="translate(641,594)"/>
<path d="M0 0 C1 3 1 3 0.328125 4.7890625 C-0.02765625 5.39492188 -0.3834375 6.00078125 -0.75 6.625 C-1.09546875 7.23601562 -1.4409375 7.84703125 -1.796875 8.4765625 C-3 10 -3 10 -6 11 C-4.54955729 6.89041233 -2.48889248 3.56741255 0 0 Z " fill="#30326A" transform="translate(280,251)"/>
<path d="M0 0 C0.99 0.33 1.98 0.66 3 1 C-0.465 3.97 -0.465 3.97 -4 7 C-3.04065919 3.16263678 -2.76390737 2.40339772 0 0 Z " fill="#2C3B74" transform="translate(657,742)"/>
<path d="M0 0 C1 3 1 3 0 6 C-1.98 6.33 -3.96 6.66 -6 7 C-4.02 4.69 -2.04 2.38 0 0 Z " fill="#51B6ED" transform="translate(547,606)"/>
<path d="M0 0 C2.0625 0.4375 2.0625 0.4375 4 1 C4 1.66 4 2.32 4 3 C-0.29 3 -4.58 3 -9 3 C-9 2.67 -9 2.34 -9 2 C-6.94921875 1.77213542 -4.8984375 1.54427083 -2.84765625 1.31640625 C-0.98859771 1.18113386 -0.98859771 1.18113386 0 0 Z " fill="#4C4F7E" transform="translate(433,325)"/>
<path d="M0 0 C2.05078125 0.03255208 4.1015625 0.06510417 6.15234375 0.09765625 C3.16587606 2.08863471 0.55547113 3.03890551 -2.84765625 4.09765625 C-2.84765625 0.15051037 -2.84765625 0.15051037 0 0 Z " fill="#85EBFA" transform="translate(577.84765625,482.90234375)"/>
<path d="M0 0 C0.99 0.33 1.98 0.66 3 1 C2.6875 2.9375 2.6875 2.9375 2 5 C1.01 5.33 0.02 5.66 -1 6 C-1.042721 4.33388095 -1.04063832 2.66617115 -1 1 C-0.67 0.67 -0.34 0.34 0 0 Z " fill="#41C4FD" transform="translate(379,697)"/>
<path d="M0 0 C3.48539917 0.64544429 6.02819057 2.10134397 9 4 C8.01 4.495 8.01 4.495 7 5 C4.64018187 4.06421005 2.30368736 3.06652192 0 2 C0 1.34 0 0.68 0 0 Z " fill="#C2D7EB" transform="translate(624,578)"/>
<path d="M0 0 C0.66 0.33 1.32 0.66 2 1 C0.7260411 3.03833424 -0.61061923 5.03852126 -2 7 C-2.66 7 -3.32 7 -4 7 C-3.43628586 3.73045798 -2.50037734 2.17424117 0 0 Z " fill="#133277" transform="translate(475,576)"/>
<path d="M0 0 C-5.29230769 3.07692308 -5.29230769 3.07692308 -8.875 2.6875 C-9.57625 2.460625 -10.2775 2.23375 -11 2 C-7.50078951 0.05599417 -3.80583038 -1.90291519 0 0 Z " fill="#C9E8FA" transform="translate(607,272)"/>
</svg>
